<svg xmlns="http://www.w3.org/2000/svg" xmlns:xlink="http://www.w3.org/1999/xlink" width="115" height="256" version="1.1" viewBox="0 0 115 256"><g id="Prototype-shape-slim" fill="none" fill-rule="evenodd" stroke="none" stroke-width="1"><g id="Skin-shape-slim" fill-rule="nonzero" transform="translate(-995.000000, -396.000000)"><g id="Main-Content-shape-slim" transform="translate(150.000000, 140.000000)"><g id="Group-6-shape-slim" transform="translate(471.000000, 121.000000)"><g id="Group-4" transform="translate(299.000000, 112.000000)"><g id="shape_model_slim" transform="translate(75.000000, 23.000000)"><polygon id="Shape-230" fill="#FFF" points="115 64 90.168 64 90.168 0 24.832 0 24.832 64 0 64 0 160.66 24.832 160.66 24.832 256 57.506 256 58.814 256 90.168 256 90.168 160.66 115 160.66"/><path id="Shape-232" fill="#1D1D1B" d="M115,64 L90.1702025,64 L90.1702025,0 L24.8408872,0 L24.8408872,64 L0,64 L0,160.659622 L24.8408872,160.659622 L24.8408872,256 L90.1702025,256 L90.1702025,160.659622 L115,160.659622 L115,64 Z M88.8616201,159.340378 L26.1383799,159.340378 L26.1383799,65.3081587 L88.8616201,65.3081587 L88.8616201,159.340378 Z M26.1494696,1.30815867 L88.8616201,1.30815867 L88.8616201,64 L26.1494696,64 L26.1494696,1.30815867 Z M24.707811,159.351464 L1.30858245,159.351464 L1.30858245,65.3081587 L24.707811,65.3081587 L24.707811,159.351464 Z M88.8616201,254.691841 L26.1494696,254.691841 L26.1494696,160.615278 L88.8616201,160.615278 L88.8616201,254.691841 Z M113.691418,159.351464 L90.1702025,159.351464 L90.1702025,65.3081587 L113.691418,65.3081587 L113.691418,159.351464 Z"/><path id="Rectangle-path-shape-slim" fill="#1D1D1B" d="M57,160.104283 L58.6099854,160.104283 L58.6099854,255 L57,255 L57,160.104283 Z"/></g></g></g></g></g></g></svg>