<svg xmlns="http://www.w3.org/2000/svg" xmlns:xlink="http://www.w3.org/1999/xlink" width="131" height="256" version="1.1" viewBox="0 0 131 256"><g id="Prototype-shape-classic" fill="none" fill-rule="evenodd" stroke="none" stroke-width="1"><g id="Skin-shape-classic" fill-rule="nonzero" transform="translate(-691.000000, -396.000000)"><g id="Main-Content-shape-classic" transform="translate(150.000000, 140.000000)"><g id="Group-6-shape-classic" transform="translate(471.000000, 121.000000)"><g id="Group-5" transform="translate(3.000000, 112.000000)"><g id="shape_model_classic" transform="translate(67.000000, 23.000000)"><polygon id="Shape-229" fill="#FFF" points="131 63.997 98.286 63.997 98.286 0 32.714 0 32.714 63.997 0 63.997 0 160.653 32.714 160.653 32.714 256 65.506 256 66.819 256 98.286 256 98.286 160.653 131 160.653"/><path id="Shape-231" fill="#1D1D1B" d="M131,64 L98.288955,64 L98.288955,0 L32.722175,0 L32.722175,64 L0,64 L0,160.659622 L32.722175,160.659622 L32.722175,256 L98.288955,256 L98.288955,160.659622 L131,160.659622 L131,64 Z M96.975616,159.340378 L34.024384,159.340378 L34.024384,65.3081587 L96.975616,65.3081587 L96.975616,159.340378 Z M34.035514,1.30815867 L96.975616,1.30815867 L96.975616,64 L34.035514,64 L34.035514,1.30815867 Z M32.5886151,159.351464 L1.313339,159.351464 L1.313339,65.3081587 L32.5886151,65.3081587 L32.5886151,159.351464 Z M96.975616,254.691841 L34.035514,254.691841 L34.035514,160.615278 L96.975616,160.615278 L96.975616,254.691841 Z M129.686661,159.351464 L98.288955,159.351464 L98.288955,65.3081587 L129.686661,65.3081587 L129.686661,159.351464 Z"/><polygon id="Rectangle-path-shape-model" fill="#1D1D1B" points="65 159.998 66.54 159.998 66.54 255 65 255"/></g></g></g></g></g></g></svg>