<svg xmlns="http://www.w3.org/2000/svg" xmlns:xlink="http://www.w3.org/1999/xlink" width="350" height="222" version="1.1" viewBox="0 0 350 222"><title>minecon_earth_party_2018</title><defs><linearGradient id="linearGradient-1" x1="50%" x2="50%" y1="102.043%" y2="-5.949%"><stop offset="0%" stop-color="#F39E25"/><stop offset="100%" stop-color="#E75D25"/></linearGradient><linearGradient id="linearGradient-2" x1="50.002%" x2="50.002%" y1="102.043%" y2="-5.949%"><stop offset="0%" stop-color="#F39E25"/><stop offset="100%" stop-color="#E75D25"/></linearGradient><linearGradient id="linearGradient-3" x1="50.001%" x2="50.001%" y1="102.043%" y2="-5.949%"><stop offset="0%" stop-color="#F39E25"/><stop offset="100%" stop-color="#E75D25"/></linearGradient><linearGradient id="linearGradient-4" x1="50.001%" x2="50.001%" y1="8.949%" y2="98.018%"><stop offset="0%" stop-color="#502B4C"/><stop offset="100%" stop-color="#643B48"/></linearGradient><linearGradient id="linearGradient-5" x1="50%" x2="50%" y1="8.949%" y2="98.018%"><stop offset="0%" stop-color="#502B4C"/><stop offset="100%" stop-color="#643B48"/></linearGradient><linearGradient id="linearGradient-6" x1="49.998%" x2="49.998%" y1="8.949%" y2="98.018%"><stop offset="0%" stop-color="#502B4C"/><stop offset="100%" stop-color="#643B48"/></linearGradient><linearGradient id="linearGradient-7" x1="49.998%" x2="49.998%" y1="8.949%" y2="98.018%"><stop offset="0%" stop-color="#502B4C"/><stop offset="100%" stop-color="#643B48"/></linearGradient><linearGradient id="linearGradient-8" x1="50%" x2="50%" y1="8.566%" y2="103.271%"><stop offset="24%" stop-color="#000"/><stop offset="75%" stop-color="#000" stop-opacity="0"/></linearGradient><linearGradient id="linearGradient-9" x1="50%" x2="50%" y1="0%" y2="100%"><stop offset="0%" stop-color="#212328"/><stop offset="1%" stop-color="#202227"/><stop offset="13%" stop-color="#121316"/><stop offset="29%" stop-color="#080809"/><stop offset="50%" stop-color="#020202"/><stop offset="100%" stop-color="#000"/></linearGradient><linearGradient id="linearGradient-10" x1="50%" x2="50%" y1="100%" y2="0%"><stop offset="0%" stop-color="#CFC3C0"/><stop offset="100%" stop-color="#9C9593"/></linearGradient><linearGradient id="linearGradient-11" x1="49.997%" x2="49.997%" y1="100%" y2="0%"><stop offset="0%" stop-color="#CFC3C0"/><stop offset="100%" stop-color="#9C9593"/></linearGradient><linearGradient id="linearGradient-12" x1="49.999%" x2="49.999%" y1="100%" y2="0%"><stop offset="0%" stop-color="#CFC3C0"/><stop offset="100%" stop-color="#9C9593"/></linearGradient><linearGradient id="linearGradient-13" x1="49.993%" x2="49.993%" y1="100%" y2="0%"><stop offset="0%" stop-color="#CFC3C0"/><stop offset="100%" stop-color="#9C9593"/></linearGradient><linearGradient id="linearGradient-14" x1="49.998%" x2="49.998%" y1="100%" y2="0%"><stop offset="0%" stop-color="#CFC3C0"/><stop offset="100%" stop-color="#9C9593"/></linearGradient><linearGradient id="linearGradient-15" x1="50.002%" x2="50.002%" y1="100%" y2="0%"><stop offset="0%" stop-color="#CFC3C0"/><stop offset="100%" stop-color="#9C9593"/></linearGradient><linearGradient id="linearGradient-16" x1="50%" x2="50%" y1="77.42%" y2="-94.545%"><stop offset="0%" stop-color="#FFF"/><stop offset="100%" stop-color="#121617"/></linearGradient><linearGradient id="linearGradient-17" x1="49.997%" x2="49.997%" y1="77.42%" y2="-94.545%"><stop offset="0%" stop-color="#FFF"/><stop offset="100%" stop-color="#121617"/></linearGradient><linearGradient id="linearGradient-18" x1="49.999%" x2="49.999%" y1="77.42%" y2="-94.545%"><stop offset="0%" stop-color="#FFF"/><stop offset="100%" stop-color="#121617"/></linearGradient><linearGradient id="linearGradient-19" x1="49.993%" x2="49.993%" y1="77.42%" y2="-94.545%"><stop offset="0%" stop-color="#FFF"/><stop offset="100%" stop-color="#121617"/></linearGradient><linearGradient id="linearGradient-20" x1="49.998%" x2="49.998%" y1="77.42%" y2="-94.545%"><stop offset="0%" stop-color="#FFF"/><stop offset="100%" stop-color="#121617"/></linearGradient><linearGradient id="linearGradient-21" x1="50.002%" x2="50.002%" y1="77.42%" y2="-94.545%"><stop offset="0%" stop-color="#FFF"/><stop offset="100%" stop-color="#121617"/></linearGradient><linearGradient id="linearGradient-22" x1="50%" x2="50%" y1="1.276%" y2="99.405%"><stop offset="0%" stop-color="#7EC260"/><stop offset="100%" stop-color="#42B449"/></linearGradient><linearGradient id="linearGradient-23" x1="49.999%" x2="49.999%" y1="1.276%" y2="99.405%"><stop offset="0%" stop-color="#7EC260"/><stop offset="100%" stop-color="#42B449"/></linearGradient><linearGradient id="linearGradient-24" x1="50%" x2="50%" y1="1.272%" y2="99.402%"><stop offset="0%" stop-color="#7EC260"/><stop offset="100%" stop-color="#42B449"/></linearGradient></defs><g id="Viewing-Parties" fill="none" fill-rule="evenodd" stroke="none" stroke-width="1"><g id="Minecon-start---Parties---Map---19-june" fill-rule="nonzero" transform="translate(-553.000000, -2210.000000)"><g id="minecon_earth_party_2018" transform="translate(553.000000, 2210.000000)"><rect id="Rectangle-path-minecon-earth" width="283.016" height="50.046" x="36.341" y="55.267" fill="#000"/><polygon id="Shape-1" fill="#000" points="326.389 148.63 22.957 148.63 3.947 168.416 48.505 221.404 76.115 221.404 64.304 204.806 90.838 204.806 99.069 221.404 201.081 221.404 206.701 184.158 221.997 184.158 211.557 221.404 237.814 221.404 253.071 184.158 267.819 184.158 259.238 200.078 273.828 200.078 260.493 221.404 287.774 221.404 303.869 200.078 318.776 200.078 345.4 168.416"/><polygon id="Shape-2" fill="url(#linearGradient-1)" points="212.305 168.855 273.385 168.855 267.269 181.188 250.882 181.188 235.623 218.435 215.862 218.435 226.302 181.188 209.912 181.188"/><polygon id="Shape-3" fill="url(#linearGradient-1)" points="279.933 168.855 306.109 168.855 294.11 186.808 302.065 186.808 314.838 168.855 341.013 168.855 317.257 197.107 302.243 197.107 286.149 218.435 266.383 218.435 279.719 197.107 264.704 197.107"/><path id="Shape-4" fill="url(#linearGradient-2)" d="M202.245338,192.107032 L205.754856,168.855284 L144.677545,168.855284 L152.156177,218.434538 L171.917444,218.434538 L171.559829,201.836053 L178.861694,201.836053 L178.504079,218.434538 L198.265346,218.434538 L201.485237,197.106838 L193.97805,197.106838 L194.52195,192.107032 L202.245338,192.107032 Z M179.079254,192.107032 L171.357226,192.107032 L171.120629,181.188228 L179.314491,181.188228 L179.079254,192.107032 Z"/><path id="Shape-5" fill="url(#linearGradient-3)" d="M137.582362,168.855284 L76.5064103,168.855284 L101.093434,218.434538 L120.854701,218.434538 L114.771173,201.836053 L122.074398,201.836053 L127.442696,218.434538 L147.203963,218.434538 L137.582362,168.855284 Z M111.203186,192.107032 L107.201437,181.188228 L115.393939,181.188228 L118.929293,192.107032 L111.203186,192.107032 Z"/><path id="Shape-6" fill="url(#linearGradient-1)" d="M87.1913364,201.836053 L69.4139472,168.855284 L8.33391608,168.855284 L50.0238928,218.434538 L69.786519,218.434538 L57.9757187,201.836053 L87.1913364,201.836053 Z M43.2836053,181.188228 L51.477467,181.188228 L58.7752525,192.107032 L51.0532246,192.107032 L43.2836053,181.188228 Z"/><polygon id="Shape-7" fill="url(#linearGradient-4)" points="137.582 168.855 141.278 152.187 85.951 152.187 76.506 168.855"/><polygon id="Shape-8" fill="url(#linearGradient-4)" points="24.348 152.187 8.334 168.855 69.414 168.855 79.679 152.187"/><polygon id="Shape-9" fill="url(#linearGradient-5)" points="205.755 168.855 202.882 152.187 147.553 152.187 144.68 168.855"/><polygon id="Shape-10" fill="url(#linearGradient-5)" points="208.609 152.187 212.305 168.855 273.385 168.855 263.94 152.187"/><polygon id="Shape-11" fill="url(#linearGradient-6)" points="269.669 152.187 279.933 168.855 306.109 168.855 293.38 152.187"/><polygon id="Shape-12" fill="url(#linearGradient-7)" points="301.288 152.187 314.838 168.855 341.013 168.855 325 152.187"/><polygon id="Shape-13" fill="#000" points="76.115 221.404 82.884 204.806 64.304 204.806"/><polygon id="Shape-14" fill="#000" points="249.857 192.004 260.493 221.404 273.828 200.078 259.238 200.078 267.819 184.158 253.071 184.158"/><polygon id="Shape-15" fill="#000" points="206.115 188.045 211.557 221.404 221.997 184.158 206.701 184.158"/><path id="Shape-16" fill="#FFE164" d="M212.452991,168.855284 L273.190365,168.855284"/><path id="Shape-17" fill="#FFE164" d="M273.191725,168.855284 C273.191725,169.161228 272.566239,169.411422 271.802059,169.411422 L213.842657,169.411422 C213.078477,169.411422 212.452991,169.161228 212.452991,168.855284 C212.452991,168.54934 213.078477,168.299145 213.842657,168.299145 L271.802059,168.299145 C272.566239,168.299145 273.191725,168.54934 273.191725,168.855284 Z"/><path id="Shape-18" fill="#FFE164" d="M144.848873,168.855284 L205.586247,168.855284"/><path id="Shape-19" fill="#FFE164" d="M205.586247,168.855284 C205.586247,169.161228 204.960761,169.411422 204.196581,169.411422 L146.238539,169.411422 C145.474359,169.411422 144.848873,169.161228 144.848873,168.855284 C144.848873,168.54934 145.474359,168.299145 146.238539,168.299145 L204.196581,168.299145 C204.960761,168.299145 205.586247,168.54934 205.586247,168.855284 Z"/><path id="Shape-20" fill="#FFE164" d="M76.7470862,168.855284 L137.48446,168.855284"/><path id="Shape-21" fill="#FFE164" d="M137.48446,168.855284 C137.48446,169.161228 136.858974,169.411422 136.094794,169.411422 L78.1367521,169.411422 C77.3725719,169.411422 76.7470862,169.161228 76.7470862,168.855284 C76.7470862,168.54934 77.3725719,168.299145 78.1367521,168.299145 L136.094794,168.299145 C136.858974,168.299145 137.48446,168.54934 137.48446,168.855284 Z"/><path id="Shape-22" fill="#FFE164" d="M8.71192696,168.855284 L69.1936674,168.855284"/><path id="Shape-23" fill="#FFE164" d="M69.1950272,168.855284 C69.1950272,169.161228 68.5695416,169.411422 67.8053613,169.411422 L10.1015929,169.411422 C9.33741259,169.411422 8.71192696,169.161228 8.71192696,168.855284 C8.71192696,168.54934 9.33741259,168.299145 10.1015929,168.299145 L67.8053613,168.299145 C68.5695416,168.299145 69.1950272,168.54934 69.1950272,168.855284 Z"/><path id="Shape-24" fill="#FFE164" d="M280.081585,168.855284 L305.874709,168.855284"/><path id="Shape-25" fill="#FFE164" d="M305.874709,168.855284 C305.874709,169.161228 305.249223,169.411422 304.485043,169.411422 L281.468531,169.411422 C280.704351,169.411422 280.078866,169.161228 280.078866,168.855284 C280.078866,168.54934 280.704351,168.299145 281.468531,168.299145 L304.482323,168.299145 C305.249223,168.299145 305.874709,168.54934 305.874709,168.855284 Z"/><path id="Shape-26" fill="#FFE164" d="M293.602953,187.365579 L301.911033,187.365579"/><path id="Shape-27" fill="#FFE164" d="M301.911033,187.365579 C301.911033,187.671523 301.285548,187.921717 300.521368,187.921717 L294.992618,187.921717 C294.228438,187.921717 293.602953,187.671523 293.602953,187.365579 C293.602953,187.059635 294.228438,186.809441 294.992618,186.809441 L300.521368,186.809441 C301.285548,186.809441 301.911033,187.059635 301.911033,187.365579 Z"/><path id="Shape-28" fill="#FFE164" d="M171.376263,192.66317 L179.086053,192.66317"/><path id="Shape-29" fill="#FFE164" d="M179.086053,192.66317 C179.086053,192.967754 178.460567,193.217949 177.696387,193.217949 L172.765929,193.217949 C172.001748,193.217949 171.376263,192.967754 171.376263,192.66317 C171.376263,192.358586 172.001748,192.107032 172.765929,192.107032 L177.696387,192.107032 C178.460567,192.107032 179.086053,192.357226 179.086053,192.66317 Z"/><path id="Shape-30" fill="#FFE164" d="M111.505051,192.66317 L119.214841,192.66317"/><path id="Shape-31" fill="#FFE164" d="M119.214841,192.66317 C119.214841,192.967754 118.589355,193.217949 117.825175,193.217949 L112.894716,193.217949 C112.129176,193.217949 111.505051,192.967754 111.505051,192.66317 C111.505051,192.358586 112.129176,192.107032 112.894716,192.107032 L117.825175,192.107032 C118.589355,192.107032 119.214841,192.357226 119.214841,192.66317 Z"/><path id="Shape-32" fill="#FFE164" d="M51.3782051,192.66317 L59.0879953,192.66317"/><path id="Shape-33" fill="#FFE164" d="M59.0879953,192.66317 C59.0879953,192.967754 58.4638695,193.217949 57.6983294,193.217949 L52.767871,193.217949 C52.0036908,193.217949 51.3782051,192.967754 51.3782051,192.66317 C51.3782051,192.358586 52.0036908,192.107032 52.767871,192.107032 L57.6983294,192.107032 C58.4693085,192.107032 59.0879953,192.357226 59.0879953,192.66317 Z"/><path id="Shape-34" fill="#FFE164" d="M314.956488,168.855284 L340.749611,168.855284"/><path id="Shape-35" fill="#FFE164" d="M340.753691,168.855284 C340.753691,169.161228 340.129565,169.411422 339.365385,169.411422 L316.346154,169.411422 C315.581974,169.411422 314.956488,169.161228 314.956488,168.855284 C314.956488,168.54934 315.581974,168.299145 316.346154,168.299145 L339.361305,168.299145 C340.125486,168.299145 340.753691,168.54934 340.753691,168.855284 Z"/><polygon id="Shape-36" fill="url(#linearGradient-8)" points="24.348 152.187 8.334 168.855 341.013 168.855 325.059 152.187"/><polygon id="Shape-37" fill="#000" points="131.242 72.797 128.019 62.879 126.707 62.879 126.574 62.481 125.523 72.797 104.334 72.797 103.405 71.071 103.155 72.797 82.338 72.797 81.113 71.081 80.79 72.797 60.298 72.797 51.486 62.879 46.449 62.879 45.28 61.616 42.34 72.797 22.319 72.797 0 54.022 18.599 0 39.204 0 48.319 12.855 49.318 9.152 54.953 9.152 57.308 0 78.436 0 79.416 1.929 79.815 0 101.287 0 102.029 1.898 102.325 0 124.172 0 126.685 9.152 128.792 9.152 129.004 9.96 129.941 0 152.344 0 155.414 23.418 153.014 72.797"/><path id="Shape-38" fill="#000" d="M307.547203,72.7970085 L306.035159,67.0452603 L300.432984,72.7970085 L280.095183,72.7970085 L279.737568,71.0905206 L278.377817,72.7970085 L235.744172,72.7970085 L235.53885,71.1408314 L234.788267,72.7970085 L196.891997,72.7970085 L194.485237,23.4189977 L197.558275,0 L236.52467,0 L236.761267,1.79623155 L237.360917,0 L281.131313,0 L281.581391,1.94444444 L282.68007,0 L303.639277,0 L305.644911,7.10606061 L310.675991,0 L331.29662,0 L349.895299,54.0215618 L327.581779,72.7970085 L307.547203,72.7970085 Z M231.556138,38.9663947 L231.027195,34.6967754 L230.832751,35.2937063 L223.271173,35.2937063 L223.61655,38.965035 L231.556138,38.9663947 Z"/><polygon id="Shape-39" fill="#000" points="153.058 72.797 150.107 53.158 152.42 0 197.467 0 198.008 12.453 195.554 35.294 192.626 35.294 192.297 38.966 199.161 38.966 199.779 53.158 196.831 72.797"/><polygon id="Shape-40" fill="#000" points="54.255 34.27 54.803 32.094 51.078 26.977 51.978 23.55 37.552 3.198 34.742 12.351 38.834 17.741 37.616 21.876 46.234 32.864 43.724 42.166 43.486 42.166 34.69 31.805 28.768 31.805 22.265 52.988 39.875 69.598 43.668 55.165 47.847 59.679 58.569 59.679 60.771 50.137 66.023 50.137"/><polygon id="Shape-41" fill="#000" points="65.517 52.988 78.138 69.598 86.815 23.55 76.472 3.198"/><polygon id="Shape-42" fill="#000" points="90.664 52.988 100.386 69.598 107.067 23.55 99.103 3.198"/><polygon id="Shape-43" fill="#000" points="126.915 27.535 130.718 40.948 131.523 32.094 126.326 12.351 125.744 17.807 121.734 3.198 120.645 12.351 126.451 32.094"/><polygon id="Shape-44" fill="#000" points="127.433 42.166 124.253 31.805 118.332 31.805 115.813 52.988 122.633 69.598 124.614 50.137 125.816 50.137 129.009 59.679 134.364 59.679 129.187 42.166"/><polygon id="Shape-45" fill="#000" points="146.71 52.988 149.967 69.598 152.206 23.55 149.537 3.198"/><polygon id="Shape-46" fill="#000" points="324.299 42.166 318.262 42.166 315.209 31.805 309.955 31.805 318.069 21.876 312.335 3.198 297.911 23.55 302.33 40.363 295.658 48.568 284.547 3.198 273.039 23.55 282.692 69.598 296.74 52.988 296.042 50.137 299.646 50.137 302.052 59.679 307.406 59.679 310.012 69.598 327.621 52.988"/><polygon id="Shape-47" fill="#000" points="258.014 12.351 249.134 32.094 254.193 32.094 258.782 59.679 269.473 42.166 263.68 12.351"/><polygon id="Shape-48" fill="#000" points="232.87 23.55 238.571 69.598 246.866 52.988 239.666 3.198"/><polygon id="Shape-49" fill="#000" points="217.896 12.351 213.304 32.094 228.509 32.094 234.922 12.351"/><polygon id="Shape-50" fill="#000" points="197.696 23.55 199.934 69.598 203.192 52.988 200.365 3.198"/><polygon id="Shape-51" fill="#000" points="172.051 21.876 172.215 31.805 171.99 31.805 171.926 42.166 172.268 59.679 172.319 50.137 188.086 50.137 189.702 32.094 192.679 32.094 194.802 12.351 172.111 12.351"/><polygon id="Shape-52" fill="#212328" points="3.739 52.988 23.486 69.598 39.875 69.598 22.265 52.988"/><polygon id="Shape-53" fill="#212328" points="3.739 52.988 23.486 69.598 39.875 69.598 22.265 52.988"/><polygon id="Shape-54" fill="#212328" points="72.124 52.988 83.984 69.598 100.386 69.598 90.664 52.988"/><polygon id="Shape-55" fill="#212328" points="72.124 52.988 83.984 69.598 100.386 69.598 90.664 52.988"/><polygon id="Shape-56" fill="#212328" points="97.286 52.988 106.244 69.598 122.633 69.598 115.813 52.988"/><polygon id="Shape-57" fill="#212328" points="97.286 52.988 106.244 69.598 122.633 69.598 115.813 52.988"/><polygon id="Shape-58" fill="#212328" points="128.169 52.988 133.566 69.598 149.967 69.598 146.71 52.988"/><polygon id="Shape-59" fill="#212328" points="128.169 52.988 133.566 69.598 149.967 69.598 146.71 52.988"/><polygon id="Shape-60" fill="#212328" points="296.74 52.988 282.692 69.598 299.083 69.598 315.267 52.988"/><polygon id="Shape-61" fill="#212328" points="296.74 52.988 282.692 69.598 299.083 69.598 315.267 52.988"/><polygon id="Shape-62" fill="#212328" points="327.621 52.988 310.012 69.598 326.415 69.598 346.163 52.988"/><polygon id="Shape-63" fill="#212328" points="327.621 52.988 310.012 69.598 326.415 69.598 346.163 52.988"/><polygon id="Shape-64" fill="#212328" points="246.866 52.988 238.571 69.598 276.836 69.598 290.118 52.988"/><polygon id="Shape-65" fill="#212328" points="246.866 52.988 238.571 69.598 276.836 69.598 290.118 52.988"/><polygon id="Shape-66" fill="#212328" points="203.192 52.988 199.934 69.598 232.726 69.598 240.259 52.988"/><polygon id="Shape-67" fill="#212328" points="203.192 52.988 199.934 69.598 232.726 69.598 240.259 52.988"/><polygon id="Shape-68" fill="#212328" points="155.813 69.598 194.076 69.598 196.568 52.988 153.316 52.988"/><polygon id="Shape-69" fill="#212328" points="155.813 69.598 194.076 69.598 196.568 52.988 153.316 52.988"/><polygon id="Shape-70" fill="#212328" points="31.637 42.02 47.847 59.613 58.569 59.679 43.724 42.02"/><polygon id="Shape-71" fill="#212328" points="31.637 42.02 47.847 59.613 58.569 59.679 43.724 42.02"/><polygon id="Shape-72" fill="#212328" points="46.977 52.988 61.735 69.598 78.138 69.598 65.517 52.988"/><polygon id="Shape-73" fill="#212328" points="46.977 52.988 61.735 69.598 78.138 69.598 65.517 52.988"/><polygon id="Shape-74" fill="#212328" points="3.739 52.988 23.486 69.598 39.875 69.598 22.265 52.988"/><polygon id="Shape-75" fill="#212328" points="72.124 52.988 83.984 69.598 100.386 69.598 90.664 52.988"/><polygon id="Shape-76" fill="#212328" points="97.286 52.988 106.244 69.598 122.633 69.598 115.813 52.988"/><polygon id="Shape-77" fill="#212328" points="128.169 52.988 133.566 69.598 149.967 69.598 146.71 52.988"/><polygon id="Shape-78" fill="#212328" points="296.74 52.988 282.692 69.598 299.083 69.598 315.267 52.988"/><polygon id="Shape-79" fill="#212328" points="327.621 52.988 310.012 69.598 326.415 69.598 346.163 52.988"/><polygon id="Shape-80" fill="#212328" points="246.866 52.988 238.571 69.598 276.836 69.598 290.118 52.988"/><polygon id="Shape-81" fill="#212328" points="203.192 52.988 199.934 69.598 232.726 69.598 240.259 52.988"/><polygon id="Shape-82" fill="#212328" points="155.813 69.598 194.076 69.598 196.568 52.988 153.316 52.988"/><polygon id="Shape-83" fill="url(#linearGradient-9)" points="31.637 42.02 47.847 59.613 58.569 59.679 43.724 42.02"/><polygon id="Shape-84" fill="#212328" points="46.977 52.988 61.735 69.598 78.138 69.598 65.517 52.988"/><polygon id="Shape-85" fill="url(#linearGradient-10)" points="59.788 3.636 57.433 11.633 51.767 11.633 49.199 21.228 37.616 21.228 40.421 11.633 34.742 11.633 37.552 3.636 20.88 3.636 3.739 53.215 22.265 53.215 28.768 32.425 34.69 32.425 31.637 42.02 43.724 42.02 46.52 32.425 52.427 32.425 46.977 53.215 65.517 53.215 76.472 3.636"/><polygon id="Shape-86" fill="url(#linearGradient-11)" points="82.419 3.636 72.124 53.215 90.664 53.215 99.103 3.636"/><polygon id="Shape-87" fill="url(#linearGradient-12)" points="131.096 21.228 125.311 21.228 126.326 11.633 120.645 11.633 121.734 3.636 105.063 3.636 97.286 53.215 115.813 53.215 118.332 32.425 124.253 32.425 123.151 42.02 129.187 42.02 128.169 53.215 146.71 53.215 149.537 3.636 132.853 3.636"/><polygon id="Shape-88" fill="url(#linearGradient-10)" points="329.02 3.636 312.335 3.636 318.069 21.228 312.286 21.228 309.478 11.633 303.8 11.633 301.218 3.636 284.547 3.636 296.74 53.215 315.267 53.215 309.29 32.425 315.209 32.425 318.262 42.02 324.299 42.02 327.621 53.215 346.163 53.215"/><path id="Shape-89" fill="url(#linearGradient-13)" d="M239.665695,3.63597514 L246.872378,53.2152292 L290.124709,53.2152292 L278.588578,3.63597514 L239.665695,3.63597514 Z M263.438228,42.016317 L258.01418,11.6326729 L263.680264,11.6326729 L269.472805,42.016317 L263.438228,42.016317 Z"/><polygon id="Shape-90" fill="url(#linearGradient-14)" points="220.7 42.02 217.896 11.633 234.922 11.633 233.72 3.636 200.365 3.636 203.192 53.215 240.259 53.215 238.838 42.02"/><polygon id="Shape-91" fill="url(#linearGradient-15)" points="171.926 42.02 171.99 32.425 189.726 32.425 189.419 21.228 172.051 21.228 172.111 11.633 194.802 11.633 194.404 3.636 155.482 3.636 153.316 53.215 196.568 53.215 196.099 42.02"/><polygon id="Shape-92" fill="url(#linearGradient-10)" points="59.788 3.636 57.433 11.633 51.767 11.633 49.199 21.228 37.616 21.228 40.421 11.633 34.742 11.633 37.552 3.636 20.88 3.636 3.739 53.215 22.265 53.215 28.768 32.425 34.69 32.425 31.637 42.02 43.724 42.02 46.52 32.425 52.427 32.425 46.977 53.215 65.517 53.215 76.472 3.636"/><polygon id="Shape-93" fill="url(#linearGradient-11)" points="82.419 3.636 72.124 53.215 90.664 53.215 99.103 3.636"/><polygon id="Shape-94" fill="url(#linearGradient-12)" points="131.096 21.228 125.311 21.228 126.326 11.633 120.645 11.633 121.734 3.636 105.063 3.636 97.286 53.215 115.813 53.215 118.332 32.425 124.253 32.425 123.151 42.02 129.187 42.02 128.169 53.215 146.71 53.215 149.537 3.636 132.853 3.636"/><polygon id="Shape-95" fill="url(#linearGradient-10)" points="329.02 3.636 312.335 3.636 318.069 21.228 312.286 21.228 309.478 11.633 303.8 11.633 301.218 3.636 284.547 3.636 296.74 53.215 315.267 53.215 309.29 32.425 315.209 32.425 318.262 42.02 324.299 42.02 327.621 53.215 346.163 53.215"/><path id="Shape-96" fill="url(#linearGradient-13)" d="M239.665695,3.63597514 L246.872378,53.2152292 L290.124709,53.2152292 L278.588578,3.63597514 L239.665695,3.63597514 Z M263.438228,42.016317 L258.01418,11.6326729 L263.680264,11.6326729 L269.472805,42.016317 L263.438228,42.016317 Z"/><polygon id="Shape-97" fill="url(#linearGradient-14)" points="220.7 42.02 217.896 11.633 234.922 11.633 233.72 3.636 200.365 3.636 203.192 53.215 240.259 53.215 238.838 42.02"/><polygon id="Shape-98" fill="url(#linearGradient-15)" points="171.926 42.02 171.99 32.425 189.726 32.425 189.419 21.228 172.051 21.228 172.111 11.633 194.802 11.633 194.404 3.636 155.482 3.636 153.316 53.215 196.568 53.215 196.099 42.02"/><g id="Group" opacity=".34" transform="translate(3.671329, 3.535354)" style="mix-blend-mode:multiply"><polygon id="Shape-99" fill="url(#linearGradient-16)" points="56.117 .101 53.762 8.097 48.096 8.097 45.527 17.693 33.945 17.693 36.75 8.097 31.07 8.097 33.881 .101 17.209 .101 .068 49.68 18.593 49.68 25.097 28.889 31.019 28.889 27.966 38.485 40.053 38.485 42.848 28.889 48.755 28.889 43.305 49.68 61.846 49.68 72.801 .101"/><polygon id="Shape-100" fill="url(#linearGradient-17)" points="78.747 .101 68.453 49.68 86.993 49.68 95.431 .101"/><polygon id="Shape-101" fill="url(#linearGradient-18)" points="127.425 17.693 121.639 17.693 122.655 8.097 116.974 8.097 118.063 .101 101.391 .101 93.615 49.68 112.141 49.68 114.661 28.889 120.581 28.889 119.48 38.485 125.516 38.485 124.497 49.68 143.039 49.68 145.866 .101 129.182 .101"/><polygon id="Shape-102" fill="url(#linearGradient-16)" points="325.349 .101 308.664 .101 314.398 17.693 308.615 17.693 305.807 8.097 300.128 8.097 297.546 .101 280.876 .101 293.069 49.68 311.595 49.68 305.619 28.889 311.538 28.889 314.591 38.485 320.628 38.485 323.95 49.68 342.491 49.68"/><path id="Shape-103" fill="url(#linearGradient-19)" d="M235.994367,0.100621601 L243.201049,49.6798757 L286.45338,49.6798757 L274.917249,0.100621601 L235.994367,0.100621601 Z M259.7669,38.4809635 L254.342852,8.09731935 L260.008936,8.09731935 L265.801476,38.4809635 L259.7669,38.4809635 Z"/><polygon id="Shape-104" fill="url(#linearGradient-20)" points="217.029 38.485 214.225 8.097 231.25 8.097 230.048 .101 196.693 .101 199.52 49.68 236.587 49.68 235.166 38.485"/><polygon id="Shape-105" fill="url(#linearGradient-21)" points="168.254 38.485 168.318 28.889 186.055 28.889 185.747 17.693 168.379 17.693 168.439 8.097 191.131 8.097 190.732 .101 151.811 .101 149.645 49.68 192.897 49.68 192.428 38.485"/><polygon id="Shape-106" fill="url(#linearGradient-16)" points="56.117 .101 53.762 8.097 48.096 8.097 45.527 17.693 33.945 17.693 36.75 8.097 31.07 8.097 33.881 .101 17.209 .101 .068 49.68 18.593 49.68 25.097 28.889 31.019 28.889 27.966 38.485 40.053 38.485 42.848 28.889 48.755 28.889 43.305 49.68 61.846 49.68 72.801 .101"/><polygon id="Shape-107" fill="url(#linearGradient-17)" points="78.747 .101 68.453 49.68 86.993 49.68 95.431 .101"/><polygon id="Shape-108" fill="url(#linearGradient-18)" points="127.425 17.693 121.639 17.693 122.655 8.097 116.974 8.097 118.063 .101 101.391 .101 93.615 49.68 112.141 49.68 114.661 28.889 120.581 28.889 119.48 38.485 125.516 38.485 124.497 49.68 143.039 49.68 145.866 .101 129.182 .101"/><polygon id="Shape-109" fill="url(#linearGradient-16)" points="325.349 .101 308.664 .101 314.398 17.693 308.615 17.693 305.807 8.097 300.128 8.097 297.546 .101 280.876 .101 293.069 49.68 311.595 49.68 305.619 28.889 311.538 28.889 314.591 38.485 320.628 38.485 323.95 49.68 342.491 49.68"/><path id="Shape-110" fill="url(#linearGradient-19)" d="M235.994367,0.100621601 L243.201049,49.6798757 L286.45338,49.6798757 L274.917249,0.100621601 L235.994367,0.100621601 Z M259.7669,38.4809635 L254.342852,8.09731935 L260.008936,8.09731935 L265.801476,38.4809635 L259.7669,38.4809635 Z"/><polygon id="Shape-111" fill="url(#linearGradient-20)" points="217.029 38.485 214.225 8.097 231.25 8.097 230.048 .101 196.693 .101 199.52 49.68 236.587 49.68 235.166 38.485"/><polygon id="Shape-112" fill="url(#linearGradient-21)" points="168.254 38.485 168.318 28.889 186.055 28.889 185.747 17.693 168.379 17.693 168.439 8.097 191.131 8.097 190.732 .101 151.811 .101 149.645 49.68 192.897 49.68 192.428 38.485"/></g><path id="Shape-113" fill="#E6E6E4" d="M6.23310023,52.5639083 C4.91550117,52.5911033 3.9527972,52.8249806 4.09149184,53.0806138 C4.23018648,53.3362471 5.42132867,53.5483683 6.73892774,53.5483683 L9.85819736,53.5483683 C11.1744367,53.5483683 12.3655789,53.2954545 12.5042735,52.986791 C12.6429681,52.6781274 11.6802642,52.4496892 10.3640249,52.4768842 L6.23310023,52.5639083 Z"/><path id="Shape-114" fill="#E6E6E4" d="M17.472805,52.5503108 C16.1565657,52.5856643 15.1693862,52.8222611 15.2781663,53.0806138 C15.3869464,53.3389666 16.5536131,53.5483683 17.8712121,53.5483683 L19.2948718,53.5483683 C20.6124709,53.5483683 21.7791375,53.2954545 21.8879176,52.986791 C21.9966977,52.6781274 21.0095183,52.4551282 19.6932789,52.4904817 L17.472805,52.5503108 Z"/><path id="Shape-115" fill="#E6E6E4" d="M49.3698524,52.5911033 C48.0522533,52.6033411 47.211927,52.8249806 47.501554,53.0806138 C47.791181,53.3362471 49.1033411,53.5483683 50.4209402,53.5483683 L62.0658508,53.5483683 C63.3820901,53.5483683 64.6956099,53.2954545 64.985237,52.986791 C65.274864,52.6781274 64.4331779,52.4428904 63.1169386,52.4496892 L49.3698524,52.5911033 Z"/><path id="Shape-116" fill="#E6E6E4" d="M74.5143745,52.5911033 C73.1981352,52.6033411 72.3578089,52.8249806 72.6460761,53.0806138 C72.9343434,53.3362471 74.249223,53.5483683 75.5654623,53.5483683 L87.210373,53.5483683 C88.5266123,53.5483683 89.8401321,53.2954545 90.1297591,52.986791 C90.4193862,52.6781274 89.5777001,52.4428904 88.2614608,52.4496892 L74.5143745,52.5911033 Z"/><path id="Shape-117" fill="#E6E6E4" d="M99.8057498,52.5503108 C98.4895105,52.5856643 97.502331,52.8222611 97.6124709,53.0806138 C97.7226107,53.3389666 98.8892774,53.5483683 100.205517,53.5483683 L101.676768,53.5483683 C102.993007,53.5483683 104.159674,53.2954545 104.271173,52.986791 C104.382673,52.6781274 103.394134,52.4551282 102.077894,52.4904817 L99.8057498,52.5503108 Z"/><path id="Shape-118" fill="#E6E6E4" d="M108.327312,52.5693473 C107.011072,52.5938228 106.061966,52.8249806 106.218337,53.0806138 C106.374709,53.3362471 107.578089,53.5483683 108.898407,53.5483683 L113.048368,53.5483683 C114.364608,53.5483683 115.570707,53.2954545 115.727078,52.986791 C115.88345,52.6781274 114.935703,52.4428904 113.619464,52.472805 L108.327312,52.5693473 Z"/><path id="Shape-119" fill="#E6E6E4" d="M130.561966,52.5911033 C129.245726,52.6033411 128.4054,52.8249806 128.695027,53.0806138 C128.984654,53.3362471 130.296814,53.5483683 131.614413,53.5483683 L143.259324,53.5483683 C144.575563,53.5483683 145.889083,53.2954545 146.17871,52.986791 C146.468337,52.6781274 145.626651,52.4428904 144.310412,52.4496892 L130.561966,52.5911033 Z"/><path id="Shape-120" fill="#E6E6E4" d="M155.710567,52.5707071 C154.392968,52.5938228 153.446581,52.8249806 153.605672,53.0806138 C153.764763,53.3362471 154.965423,53.5483683 156.289821,53.5483683 L160.56216,53.5483683 C161.878399,53.5483683 163.085859,53.2954545 163.244949,52.986791 C163.40404,52.6781274 162.459013,52.4428904 161.142774,52.4700855 L155.710567,52.5707071 Z"/><path id="Shape-121" fill="#E6E6E4" d="M168.073427,52.6006216 C166.757187,52.6074204 166.074592,52.8249806 166.555944,53.0806138 C167.037296,53.3362471 168.508547,53.5483683 169.819347,53.5483683 L192.415695,53.5483683 C193.731935,53.5483683 195.204545,53.2954545 195.687257,52.986791 C196.169969,52.6781274 195.486014,52.4333722 194.169775,52.4428904 L168.073427,52.6006216 Z"/><path id="Shape-122" fill="#E6E6E4" d="M205.714064,52.6454934 C204.396465,52.6563714 203.791375,52.8752914 204.36927,53.1295649 C204.947164,53.3838384 206.495921,53.5905206 207.81216,53.5850816 L235.771368,53.4926185 C237.087607,53.4926185 238.636364,53.2315462 239.212898,52.9201632 C239.789433,52.6087801 239.178904,52.3653846 237.862665,52.3762626 L205.714064,52.6454934 Z"/><path id="Shape-123" fill="#E6E6E4" d="M249.378399,52.6454934 C248.0608,52.6563714 247.535936,52.8725719 248.210373,53.1282051 C248.88481,53.3838384 250.52195,53.5878011 251.832751,53.5823621 L285.354701,53.473582 C286.6723,53.473582 288.301282,53.21115 288.972999,52.8997669 C289.644716,52.5883838 289.118493,52.3422688 287.802253,52.3558664 L249.378399,52.6454934 Z"/><path id="Shape-124" fill="#E6E6E4" d="M299.165695,52.6332556 C297.849456,52.6522922 297.00777,52.8752914 297.297397,53.1309246 C297.587024,53.3865579 298.900544,53.5932401 300.216783,53.5891608 L311.808664,53.5510878 C313.126263,53.5510878 314.437063,53.2900155 314.72533,52.981352 C315.013598,52.6726884 314.170552,52.4374514 312.854312,52.4496892 L299.165695,52.6332556 Z"/><path id="Shape-125" fill="#E6E6E4" d="M330.051088,52.6101399 C328.734848,52.6400544 327.777584,52.8752914 327.923077,53.1309246 C328.06857,53.3865579 329.262432,53.5932401 330.580031,53.5891608 L333.979409,53.5782828 C335.295649,53.5782828 336.49087,53.3172106 336.633644,53.0099068 C336.776418,52.702603 335.817793,52.4660062 334.501554,52.5027195 L330.051088,52.6101399 Z"/><path id="Shape-126" fill="#E6E6E4" d="M341.519231,52.5897436 C340.201632,52.6278166 339.215812,52.8698524 339.325952,53.1268454 C339.436092,53.3838384 340.602758,53.5891608 341.920357,53.5837218 L343.334499,53.5837218 C344.652098,53.5837218 345.818765,53.3226496 345.926185,53.0153458 C346.033605,52.708042 345.046426,52.4877622 343.730186,52.5258353 L341.519231,52.5897436 Z"/><path id="Shape-127" fill="#D7D2CD" d="M34.0304973,41.6083916 C32.714258,41.6274281 31.7937063,41.8545066 31.9840715,42.1114996 C32.1744367,42.3684926 33.4077312,42.5778943 34.7253302,42.5778943 L40.7925408,42.5778943 C42.1087801,42.5778943 43.3420746,42.3249806 43.5324398,42.0176768 C43.722805,41.710373 42.8036131,41.4737762 41.4928127,41.4928127 L34.0304973,41.6083916 Z"/><path id="Shape-128" fill="#D7D2CD" d="M120.69289,31.3599456 C119.376651,31.3993784 118.381313,31.6414141 118.479215,31.9038462 C118.577117,32.1662782 119.735625,32.3702409 121.051865,32.3702409 L121.867716,32.3702409 C123.185315,32.3702409 124.342463,32.1173271 124.440365,31.8100233 C124.538267,31.5027195 123.542929,31.2797203 122.22805,31.3191531 L120.69289,31.3599456 Z"/><path id="Shape-129" fill="#D7D2CD" d="M125.804196,41.01554 C124.487956,41.0549728 123.492618,41.2970085 123.59188,41.5526418 C123.691142,41.8082751 124.846931,42.0203963 126.16317,42.0203963 L126.979021,42.0203963 C128.29526,42.0203963 129.452409,41.7674825 129.551671,41.458819 C129.650932,41.1501554 128.654235,40.9298757 127.337995,40.9693085 L125.804196,41.01554 Z"/><path id="Shape-130" fill="#D7D2CD" d="M174.384033,31.4102564 C173.066434,31.4238539 172.20843,31.6454934 172.488539,31.9024864 C172.768648,32.1594794 174.063131,32.3688811 175.379371,32.3688811 L186.183955,32.3688811 C187.500194,32.3688811 188.802836,32.1159674 189.080225,31.8086636 C189.357615,31.5013598 188.502331,31.2579643 187.186092,31.2729215 L174.384033,31.4102564 Z"/><path id="Shape-131" fill="#D7D2CD" d="M174.382673,11.3607226 C173.066434,11.3919969 172.092852,11.6326729 172.217949,11.8842269 C172.343046,12.1357809 173.52331,12.3506216 174.839549,12.3506216 L177.1892,12.3506216 C178.506799,12.3506216 179.687063,12.0977078 179.81352,11.790404 C179.939977,11.4831002 178.965035,11.254662 177.650155,11.2859363 L174.382673,11.3607226 Z"/><path id="Shape-132" fill="#D7D2CD" d="M184.338772,11.3824786 C183.022533,11.4015152 182.112859,11.6285936 182.316822,11.8842269 C182.520785,12.1398601 183.766317,12.3506216 185.082556,12.3506216 L191.926185,12.3506216 C193.242424,12.3506216 194.489316,12.0977078 194.693279,11.790404 C194.897242,11.4831002 193.990287,11.2465035 192.675408,11.2641803 L184.338772,11.3824786 Z"/><path id="Shape-133" fill="#D7D2CD" d="M220.383061,10.8304196 C219.065462,10.8440171 218.207459,11.0670163 218.463092,11.3240093 C218.718726,11.5810023 220.015929,11.790404 221.332168,11.790404 L231.379371,11.790404 C232.69697,11.790404 233.987374,11.5374903 234.248446,11.2301865 C234.509518,10.9228827 233.646076,10.6862859 232.331197,10.6958042 L220.383061,10.8304196 Z"/><path id="Shape-134" fill="#D7D2CD" d="M260.407343,10.778749 C259.089744,10.8209013 258.087607,11.0670163 258.175991,11.3226496 C258.264375,11.5782828 259.414724,11.7890443 260.732323,11.7890443 L260.994755,11.7890443 C262.310995,11.7890443 263.461344,11.5361305 263.549728,11.2288267 C263.638112,10.9215229 262.635975,10.7039627 261.318376,10.746115 L260.407343,10.778749 Z"/><path id="Shape-135" fill="#D7D2CD" d="M311.679487,31.3531469 C310.363248,31.3952991 309.359751,31.6414141 309.449495,31.8970474 C309.539239,32.1526807 310.688228,32.3634421 312.004468,32.3634421 L312.2669,32.3634421 C313.583139,32.3634421 314.734848,32.1105284 314.821873,31.8032246 C314.908897,31.4959207 313.90812,31.2783605 312.59188,31.3205128 L311.679487,31.3531469 Z"/><path id="Shape-136" fill="#D7D2CD" d="M320.475719,40.9489122 C319.159479,40.9910645 318.155983,41.2371795 318.245726,41.4928127 C318.33547,41.748446 319.48446,41.9592075 320.800699,41.9592075 L321.063131,41.9592075 C322.379371,41.9592075 323.53108,41.7062937 323.618104,41.3989899 C323.705128,41.0916861 322.704351,40.8741259 321.388112,40.9162782 L320.475719,40.9489122 Z"/><path id="Shape-137" fill="#D7D2CD" d="M30.6637529,31.3585859 C29.3475136,31.3980186 28.3521756,31.6414141 28.4473582,31.9024864 C28.5425408,32.1635587 29.701049,32.3688811 31.0172883,32.3688811 L31.762432,32.3688811 C33.0786713,32.3688811 34.2358197,32.1159674 34.3323621,31.8086636 C34.4289044,31.5013598 33.4335664,31.2797203 32.1173271,31.3191531 L30.6637529,31.3585859 Z"/><path id="Shape-138" fill="#D7D2CD" d="M48.2970085,31.3585859 C46.9807692,31.3980186 45.9854312,31.6414141 46.0806138,31.9024864 C46.1757964,32.1635587 47.3343046,32.3688811 48.6505439,32.3688811 L49.3956876,32.3688811 C50.7132867,32.3688811 51.8690754,32.1159674 51.9656177,31.8086636 C52.0621601,31.5013598 51.0668221,31.2797203 49.7505828,31.3191531 L48.2970085,31.3585859 Z"/><path id="Shape-139" fill="#000" d="M105.38073,48.715812 L104.791958,51.2735043 C104.481036,52.8235744 104.393124,54.4101104 104.530886,55.9850427 L104.543124,56.0965423 C104.694056,57.4059829 105.097902,57.493007 105.440559,56.2977855 C105.783217,55.1025641 106.061966,54.1221834 106.061966,54.1221834"/><path id="Shape-140" fill="#000" d="M96.2187257,23.3605284 L94.2062937,23.8282828 C93.0994561,24.0839161 93.0668221,24.4741647 94.1342269,24.6944444 L96.0745921,25.0942113"/><path id="Shape-141" fill="#000" d="M50.2645688,37.2218337 L52.6686092,37.2218337 C53.9862082,37.2218337 54.0283605,37.5019425 52.751554,37.8418803 L49.5996503,38.6890054"/><path id="Shape-142" fill="#000" d="M14.3467366,50.1489899 L13.496892,51.6161616 C13.0304973,52.4224942 13.1950272,53.7713675 13.8640249,54.6076146 C14.5330225,55.4438617 15.0796426,55.480575 15.0796426,54.6742424 L15.0796426,53.2152292"/><path id="Shape-143" fill="#000" d="M37.4706682,6.83411033 L35.8716006,6.83411033 C34.9918415,6.83411033 34.9918415,7.19444444 35.8716006,7.63364413 L37.4706682,8.43045843"/><path id="Shape-144" fill="#000" d="M74.8883061,15.0932401 L72.712704,15.8261461 C71.5120435,16.2340715 71.6017871,16.6732712 72.9112277,16.8160451 L75.4621212,17.0879953"/><path id="Shape-145" fill="#000" d="M149.424437,29.225136 L147.020396,29.225136 C145.704157,29.225136 145.63345,29.6058664 146.866744,30.0722611 L149.966977,31.243007"/><path id="Shape-146" fill="#000" d="M163.418998,53.5945998 L163.818765,52.2226107 C164.039044,51.4679487 164.60742,51.3836441 165.081974,52.0336053 C165.556527,52.6835664 165.851593,54.2527195 165.736014,55.5213675 C165.620435,56.7900155 165.525253,57.8261461 165.525253,57.8261461"/><path id="Shape-147" fill="#000" d="M220.951437,18.030303 L218.196581,19.3370241 C217.005439,19.9013209 217.096542,20.534965 218.396465,20.7443667 L221.387918,21.2284382"/><path id="Shape-148" fill="#000" d="M200.602758,45.2185315 L204.042929,45.2185315 C205.359169,45.2185315 205.560412,45.8453768 204.487568,46.6081974 L201.536908,48.7144522"/><path id="Shape-149" fill="#000" d="M179.412393,14.1645299 L180.108586,11.7985625 C180.479798,10.5353535 181.045455,10.3028361 181.364996,11.2995338 L181.94561,13.0998446"/><path id="Shape-150" fill="#000" d="M293.634227,46.2859363 L295.47669,45.7529138 C296.488345,45.4592075 296.89763,46.0058275 296.386364,46.9671717 C295.875097,47.9285159 295.452214,48.7144522 295.452214,48.7144522"/><path id="Shape-151" fill="#000" d="M245.38481,46.9671717 L246.983877,47.6932789 C247.863636,48.0916861 247.863636,48.9320124 246.983877,49.5588578 L245.38481,50.701049"/><path id="Shape-152" fill="#000" d="M262.975913,18.030303 L265.379953,18.030303 C266.696193,18.030303 266.806333,18.5021368 265.620629,19.0759518 L262.975913,20.3636364"/><path id="Shape-153" fill="#000" d="M312.135004,14.4310412 L309.468531,15.5188423 C308.244755,16.0192308 308.32906,16.4271562 309.645299,16.4271562 L312.557887,16.4271562"/><path id="Shape-154" fill="#000" d="M336.749223,50.701049 C336.749223,50.701049 336.783217,51.2191142 336.825369,51.8541181 C336.867521,52.489122 336.344017,53.6829837 335.660062,54.5097125 C334.976107,55.3364413 335.369075,55.5118493 336.533023,54.8945221 L339.081197,53.5483683"/><path id="Shape-155" fill="#525054" d="M13.1501554,54.3479021 C12.485237,53.6884227 12.1072261,53.8311966 12.3098291,54.6647242 C12.512432,55.4982517 13.6043124,56.5792541 14.7315462,57.0660451 C15.8587801,57.5528361 16.2381507,57.4087024 15.5718726,56.7505828 L13.1501554,54.3479021 Z"/><path id="Shape-156" fill="#525054" d="M103.043318,54.8142968 L103.043318,55.6138306 C103.043318,56.0530303 103.520591,56.8770396 104.103924,57.4440559 C104.687257,58.0110723 105.008159,57.9498834 104.816434,57.3080808 L104.468337,56.1441336"/><path id="Shape-157" fill="#525054" d="M164.393939,57.6330614 C163.923465,57.2564103 164.026807,57.9050117 164.621018,59.0839161 C164.621018,59.0839161 165.028943,59.8820901 165.291375,59.6794872 C165.437546,59.5738772 165.56566,59.4453045 165.670746,59.2987568 C166.377817,58.1878399 166.572261,57.5134033 166.103147,57.8030303 C165.634033,58.0926573 164.860334,58.0083528 164.393939,57.6330614 Z"/><polygon id="Shape-158" fill="#212328" points="245.919 48.714 243.839 51.749 245.385 47.351"/><polygon id="Shape-159" fill="#212328" points="202.005 45.686 200.966 49.549 202.536 46.967"/><polygon id="Shape-160" fill="#212328" points="181.124 13.097 180.678 16.563 182.48 13.83"/><polygon id="Shape-161" fill="#212328" points="264.344 18.495 263.712 22.694 264.703 20.595"/><polygon id="Shape-162" fill="#212328" points="293.922 46.202 292.425 51.019 294.699 47.95"/><path id="Shape-163" fill="#525054" d="M337.75272,55.2426185 C338.227273,54.8183761 337.669775,54.9244367 336.516706,55.4764957 C335.363636,56.0285548 334.973388,56.3766511 335.653263,56.2488345 C336.333139,56.1210179 337.278166,55.6682207 337.75272,55.2426185 Z"/><polygon id="Shape-164" fill="#000" points="349.111 158.329 349.111 63.608 .086 63.608 .086 158.329"/><polygon id="Shape-165" fill="url(#linearGradient-22)" points="284.138 66.943 310.552 66.943 310.552 102.162 319.357 102.162 319.357 66.943 345.775 66.943 345.775 154.995 319.357 154.995 319.357 119.771 310.552 119.771 310.552 154.995 284.138 154.995"/><polygon id="Shape-166" fill="url(#linearGradient-22)" points="3.421 66.943 65.059 66.943 65.059 84.553 29.84 84.553 29.84 102.162 56.253 102.162 56.253 119.771 29.84 119.771 29.84 137.385 65.059 137.385 65.059 154.995 3.421 154.995"/><polygon id="Shape-167" fill="url(#linearGradient-22)" points="213.958 66.943 275.596 66.943 275.596 84.553 257.982 84.553 257.982 154.995 231.568 154.995 231.568 84.553 213.958 84.553"/><path id="Shape-168" fill="url(#linearGradient-23)" d="M73.5992618,66.9432789 L73.5992618,154.995338 L100.013792,154.995338 L100.013792,119.770979 L108.823621,119.770979 L108.823621,154.995338 L135.238151,154.995338 L135.238151,66.9432789 L73.5992618,66.9432789 Z M108.823621,102.160839 L100.013792,102.160839 L100.013792,84.5534188 L108.823621,84.5534188 L108.823621,102.160839 Z"/><path id="Shape-169" fill="url(#linearGradient-24)" d="M196.681235,102.163559 L205.416278,102.163559 L205.416278,66.9459984 L143.778749,66.9459984 L143.778749,154.998057 L170.193279,154.998057 L170.193279,119.770979 L178.997669,119.770979 L178.997669,154.995338 L205.416278,154.995338 L205.416278,110.885004 L196.681235,110.885004 L196.681235,102.163559 Z M179.004468,102.163559 L170.200078,102.163559 L170.200078,84.5534188 L179.004468,84.5534188 L179.004468,102.163559 Z"/><polygon id="Shape-170" fill="#ACD88F" points="272.398 70.095 217.11 70.095 213.958 66.943 275.596 66.943"/><polygon id="Shape-171" fill="#188040" points="319.357 102.162 319.357 66.943 322.507 70.095 322.507 105.315"/><polygon id="Shape-172" fill="#ACD88F" points="342.625 70.095 322.507 70.095 319.357 66.943 345.775 66.943"/><polygon id="Shape-173" fill="#ACD88F" points="322.507 105.315 307.4 105.315 310.552 102.162 319.357 102.162"/><polygon id="Shape-174" fill="#054B29" points="319.357 119.771 310.552 119.771 307.4 116.623 322.507 116.623"/><polygon id="Shape-175" fill="#46AD4D" points="254.834 151.841 254.834 81.4 257.982 84.553 257.984 154.995"/><polygon id="Shape-176" fill="#054B29" points="345.775 154.995 319.357 154.995 322.507 151.843 342.625 151.841"/><polygon id="Shape-177" fill="#054B29" points="275.596 84.553 257.982 84.553 254.834 81.402 272.398 81.4"/><polygon id="Shape-178" fill="#054B29" points="231.568 84.553 213.958 84.553 217.11 81.402 234.616 81.4"/><polygon id="Shape-179" fill="#054B29" points="310.552 154.995 284.138 154.995 287.29 151.843 307.4 151.841"/><polygon id="Shape-180" fill="#054B29" points="257.984 154.995 231.568 154.995 234.616 151.843 254.834 151.841"/><polygon id="Shape-181" fill="#188040" points="319.357 154.995 319.357 119.771 322.507 116.623 322.507 151.843"/><polygon id="Shape-182" fill="#46AD4D" points="307.4 151.841 307.4 116.623 310.552 119.771 310.552 154.995"/><polygon id="Shape-183" fill="#46AD4D" points="272.398 81.4 272.398 70.095 275.55 66.943 275.55 84.553"/><polygon id="Shape-184" fill="#188040" points="213.958 84.553 213.958 66.943 217.11 70.095 217.11 81.402"/><polygon id="Shape-185" fill="#188040" points="231.568 154.995 231.568 84.553 234.616 81.4 234.616 151.843"/><polygon id="Shape-186" fill="#ACD88F" points="307.4 70.095 287.29 70.095 284.138 66.943 310.552 66.943"/><polygon id="Shape-187" fill="#188040" points="284.138 154.995 284.138 66.943 287.29 70.095 287.29 151.843"/><polygon id="Shape-188" fill="#46AD4D" points="307.4 105.315 307.4 70.095 310.552 66.943 310.552 102.162"/><polygon id="Shape-189" fill="#188040" points="182.15 151.842 178.998 154.995 178.998 119.771 182.15 116.62"/><polygon id="Shape-190" fill="#46AD4D" points="170.193 154.995 167.041 151.842 167.041 116.62 170.193 119.771"/><polygon id="Shape-191" fill="#188040" points="182.15 105.313 178.998 102.162 178.998 84.553 182.15 81.402"/><polygon id="Shape-192" fill="#46AD4D" points="170.193 102.162 167.041 105.313 167.041 81.402 170.193 84.553"/><polygon id="Shape-193" fill="#46AD4D" points="135.238 154.995 132.086 151.842 132.086 70.095 135.238 66.943"/><polygon id="Shape-194" fill="#188040" points="111.97 151.842 108.818 154.995 108.824 119.771 111.97 116.62"/><polygon id="Shape-195" fill="#46AD4D" points="100.014 154.995 96.863 151.842 96.863 116.62 100.014 119.771"/><polygon id="Shape-196" fill="#188040" points="76.751 151.842 73.599 154.994 73.599 66.943 76.751 70.095"/><polygon id="Shape-197" fill="#188040" points="6.572 151.842 3.421 154.994 3.421 66.943 6.572 70.095"/><polygon id="Shape-198" fill="#188040" points="111.976 105.313 108.824 102.162 108.824 84.553 111.976 81.402"/><polygon id="Shape-199" fill="#46AD4D" points="65.059 154.995 61.907 151.842 61.907 140.537 65.059 137.385"/><polygon id="Shape-200" fill="#46AD4D" points="56.253 119.774 53.102 116.62 53.102 105.315 56.253 102.164"/><polygon id="Shape-201" fill="#46AD4D" points="29.84 137.385 26.688 140.537 26.688 116.62 29.84 119.771"/><polygon id="Shape-202" fill="#46AD4D" points="29.84 102.162 26.688 105.315 26.688 81.402 29.84 84.553"/><polygon id="Shape-203" fill="#46AD4D" points="100.014 102.162 96.863 105.313 96.863 81.402 100.014 84.553"/><polygon id="Shape-204" fill="#ACD88F" points="146.931 70.095 202.266 70.095 205.416 66.943 143.779 66.943"/><polygon id="Shape-205" fill="#054B29" points="196.681 102.164 205.416 102.164 202.266 99.013 193.531 99.013"/><polygon id="Shape-206" fill="#46AD4D" points="205.416 102.164 202.266 99.013 202.266 70.095 205.416 66.943"/><polygon id="Shape-207" fill="#46AD4D" points="196.681 110.885 193.531 114.037 193.531 99.013 196.681 102.164"/><polygon id="Shape-208" fill="#A1D084" points="193.531 114.037 202.266 114.037 205.416 110.886 196.681 110.886"/><polygon id="Shape-209" fill="#46AD4D" points="205.416 154.995 202.266 151.842 202.266 114.037 205.416 110.886"/><polygon id="Shape-210" fill="#054B29" points="178.998 154.994 205.416 154.994 202.266 151.842 182.15 151.842"/><polygon id="Shape-211" fill="#054B29" points="170.193 119.771 178.998 119.771 182.15 116.62 167.041 116.62"/><polygon id="Shape-212" fill="#054B29" points="143.779 154.994 170.197 154.994 167.041 151.842 146.931 151.842"/><polygon id="Shape-213" fill="#188040" points="146.931 151.842 143.779 154.994 143.779 66.943 146.931 70.095"/><polygon id="Shape-214" fill="#054B29" points="170.193 84.552 178.998 84.552 182.15 81.402 167.041 81.402"/><polygon id="Shape-215" fill="#ACD88F" points="167.041 105.313 182.15 105.313 178.998 102.162 170.193 102.162"/><polygon id="Shape-216" fill="#ACD88F" points="76.751 70.095 132.086 70.095 135.238 66.943 73.599 66.943"/><polygon id="Shape-217" fill="#054B29" points="108.818 154.994 135.238 154.994 132.086 151.842 111.97 151.842"/><polygon id="Shape-218" fill="#054B29" points="100.014 119.771 108.824 119.771 111.97 116.62 96.863 116.62"/><polygon id="Shape-219" fill="#054B29" points="100.014 84.552 108.824 84.552 111.976 81.402 96.863 81.402"/><polygon id="Shape-220" fill="#ACD88F" points="96.863 105.313 111.976 105.313 108.824 102.162 100.014 102.162"/><polygon id="Shape-221" fill="#054B29" points="73.599 154.994 100.019 154.994 96.863 151.842 76.751 151.842"/><polygon id="Shape-222" fill="#ACD88F" points="26.688 140.537 61.907 140.537 65.059 137.385 29.84 137.385"/><polygon id="Shape-223" fill="#054B29" points="29.84 119.771 56.253 119.771 53.102 116.62 26.688 116.62"/><polygon id="Shape-224" fill="#ACD88F" points="26.688 105.315 53.102 105.315 56.253 102.164 29.84 102.164"/><polygon id="Shape-225" fill="#ACD88F" points="6.572 70.095 61.907 70.095 65.059 66.943 3.421 66.943"/><polygon id="Shape-226" fill="#054B29" points="3.421 154.994 65.059 154.994 61.907 151.842 6.572 151.842"/><polygon id="Shape-227" fill="#054B29" points="29.84 84.553 65.059 84.553 61.907 81.402 26.688 81.402"/><polygon id="Shape-228" fill="#46AD4D" points="65.059 84.553 61.907 81.402 61.907 70.095 65.059 66.943"/></g></g></g></svg>