<svg xmlns="http://www.w3.org/2000/svg" xmlns:xlink="http://www.w3.org/1999/xlink" version="1.2"><font id="Minecraft Five Regular"><font-face x-height="700" ascent="1120" cap-height="700" descent="-280" font-family="Minecraft" font-stretch="normal" font-style="normal" font-weight="400" underline-position="-75" underline-thickness="50" units-per-em="1000"/><glyph glyph-name="NULL"/><glyph glyph-name="CR" horiz-adv-x="280"/><glyph glyph-name="space" horiz-adv-x="280"/><glyph d="M50 280 L190 280 L190 700 L50 700 L50 280 Z M50 0 L190 0 L190 140 L50 140 L50 0 Z" glyph-name="exclam" horiz-adv-x="240" unicode="!"/><glyph d="M50 420 L190 420 L190 700 L50 700 L50 420 Z M330 420 L470 420 L470 700 L330 700 L330 420 Z" glyph-name="quotedbl" horiz-adv-x="520" unicode="&quot;"/><glyph d="M750 420 L750 560 L610 560 L610 700 L470 700 L470 560 L330 560 L330 700 L190 700 L190 560 L50 560 L50 420 L190 420 L190 280 L50 280 L50 140 L190 140 L190 0 L330 0 L330 140 L470 140 L470 0 L610 0 L610 140 L750 140 L750 280 L610 280 L610 420 L750 420 Z M470 280 L330 280 L330 420 L470 420 L470 280 Z" glyph-name="numbersign" horiz-adv-x="800" unicode="#"/><glyph d="M190 560 L750 560 L750 700 L470 700 L470 840 L330 840 L330 700 L190 700 L190 560 Z M190 280 L610 280 L610 140 L750 140 L750 280 L610 280 L610 420 L190 420 L190 560 L50 560 L50 420 L190 420 L190 280 Z M50 0 L330 0 L330 -140 L470 -140 L470 0 L610 0 L610 140 L50 140 L50 0 Z" glyph-name="dollar" horiz-adv-x="800" unicode="$"/><glyph d="M610 560 L750 560 L750 700 L610 700 L610 560 Z M470 420 L610 420 L610 560 L470 560 L470 420 Z M330 280 L470 280 L470 420 L330 420 L330 280 Z M190 140 L330 140 L330 280 L190 280 L190 140 Z M50 0 L190 0 L190 140 L50 140 L50 0 Z M50 560 L190 560 L190 700 L50 700 L50 560 Z M610 0 L750 0 L750 140 L610 140 L610 0 Z" glyph-name="percent" horiz-adv-x="800" unicode="%"/><glyph d="M50 420 L190 420 L190 560 L50 560 L50 420 Z M470 420 L610 420 L610 560 L470 560 L470 420 Z M190 420 L190 280 L470 280 L470 140 L610 140 L610 280 L470 280 L470 280 L470 420 L190 420 Z M610 280 L750 280 L750 420 L610 420 L610 280 Z M50 140 L190 140 L190 280 L50 280 L50 140 Z M190 0 L470 0 L470 140 L190 140 L190 0 Z M610 0 L750 0 L750 140 L610 140 L610 0 Z M190 560 L470 560 L470 700 L190 700 L190 560 Z" glyph-name="ampersand" horiz-adv-x="800" unicode="&amp;"/><glyph d="M50 420 L190 420 L190 700 L50 700 L50 420 Z" glyph-name="quotesingle" horiz-adv-x="240" unicode="'"/><glyph d="M190 560 L330 560 L330 700 L190 700 L190 560 Z M50 140 L190 140 L190 560 L50 560 L50 140 Z M190 0 L330 0 L330 140 L190 140 L190 0 Z" glyph-name="parenleft" horiz-adv-x="380" unicode="("/><glyph d="M190 700 L50 700 L50 560 L190 560 L190 700 Z M330 560 L190 560 L190 140 L330 140 L330 560 Z M190 140 L50 140 L50 0 L190 0 L190 140 Z" glyph-name="parenright" horiz-adv-x="380" unicode=")"/><glyph d="M50 560 L190 560 L190 700 L50 700 L50 560 Z M330 560 L470 560 L470 700 L330 700 L330 560 Z M50 280 L190 280 L190 420 L50 420 L50 280 Z M330 280 L470 280 L470 420 L330 420 L330 280 Z M190 420 L330 420 L330 560 L190 560 L190 420 Z" glyph-name="asterisk" horiz-adv-x="520" unicode="*"/><glyph d="M190 420 L50 420 L50 280 L190 280 L190 140 L330 140 L330 280 L470 280 L470 420 L330 420 L330 560 L190 560 L190 420 Z" glyph-name="plus" horiz-adv-x="520" unicode="+"/><glyph d="M50 -140 L190 -140 L190 140 L50 140 L50 -140 Z" glyph-name="comma" horiz-adv-x="240" unicode=","/><glyph d="M50 280 L330 280 L330 420 L50 420 L50 280 Z" glyph-name="hyphen" horiz-adv-x="380" unicode="-"/><glyph d="M50 0 L190 0 L190 140 L50 140 L50 0 Z" glyph-name="period" horiz-adv-x="240" unicode="."/><glyph d="M610 560 L750 560 L750 700 L610 700 L610 560 Z M470 420 L610 420 L610 560 L470 560 L470 420 Z M330 280 L470 280 L470 420 L330 420 L330 280 Z M190 140 L330 140 L330 280 L190 280 L190 140 Z M50 0 L190 0 L190 140 L50 140 L50 0 Z" glyph-name="slash" horiz-adv-x="800" unicode="/"/><glyph d="M610 560 L610 140 L750 140 L750 560 L610 560 L610 700 L190 700 L190 560 L610 560 Z M190 140 L190 0 L610 0 L610 140 L190 140 L190 560 L50 560 L50 140 L190 140 Z M330 280 L470 280 L470 420 L330 420 L330 280 Z" glyph-name="zero" horiz-adv-x="800" unicode="0"/><glyph d="M190 140 L50 140 L50 0 L470 0 L470 140 L330 140 L330 700 L190 700 L190 560 L50 560 L50 420 L190 420 L190 140 Z" glyph-name="one" horiz-adv-x="520" unicode="1"/><glyph d="M50 560 L610 560 L610 700 L50 700 L50 560 Z M610 420 L750 420 L750 560 L610 560 L610 420 Z M190 280 L610 280 L610 420 L190 420 L190 280 Z M50 0 L750 0 L750 140 L190 140 L190 280 L50 280 L50 0 Z" glyph-name="two" horiz-adv-x="800" unicode="2"/><glyph d="M50 560 L610 560 L610 700 L50 700 L50 560 Z M610 420 L750 420 L750 560 L610 560 L610 420 Z M190 280 L610 280 L610 420 L190 420 L190 280 Z M610 140 L750 140 L750 280 L610 280 L610 140 Z M50 0 L610 0 L610 140 L50 140 L50 0 Z" glyph-name="three" horiz-adv-x="800" unicode="3"/><glyph d="M610 700 L330 700 L330 560 L470 560 L470 280 L190 280 L190 420 L50 420 L50 140 L470 140 L470 0 L610 0 L610 140 L750 140 L750 280 L610 280 L610 700 Z M190 420 L330 420 L330 560 L190 560 L190 420 Z" glyph-name="four" horiz-adv-x="800" unicode="4"/><glyph d="M50 280 L610 280 L610 420 L190 420 L190 560 L610 560 L610 700 L50 700 L50 280 Z M610 140 L750 140 L750 280 L610 280 L610 140 Z M50 0 L610 0 L610 140 L50 140 L50 0 Z" glyph-name="five" horiz-adv-x="800" unicode="5"/><glyph d="M190 560 L610 560 L610 700 L190 700 L190 560 Z M50 140 L190 140 L190 280 L610 280 L610 420 L190 420 L190 560 L50 560 L50 140 Z M610 140 L750 140 L750 280 L610 280 L610 140 Z M190 0 L610 0 L610 140 L190 140 L190 0 Z" glyph-name="six" horiz-adv-x="800" unicode="6"/><glyph d="M50 560 L610 560 L610 420 L750 420 L750 700 L50 700 L50 560 Z M330 0 L470 0 L470 280 L330 280 L330 0 Z M470 280 L610 280 L610 420 L470 420 L470 280 Z" glyph-name="seven" horiz-adv-x="800" unicode="7"/><glyph d="M190 560 L610 560 L610 700 L190 700 L190 560 Z M50 420 L190 420 L190 560 L50 560 L50 420 Z M610 420 L750 420 L750 560 L610 560 L610 420 Z M190 280 L610 280 L610 420 L190 420 L190 280 Z M50 140 L190 140 L190 280 L50 280 L50 140 Z M610 140 L750 140 L750 280 L610 280 L610 140 Z M190 0 L610 0 L610 140 L190 140 L190 0 Z" glyph-name="eight" horiz-adv-x="800" unicode="8"/><glyph d="M610 140 L190 140 L190 0 L610 0 L610 140 Z M750 560 L610 560 L610 420 L190 420 L190 280 L610 280 L610 140 L750 140 L750 560 Z M190 560 L50 560 L50 420 L190 420 L190 560 Z M610 700 L190 700 L190 560 L610 560 L610 700 Z" glyph-name="nine" horiz-adv-x="800" unicode="9"/><glyph d="M50 420 L190 420 L190 560 L50 560 L50 420 Z M50 0 L190 0 L190 140 L50 140 L50 0 Z" glyph-name="colon" horiz-adv-x="240" unicode=":"/><glyph d="M50 420 L190 420 L190 560 L50 560 L50 420 Z M50 -140 L190 -140 L190 140 L50 140 L50 -140 Z" glyph-name="semicolon" horiz-adv-x="240" unicode=";"/><glyph d="M190 280 L190 420 L50 420 L50 280 L190 280 L190 140 L330 140 L330 0 L470 0 L470 140 L330 140 L330 280 L190 280 Z M330 560 L190 560 L190 420 L330 420 L330 560 Z M330 560 L470 560 L470 700 L330 700 L330 560 Z" glyph-name="less" horiz-adv-x="520" unicode="&lt;"/><glyph d="M50 140 L470 140 L470 280 L50 280 L50 140 Z M50 420 L470 420 L470 560 L50 560 L50 420 Z" glyph-name="equal" horiz-adv-x="520" unicode="="/><glyph d="M190 700 L50 700 L50 560 L190 560 L190 700 Z M190 420 L330 420 L330 560 L190 560 L190 420 Z M190 280 L190 140 L50 140 L50 0 L190 0 L190 140 L330 140 L330 280 L470 280 L470 420 L330 420 L330 280 L190 280 Z" glyph-name="greater" horiz-adv-x="520" unicode="&gt;"/><glyph d="M190 560 L610 560 L610 700 L190 700 L190 560 Z M50 420 L190 420 L190 560 L50 560 L50 420 Z M610 420 L750 420 L750 560 L610 560 L610 420 Z M330 280 L610 280 L610 420 L330 420 L330 280 Z M330 0 L470 0 L470 140 L330 140 L330 0 Z" glyph-name="question" horiz-adv-x="800" unicode="?"/><glyph d="M690 280 L470 280 L470 360 L550 360 L550 500 L330 500 L330 140 L830 140 L830 610 L690 610 L690 750 L190 750 L190 610 L690 610 L690 280 Z M190 -140 L610 -140 L610 0 L190 0 L190 610 L50 610 L50 0 L190 0 L190 -140 Z" glyph-name="at" horiz-adv-x="880" unicode="@"/><glyph d="M190 560 L610 560 L610 700 L190 700 L190 560 Z M50 0 L190 0 L190 140 L610 140 L610 0 L750 0 L750 560 L610 560 L610 280 L190 280 L190 560 L50 560 L50 0 Z" glyph-name="A" horiz-adv-x="800" unicode="A"/><glyph d="M50 0 L610 0 L610 140 L190 140 L190 280 L610 280 L610 420 L190 420 L190 560 L610 560 L610 700 L50 700 L50 0 Z M610 420 L750 420 L750 560 L610 560 L610 420 Z M610 140 L750 140 L750 280 L610 280 L610 140 Z" glyph-name="B" horiz-adv-x="800" unicode="B"/><glyph d="M190 560 L610 560 L610 700 L190 700 L190 560 Z M50 140 L190 140 L190 560 L50 560 L50 140 Z M610 420 L750 420 L750 560 L610 560 L610 420 Z M610 140 L750 140 L750 280 L610 280 L610 140 Z M190 0 L610 0 L610 140 L190 140 L190 0 Z" glyph-name="C" horiz-adv-x="800" unicode="C"/><glyph d="M50 0 L610 0 L610 140 L190 140 L190 560 L610 560 L610 700 L50 700 L50 0 Z M610 140 L750 140 L750 560 L610 560 L610 140 Z" glyph-name="D" horiz-adv-x="800" unicode="D"/><glyph d="M50 0 L750 0 L750 140 L190 140 L190 280 L470 280 L470 420 L190 420 L190 560 L750 560 L750 700 L50 700 L50 0 Z" glyph-name="E" horiz-adv-x="800" unicode="E"/><glyph d="M50 0 L190 0 L190 280 L470 280 L470 420 L190 420 L190 560 L750 560 L750 700 L50 700 L50 0 Z" glyph-name="F" horiz-adv-x="800" unicode="F"/><glyph d="M190 0 L750 0 L750 420 L470 420 L470 280 L610 280 L610 140 L190 140 L190 560 L50 560 L50 140 L190 140 L190 0 Z M190 560 L750 560 L750 700 L190 700 L190 560 Z" glyph-name="G" horiz-adv-x="800" unicode="G"/><glyph d="M50 0 L190 0 L190 280 L610 280 L610 0 L750 0 L750 700 L610 700 L610 420 L190 420 L190 700 L50 700 L50 0 Z" glyph-name="H" horiz-adv-x="800" unicode="H"/><glyph d="M50 560 L190 560 L190 140 L50 140 L50 0 L470 0 L470 140 L330 140 L330 560 L470 560 L470 700 L50 700 L50 560 Z" glyph-name="I" horiz-adv-x="520" unicode="I"/><glyph d="M190 560 L610 560 L610 140 L750 140 L750 700 L190 700 L190 560 Z M190 0 L610 0 L610 140 L190 140 L190 280 L50 280 L50 140 L190 140 L190 0 Z" glyph-name="J" horiz-adv-x="800" unicode="J"/><glyph d="M610 560 L750 560 L750 700 L610 700 L610 560 Z M470 420 L610 420 L610 560 L470 560 L470 420 Z M470 140 L610 140 L610 280 L470 280 L470 140 Z M610 0 L750 0 L750 140 L610 140 L610 0 Z M190 420 L190 700 L50 700 L50 0 L190 0 L190 280 L470 280 L470 420 L190 420 Z" glyph-name="K" horiz-adv-x="800" unicode="K"/><glyph d="M50 0 L750 0 L750 140 L190 140 L190 700 L50 700 L50 0 Z" glyph-name="L" horiz-adv-x="800" unicode="L"/><glyph d="M50 0 L190 0 L190 420 L330 420 L330 560 L190 560 L190 700 L50 700 L50 0 Z M610 560 L470 560 L470 420 L610 420 L610 0 L750 0 L750 700 L610 700 L610 560 Z M330 280 L470 280 L470 420 L330 420 L330 280 Z" glyph-name="M" horiz-adv-x="800" unicode="M"/><glyph d="M50 0 L190 0 L190 420 L330 420 L330 560 L190 560 L190 700 L50 700 L50 0 Z M610 280 L470 280 L470 140 L610 140 L610 0 L750 0 L750 700 L610 700 L610 280 Z M330 280 L470 280 L470 420 L330 420 L330 280 Z" glyph-name="N" horiz-adv-x="800" unicode="N"/><glyph d="M190 560 L610 560 L610 700 L190 700 L190 560 Z M50 140 L190 140 L190 560 L50 560 L50 140 Z M610 140 L750 140 L750 560 L610 560 L610 140 Z M190 0 L610 0 L610 140 L190 140 L190 0 Z" glyph-name="O" horiz-adv-x="800" unicode="O"/><glyph d="M50 0 L190 0 L190 280 L610 280 L610 420 L190 420 L190 560 L610 560 L610 700 L50 700 L50 0 Z M610 420 L750 420 L750 560 L610 560 L610 420 Z" glyph-name="P" horiz-adv-x="800" unicode="P"/><glyph d="M190 560 L610 560 L610 700 L190 700 L190 560 Z M50 140 L190 140 L190 560 L50 560 L50 140 Z M610 280 L750 280 L750 560 L610 560 L610 280 Z M470 140 L610 140 L610 280 L470 280 L470 140 Z M190 0 L470 0 L470 140 L190 140 L190 0 Z M610 0 L750 0 L750 140 L610 140 L610 0 Z" glyph-name="Q" horiz-adv-x="800" unicode="Q"/><glyph d="M50 0 L190 0 L190 280 L610 280 L610 420 L190 420 L190 560 L610 560 L610 700 L50 700 L50 0 Z M610 420 L750 420 L750 560 L610 560 L610 420 Z M610 0 L750 0 L750 280 L610 280 L610 0 Z" glyph-name="R" horiz-adv-x="800" unicode="R"/><glyph d="M190 560 L750 560 L750 700 L190 700 L190 560 Z M50 420 L190 420 L190 560 L50 560 L50 420 Z M190 280 L610 280 L610 420 L190 420 L190 280 Z M610 140 L750 140 L750 280 L610 280 L610 140 Z M50 0 L610 0 L610 140 L50 140 L50 0 Z" glyph-name="S" horiz-adv-x="800" unicode="S"/><glyph d="M50 560 L330 560 L330 0 L470 0 L470 560 L750 560 L750 700 L50 700 L50 560 Z" glyph-name="T" horiz-adv-x="800" unicode="T"/><glyph d="M50 140 L190 140 L190 700 L50 700 L50 140 Z M610 140 L750 140 L750 700 L610 700 L610 140 Z M190 0 L610 0 L610 140 L190 140 L190 0 Z" glyph-name="U" horiz-adv-x="800" unicode="U"/><glyph d="M50 280 L190 280 L190 700 L50 700 L50 280 Z M610 280 L750 280 L750 700 L610 700 L610 280 Z M190 140 L330 140 L330 280 L190 280 L190 140 Z M470 140 L610 140 L610 280 L470 280 L470 140 Z M330 0 L470 0 L470 140 L330 140 L330 0 Z" glyph-name="V" horiz-adv-x="800" unicode="V"/><glyph d="M50 0 L190 0 L190 140 L330 140 L330 280 L190 280 L190 700 L50 700 L50 0 Z M610 280 L470 280 L470 140 L610 140 L610 0 L750 0 L750 700 L610 700 L610 280 Z M330 280 L470 280 L470 420 L330 420 L330 280 Z" glyph-name="W" horiz-adv-x="800" unicode="W"/><glyph d="M50 560 L190 560 L190 700 L50 700 L50 560 Z M610 560 L750 560 L750 700 L610 700 L610 560 Z M190 420 L330 420 L330 560 L190 560 L190 420 Z M470 420 L610 420 L610 560 L470 560 L470 420 Z M330 280 L470 280 L470 420 L330 420 L330 280 Z M190 140 L330 140 L330 280 L190 280 L190 140 Z M470 140 L610 140 L610 280 L470 280 L470 140 Z M50 0 L190 0 L190 140 L50 140 L50 0 Z M610 0 L750 0 L750 140 L610 140 L610 0 Z" glyph-name="X" horiz-adv-x="800" unicode="X"/><glyph d="M50 560 L190 560 L190 700 L50 700 L50 560 Z M610 560 L750 560 L750 700 L610 700 L610 560 Z M190 420 L330 420 L330 560 L190 560 L190 420 Z M470 420 L610 420 L610 560 L470 560 L470 420 Z M330 0 L470 0 L470 420 L330 420 L330 0 Z" glyph-name="Y" horiz-adv-x="800" unicode="Y"/><glyph d="M50 560 L470 560 L470 420 L610 420 L610 560 L750 560 L750 700 L50 700 L50 560 Z M330 280 L470 280 L470 420 L330 420 L330 280 Z M190 140 L330 140 L330 280 L190 280 L190 140 Z M50 0 L750 0 L750 140 L50 140 L50 0 Z" glyph-name="Z" horiz-adv-x="800" unicode="Z"/><glyph d="M190 560 L330 560 L330 700 L50 700 L50 0 L330 0 L330 140 L190 140 L190 560 Z" glyph-name="bracketleft" horiz-adv-x="380" unicode="["/><glyph d="M750 140 L610 140 L610 0 L750 0 L750 140 Z M610 280 L470 280 L470 140 L610 140 L610 280 Z M470 420 L330 420 L330 280 L470 280 L470 420 Z M330 560 L190 560 L190 420 L330 420 L330 560 Z M190 700 L50 700 L50 560 L190 560 L190 700 Z" glyph-name="backslash" horiz-adv-x="800" unicode="\"/><glyph d="M190 140 L50 140 L50 0 L330 0 L330 700 L50 700 L50 560 L190 560 L190 140 Z" glyph-name="bracketright" horiz-adv-x="380" unicode="]"/><glyph d="M470 420 L470 560 L330 560 L330 700 L190 700 L190 560 L330 560 L330 420 L470 420 Z M50 420 L190 420 L190 560 L50 560 L50 420 Z" glyph-name="asciicircum" horiz-adv-x="520" unicode="^"/><glyph d="M50 -140 L750 -140 L750 0 L50 0 L50 -140 Z" glyph-name="underscore" horiz-adv-x="800" unicode="_"/><glyph d="M190 700 L330 700 L330 840 L190 840 L190 700 Z M50 840 L190 840 L190 980 L50 980 L50 840 Z" glyph-name="grave" horiz-adv-x="380" unicode="`"/><glyph d="M190 560 L610 560 L610 700 L190 700 L190 560 Z M50 0 L190 0 L190 140 L610 140 L610 0 L750 0 L750 560 L610 560 L610 280 L190 280 L190 560 L50 560 L50 0 Z" glyph-name="a" horiz-adv-x="800" unicode="a"/><glyph d="M50 0 L610 0 L610 140 L190 140 L190 280 L610 280 L610 420 L190 420 L190 560 L610 560 L610 700 L50 700 L50 0 Z M610 420 L750 420 L750 560 L610 560 L610 420 Z M610 140 L750 140 L750 280 L610 280 L610 140 Z" glyph-name="b" horiz-adv-x="800" unicode="b"/><glyph d="M190 560 L610 560 L610 700 L190 700 L190 560 Z M50 140 L190 140 L190 560 L50 560 L50 140 Z M610 420 L750 420 L750 560 L610 560 L610 420 Z M610 140 L750 140 L750 280 L610 280 L610 140 Z M190 0 L610 0 L610 140 L190 140 L190 0 Z" glyph-name="c" horiz-adv-x="800" unicode="c"/><glyph d="M50 0 L610 0 L610 140 L190 140 L190 560 L610 560 L610 700 L50 700 L50 0 Z M610 140 L750 140 L750 560 L610 560 L610 140 Z" glyph-name="d" horiz-adv-x="800" unicode="d"/><glyph d="M50 0 L750 0 L750 140 L190 140 L190 280 L470 280 L470 420 L190 420 L190 560 L750 560 L750 700 L50 700 L50 0 Z" glyph-name="e" horiz-adv-x="800" unicode="e"/><glyph d="M50 0 L190 0 L190 280 L470 280 L470 420 L190 420 L190 560 L750 560 L750 700 L50 700 L50 0 Z" glyph-name="f" horiz-adv-x="800" unicode="f"/><glyph d="M190 0 L750 0 L750 420 L470 420 L470 280 L610 280 L610 140 L190 140 L190 560 L50 560 L50 140 L190 140 L190 0 Z M190 560 L750 560 L750 700 L190 700 L190 560 Z" glyph-name="g" horiz-adv-x="800" unicode="g"/><glyph d="M50 0 L190 0 L190 280 L610 280 L610 0 L750 0 L750 700 L610 700 L610 420 L190 420 L190 700 L50 700 L50 0 Z" glyph-name="h" horiz-adv-x="800" unicode="h"/><glyph d="M50 560 L190 560 L190 140 L50 140 L50 0 L470 0 L470 140 L330 140 L330 560 L470 560 L470 700 L50 700 L50 560 Z" glyph-name="i" horiz-adv-x="520" unicode="i"/><glyph d="M190 560 L610 560 L610 140 L750 140 L750 700 L190 700 L190 560 Z M190 0 L610 0 L610 140 L190 140 L190 280 L50 280 L50 140 L190 140 L190 0 Z" glyph-name="j" horiz-adv-x="800" unicode="j"/><glyph d="M610 560 L750 560 L750 700 L610 700 L610 560 Z M470 420 L610 420 L610 560 L470 560 L470 420 Z M470 140 L610 140 L610 280 L470 280 L470 140 Z M610 0 L750 0 L750 140 L610 140 L610 0 Z M190 420 L190 700 L50 700 L50 0 L190 0 L190 280 L470 280 L470 420 L190 420 Z" glyph-name="k" horiz-adv-x="800" unicode="k"/><glyph d="M50 0 L750 0 L750 140 L190 140 L190 700 L50 700 L50 0 Z" glyph-name="l" horiz-adv-x="800" unicode="l"/><glyph d="M50 0 L190 0 L190 420 L330 420 L330 560 L190 560 L190 700 L50 700 L50 0 Z M610 560 L470 560 L470 420 L610 420 L610 0 L750 0 L750 700 L610 700 L610 560 Z M330 280 L470 280 L470 420 L330 420 L330 280 Z" glyph-name="m" horiz-adv-x="800" unicode="m"/><glyph d="M50 0 L190 0 L190 420 L330 420 L330 560 L190 560 L190 700 L50 700 L50 0 Z M610 280 L470 280 L470 140 L610 140 L610 0 L750 0 L750 700 L610 700 L610 280 Z M330 280 L470 280 L470 420 L330 420 L330 280 Z" glyph-name="n" horiz-adv-x="800" unicode="n"/><glyph d="M190 560 L610 560 L610 700 L190 700 L190 560 Z M50 140 L190 140 L190 560 L50 560 L50 140 Z M610 140 L750 140 L750 560 L610 560 L610 140 Z M190 0 L610 0 L610 140 L190 140 L190 0 Z" glyph-name="o" horiz-adv-x="800" unicode="o"/><glyph d="M50 0 L190 0 L190 280 L610 280 L610 420 L190 420 L190 560 L610 560 L610 700 L50 700 L50 0 Z M610 420 L750 420 L750 560 L610 560 L610 420 Z" glyph-name="p" horiz-adv-x="800" unicode="p"/><glyph d="M190 560 L610 560 L610 700 L190 700 L190 560 Z M50 140 L190 140 L190 560 L50 560 L50 140 Z M610 280 L750 280 L750 560 L610 560 L610 280 Z M470 140 L610 140 L610 280 L470 280 L470 140 Z M190 0 L470 0 L470 140 L190 140 L190 0 Z M610 0 L750 0 L750 140 L610 140 L610 0 Z" glyph-name="q" horiz-adv-x="800" unicode="q"/><glyph d="M50 0 L190 0 L190 280 L610 280 L610 420 L190 420 L190 560 L610 560 L610 700 L50 700 L50 0 Z M610 420 L750 420 L750 560 L610 560 L610 420 Z M610 0 L750 0 L750 280 L610 280 L610 0 Z" glyph-name="r" horiz-adv-x="800" unicode="r"/><glyph d="M190 560 L750 560 L750 700 L190 700 L190 560 Z M50 420 L190 420 L190 560 L50 560 L50 420 Z M190 280 L610 280 L610 420 L190 420 L190 280 Z M610 140 L750 140 L750 280 L610 280 L610 140 Z M50 0 L610 0 L610 140 L50 140 L50 0 Z" glyph-name="s" horiz-adv-x="800" unicode="s"/><glyph d="M50 560 L330 560 L330 0 L470 0 L470 560 L750 560 L750 700 L50 700 L50 560 Z" glyph-name="t" horiz-adv-x="800" unicode="t"/><glyph d="M50 140 L190 140 L190 700 L50 700 L50 140 Z M610 140 L750 140 L750 700 L610 700 L610 140 Z M190 0 L610 0 L610 140 L190 140 L190 0 Z" glyph-name="u" horiz-adv-x="800" unicode="u"/><glyph d="M50 280 L190 280 L190 700 L50 700 L50 280 Z M610 280 L750 280 L750 700 L610 700 L610 280 Z M190 140 L330 140 L330 280 L190 280 L190 140 Z M470 140 L610 140 L610 280 L470 280 L470 140 Z M330 0 L470 0 L470 140 L330 140 L330 0 Z" glyph-name="v" horiz-adv-x="800" unicode="v"/><glyph d="M50 0 L190 0 L190 140 L330 140 L330 280 L190 280 L190 700 L50 700 L50 0 Z M610 280 L470 280 L470 140 L610 140 L610 0 L750 0 L750 700 L610 700 L610 280 Z M330 280 L470 280 L470 420 L330 420 L330 280 Z" glyph-name="w" horiz-adv-x="800" unicode="w"/><glyph d="M50 560 L190 560 L190 700 L50 700 L50 560 Z M610 560 L750 560 L750 700 L610 700 L610 560 Z M190 420 L330 420 L330 560 L190 560 L190 420 Z M470 420 L610 420 L610 560 L470 560 L470 420 Z M330 280 L470 280 L470 420 L330 420 L330 280 Z M190 140 L330 140 L330 280 L190 280 L190 140 Z M470 140 L610 140 L610 280 L470 280 L470 140 Z M50 0 L190 0 L190 140 L50 140 L50 0 Z M610 0 L750 0 L750 140 L610 140 L610 0 Z" glyph-name="x" horiz-adv-x="800" unicode="x"/><glyph d="M50 560 L190 560 L190 700 L50 700 L50 560 Z M610 560 L750 560 L750 700 L610 700 L610 560 Z M190 420 L330 420 L330 560 L190 560 L190 420 Z M470 420 L610 420 L610 560 L470 560 L470 420 Z M330 0 L470 0 L470 420 L330 420 L330 0 Z" glyph-name="y" horiz-adv-x="800" unicode="y"/><glyph d="M50 560 L470 560 L470 420 L610 420 L610 560 L750 560 L750 700 L50 700 L50 560 Z M330 280 L470 280 L470 420 L330 420 L330 280 Z M190 140 L330 140 L330 280 L190 280 L190 140 Z M50 0 L750 0 L750 140 L50 140 L50 0 Z" glyph-name="z" horiz-adv-x="800" unicode="z"/><glyph d="M330 0 L470 0 L470 140 L330 140 L330 560 L190 560 L190 420 L50 420 L50 280 L190 280 L190 140 L330 140 L330 0 Z M330 560 L470 560 L470 700 L330 700 L330 560 Z" glyph-name="braceleft" horiz-adv-x="520" unicode="{"/><glyph d="M190 700 L50 700 L50 -140 L190 -140 L190 700 Z" glyph-name="bar" horiz-adv-x="240" unicode="|"/><glyph d="M190 700 L50 700 L50 560 L190 560 L190 700 Z M190 140 L330 140 L330 280 L470 280 L470 420 L330 420 L330 560 L190 560 L190 140 L50 140 L50 0 L190 0 L190 140 Z" glyph-name="braceright" horiz-adv-x="520" unicode="}"/><glyph d="M330 700 L190 700 L190 560 L330 560 L330 700 Z M190 560 L50 560 L50 420 L190 420 L190 560 Z M610 700 L470 700 L470 560 L610 560 L610 700 Z M470 560 L330 560 L330 420 L470 420 L470 560 Z" glyph-name="asciitilde" horiz-adv-x="660" unicode="~"/><glyph glyph-name="uni00A0" horiz-adv-x="280"/><glyph d="M50 560 L190 560 L190 700 L50 700 L50 560 Z M50 0 L190 0 L190 420 L50 420 L50 0 Z" glyph-name="exclamdown" horiz-adv-x="240" unicode="¡"/><glyph d="M190 0 L330 0 L330 -140 L470 -140 L470 0 L610 0 L610 140 L190 140 L190 560 L50 560 L50 140 L190 140 L190 0 Z M610 420 L750 420 L750 560 L610 560 L610 700 L470 700 L470 840 L330 840 L330 700 L190 700 L190 560 L610 560 L610 420 Z M610 140 L750 140 L750 280 L610 280 L610 140 Z" glyph-name="cent" horiz-adv-x="800" unicode="¢"/><glyph d="M50 280 L190 280 L190 140 L50 140 L50 0 L750 0 L750 140 L330 140 L330 280 L470 280 L470 420 L330 420 L330 560 L610 560 L610 420 L750 420 L750 560 L610 560 L610 700 L190 700 L190 420 L50 420 L50 280 Z" glyph-name="sterling" horiz-adv-x="800" unicode="£"/><glyph d="M190 420 L330 420 L330 280 L50 280 L50 140 L330 140 L330 0 L470 0 L470 140 L750 140 L750 280 L470 280 L470 420 L330 420 L330 560 L190 560 L190 700 L50 700 L50 560 L190 560 L190 420 Z M470 420 L610 420 L610 560 L470 560 L470 420 Z M610 560 L750 560 L750 700 L610 700 L610 560 Z" glyph-name="yen" horiz-adv-x="800" unicode="¥"/><glyph d="M190 700 L50 700 L50 420 L190 420 L190 700 Z M190 -140 L190 140 L50 140 L50 -140 L190 -140 Z" glyph-name="brokenbar" horiz-adv-x="240" unicode="¦"/><glyph d="M50 840 L190 840 L190 980 L50 980 L50 840 Z M330 840 L470 840 L470 980 L330 980 L330 840 Z" glyph-name="dieresis" horiz-adv-x="520" unicode="¨"/><glyph d="M610 490 L680 490 L680 630 L540 630 L540 560 L610 560 L610 490 Z M190 560 L260 560 L260 630 L120 630 L120 490 L190 490 L190 560 Z M610 140 L540 140 L540 70 L680 70 L680 210 L610 210 L610 140 Z M120 70 L260 70 L260 140 L190 140 L190 210 L120 210 L120 70 Z M120 210 L120 490 L50 490 L50 210 L120 210 Z M470 420 L540 420 L540 490 L470 490 L470 420 Z M330 490 L470 490 L470 560 L330 560 L330 490 Z M260 210 L330 210 L330 490 L260 490 L260 210 Z M330 140 L470 140 L470 210 L330 210 L330 140 Z M470 210 L540 210 L540 280 L470 280 L470 210 Z M750 210 L750 490 L680 490 L680 210 L750 210 Z M540 70 L260 70 L260 0 L540 0 L540 70 Z M540 700 L260 700 L260 630 L540 630 L540 700 Z" glyph-name="copyright" horiz-adv-x="800" unicode="©"/><glyph d="M190 280 L190 420 L50 420 L50 280 L190 280 Z M330 560 L190 560 L190 420 L330 420 L330 560 Z M190 280 L190 140 L330 140 L330 280 L190 280 Z M540 280 L540 420 L400 420 L400 280 L540 280 Z M680 560 L540 560 L540 420 L680 420 L680 560 Z M540 280 L540 140 L680 140 L680 280 L540 280 Z" glyph-name="guillemotleft" horiz-adv-x="730" unicode="«"/><glyph d="M470 420 L50 420 L50 280 L330 280 L330 140 L470 140 L470 420 Z" glyph-name="logicalnot" horiz-adv-x="520" unicode="¬"/><glyph d="M50 280 L330 280 L330 420 L50 420 L50 280 Z" glyph-name="uni00AD" horiz-adv-x="380" unicode="­"/><glyph d="M190 350 L260 350 L260 630 L190 630 L190 350 Z M260 560 L400 560 L400 630 L260 630 L260 560 Z M260 420 L400 420 L400 490 L260 490 L260 420 Z M400 350 L470 350 L470 420 L400 420 L400 350 Z M400 490 L470 490 L470 560 L400 560 L400 490 Z M190 700 L470 700 L470 770 L190 770 L190 700 Z M190 210 L470 210 L470 280 L190 280 L190 210 Z M50 350 L120 350 L120 630 L50 630 L50 350 Z M540 350 L610 350 L610 630 L540 630 L540 350 Z M470 630 L540 630 L540 700 L470 700 L470 630 Z M470 280 L540 280 L540 350 L470 350 L470 280 Z M120 280 L190 280 L190 350 L120 350 L120 280 Z M120 630 L190 630 L190 700 L120 700 L120 630 Z" glyph-name="registered" horiz-adv-x="660" unicode="®"/><glyph d="M50 840 L470 840 L470 980 L50 980 L50 840 Z" glyph-name="macron" horiz-adv-x="520" unicode="¯"/><glyph d="M190 560 L330 560 L330 700 L190 700 L190 560 Z M50 420 L190 420 L190 560 L50 560 L50 420 Z M330 420 L470 420 L470 560 L330 560 L330 420 Z M190 280 L330 280 L330 420 L190 420 L190 280 Z" glyph-name="degree" horiz-adv-x="520" unicode="°"/><glyph d="M190 560 L50 560 L50 420 L190 420 L190 280 L330 280 L330 420 L470 420 L470 560 L330 560 L330 700 L190 700 L190 560 Z M50 140 L50 0 L470 0 L470 140 L50 140 Z" glyph-name="plusminus" horiz-adv-x="520" unicode="±"/><glyph d="M330 980 L190 980 L190 840 L330 840 L330 980 Z M190 840 L50 840 L50 700 L190 700 L190 840 Z" glyph-name="acute" horiz-adv-x="380" unicode="´"/><glyph d="M750 700 L190 700 L190 560 L50 560 L50 420 L190 420 L190 280 L330 280 L330 -140 L470 -140 L470 280 L610 280 L610 -140 L750 -140 L750 700 Z M610 420 L330 420 L330 560 L610 560 L610 420 Z" glyph-name="paragraph" horiz-adv-x="800" unicode="¶"/><glyph d="M50 280 L190 280 L190 420 L50 420 L50 280 Z" glyph-name="periodcentered" horiz-adv-x="240" unicode="·"/><glyph d="M330 0 L190 0 L190 -140 L330 -140 L330 0 Z M50 -280 L190 -280 L190 -140 L50 -140 L50 -280 Z" glyph-name="cedilla" horiz-adv-x="380" unicode="¸"/><glyph d="M50 280 L50 140 L190 140 L190 280 L50 280 Z M50 420 L190 420 L190 560 L50 560 L50 420 Z M330 280 L330 420 L190 420 L190 280 L330 280 Z M400 280 L400 140 L540 140 L540 280 L400 280 Z M400 420 L540 420 L540 560 L400 560 L400 420 Z M680 280 L680 420 L540 420 L540 280 L680 280 Z" glyph-name="guillemotright" horiz-adv-x="730" unicode="»"/><glyph d="M610 140 L190 140 L190 0 L610 0 L610 140 Z M750 280 L610 280 L610 140 L750 140 L750 280 Z M190 280 L50 280 L50 140 L190 140 L190 280 Z M470 420 L190 420 L190 280 L470 280 L470 420 Z M470 700 L330 700 L330 560 L470 560 L470 700 Z" glyph-name="questiondown" horiz-adv-x="800" unicode="¿"/><glyph d="M190 560 L610 560 L610 700 L190 700 L190 560 Z M50 0 L190 0 L190 140 L610 140 L610 0 L750 0 L750 560 L610 560 L610 280 L190 280 L190 560 L50 560 L50 0 Z M330 700 L470 700 L470 840 L330 840 L330 700 Z M190 840 L330 840 L330 980 L190 980 L190 840 Z" glyph-name="Agrave" horiz-adv-x="800" unicode="À"/><glyph d="M190 560 L610 560 L610 700 L190 700 L190 560 Z M50 0 L190 0 L190 140 L610 140 L610 0 L750 0 L750 560 L610 560 L610 280 L190 280 L190 560 L50 560 L50 0 Z M610 980 L470 980 L470 840 L610 840 L610 980 Z M470 840 L330 840 L330 700 L470 700 L470 840 Z" glyph-name="Aacute" horiz-adv-x="800" unicode="Á"/><glyph d="M190 560 L610 560 L610 700 L190 700 L190 560 Z M50 0 L190 0 L190 140 L610 140 L610 0 L750 0 L750 560 L610 560 L610 280 L190 280 L190 560 L50 560 L50 0 Z M190 700 L330 700 L330 840 L470 840 L470 980 L330 980 L330 840 L190 840 L190 700 Z M470 700 L610 700 L610 840 L470 840 L470 700 Z" glyph-name="Acircumflex" horiz-adv-x="800" unicode="Â"/><glyph d="M190 560 L610 560 L610 700 L190 700 L190 560 Z M50 0 L190 0 L190 140 L610 140 L610 0 L750 0 L750 560 L610 560 L610 280 L190 280 L190 560 L50 560 L50 0 Z M400 980 L260 980 L260 840 L400 840 L400 980 Z M260 840 L120 840 L120 700 L260 700 L260 840 Z M680 980 L540 980 L540 840 L680 840 L680 980 Z M540 840 L400 840 L400 700 L540 700 L540 840 Z" glyph-name="Atilde" horiz-adv-x="800" unicode="Ã"/><glyph d="M190 560 L610 560 L610 700 L190 700 L190 560 Z M50 0 L190 0 L190 140 L610 140 L610 0 L750 0 L750 560 L610 560 L610 280 L190 280 L190 560 L50 560 L50 0 Z M190 840 L330 840 L330 980 L190 980 L190 840 Z M470 840 L610 840 L610 980 L470 980 L470 840 Z" glyph-name="Adieresis" horiz-adv-x="800" unicode="Ä"/><glyph d="M190 560 L610 560 L610 700 L190 700 L190 560 Z M50 0 L190 0 L190 140 L610 140 L610 0 L750 0 L750 560 L610 560 L610 280 L190 280 L190 560 L50 560 L50 0 Z M190 840 L330 840 L330 700 L470 700 L470 840 L330 840 L330 980 L190 980 L190 840 Z M330 980 L470 980 L470 840 L610 840 L610 980 L470 980 L470 1120 L330 1120 L330 980 Z" glyph-name="Aring" horiz-adv-x="800" unicode="Å"/><glyph d="M190 560 L610 560 L610 280 L190 280 L190 560 L50 560 L50 0 L190 0 L190 140 L610 140 L610 0 L1310 0 L1310 140 L750 140 L750 280 L1030 280 L1030 420 L750 420 L750 560 L1310 560 L1310 700 L190 700 L190 560 Z" glyph-name="AE" horiz-adv-x="1360" unicode="Æ"/><glyph d="M190 560 L610 560 L610 700 L190 700 L190 560 Z M50 140 L190 140 L190 560 L50 560 L50 140 Z M610 420 L750 420 L750 560 L610 560 L610 420 Z M610 140 L750 140 L750 280 L610 280 L610 140 Z M190 0 L610 0 L610 140 L190 140 L190 0 Z M470 0 L330 0 L330 -140 L470 -140 L470 0 Z M190 -280 L330 -280 L330 -140 L190 -140 L190 -280 Z" glyph-name="Ccedilla" horiz-adv-x="800" unicode="Ç"/><glyph d="M50 0 L750 0 L750 140 L190 140 L190 280 L470 280 L470 420 L190 420 L190 560 L750 560 L750 700 L50 700 L50 0 Z M330 700 L470 700 L470 840 L330 840 L330 700 Z M190 840 L330 840 L330 980 L190 980 L190 840 Z" glyph-name="Egrave" horiz-adv-x="800" unicode="È"/><glyph d="M50 0 L750 0 L750 140 L190 140 L190 280 L470 280 L470 420 L190 420 L190 560 L750 560 L750 700 L50 700 L50 0 Z M610 980 L470 980 L470 840 L610 840 L610 980 Z M470 840 L330 840 L330 700 L470 700 L470 840 Z" glyph-name="Eacute" horiz-adv-x="800" unicode="É"/><glyph d="M50 0 L750 0 L750 140 L190 140 L190 280 L470 280 L470 420 L190 420 L190 560 L750 560 L750 700 L50 700 L50 0 Z M190 700 L330 700 L330 840 L470 840 L470 980 L330 980 L330 840 L190 840 L190 700 Z M470 700 L610 700 L610 840 L470 840 L470 700 Z" glyph-name="Ecircumflex" horiz-adv-x="800" unicode="Ê"/><glyph d="M50 0 L750 0 L750 140 L190 140 L190 280 L470 280 L470 420 L190 420 L190 560 L750 560 L750 700 L50 700 L50 0 Z M190 840 L330 840 L330 980 L190 980 L190 840 Z M470 840 L610 840 L610 980 L470 980 L470 840 Z" glyph-name="Edieresis" horiz-adv-x="800" unicode="Ë"/><glyph d="M50 560 L190 560 L190 140 L50 140 L50 0 L470 0 L470 140 L330 140 L330 560 L470 560 L470 700 L50 700 L50 560 Z M190 700 L330 700 L330 840 L190 840 L190 700 Z M50 840 L190 840 L190 980 L50 980 L50 840 Z" glyph-name="Igrave" horiz-adv-x="520" unicode="Ì"/><glyph d="M50 560 L190 560 L190 140 L50 140 L50 0 L470 0 L470 140 L330 140 L330 560 L470 560 L470 700 L50 700 L50 560 Z M470 980 L330 980 L330 840 L470 840 L470 980 Z M330 840 L190 840 L190 700 L330 700 L330 840 Z" glyph-name="Iacute" horiz-adv-x="520" unicode="Í"/><glyph d="M50 560 L190 560 L190 140 L50 140 L50 0 L470 0 L470 140 L330 140 L330 560 L470 560 L470 700 L50 700 L50 560 Z M50 700 L190 700 L190 840 L330 840 L330 980 L190 980 L190 840 L50 840 L50 700 Z M330 700 L470 700 L470 840 L330 840 L330 700 Z" glyph-name="Icircumflex" horiz-adv-x="520" unicode="Î"/><glyph d="M50 560 L190 560 L190 140 L50 140 L50 0 L470 0 L470 140 L330 140 L330 560 L470 560 L470 700 L50 700 L50 560 Z M50 840 L190 840 L190 980 L50 980 L50 840 Z M330 840 L470 840 L470 980 L330 980 L330 840 Z" glyph-name="Idieresis" horiz-adv-x="520" unicode="Ï"/><glyph d="M610 140 L750 140 L750 560 L610 560 L610 700 L190 700 L190 420 L50 420 L50 280 L190 280 L190 0 L610 0 L610 140 L330 140 L330 280 L470 280 L470 420 L330 420 L330 560 L610 560 L610 140 Z" glyph-name="Eth" horiz-adv-x="800" unicode="Ð"/><glyph d="M50 0 L190 0 L190 420 L330 420 L330 560 L190 560 L190 700 L50 700 L50 0 Z M610 280 L470 280 L470 140 L610 140 L610 0 L750 0 L750 700 L610 700 L610 280 Z M330 280 L470 280 L470 420 L330 420 L330 280 Z M470 980 L330 980 L330 840 L470 840 L470 980 Z M330 840 L190 840 L190 700 L330 700 L330 840 Z M750 980 L610 980 L610 840 L750 840 L750 980 Z M610 840 L470 840 L470 700 L610 700 L610 840 Z" glyph-name="Ntilde" horiz-adv-x="800" unicode="Ñ"/><glyph d="M190 560 L610 560 L610 700 L190 700 L190 560 Z M50 140 L190 140 L190 560 L50 560 L50 140 Z M610 140 L750 140 L750 560 L610 560 L610 140 Z M190 0 L610 0 L610 140 L190 140 L190 0 Z M330 700 L470 700 L470 840 L330 840 L330 700 Z M190 840 L330 840 L330 980 L190 980 L190 840 Z" glyph-name="Ograve" horiz-adv-x="800" unicode="Ò"/><glyph d="M190 560 L610 560 L610 700 L190 700 L190 560 Z M50 140 L190 140 L190 560 L50 560 L50 140 Z M610 140 L750 140 L750 560 L610 560 L610 140 Z M190 0 L610 0 L610 140 L190 140 L190 0 Z M610 980 L470 980 L470 840 L610 840 L610 980 Z M470 840 L330 840 L330 700 L470 700 L470 840 Z" glyph-name="Oacute" horiz-adv-x="800" unicode="Ó"/><glyph d="M190 560 L610 560 L610 700 L190 700 L190 560 Z M50 140 L190 140 L190 560 L50 560 L50 140 Z M610 140 L750 140 L750 560 L610 560 L610 140 Z M190 0 L610 0 L610 140 L190 140 L190 0 Z M190 700 L330 700 L330 840 L470 840 L470 980 L330 980 L330 840 L190 840 L190 700 Z M470 700 L610 700 L610 840 L470 840 L470 700 Z" glyph-name="Ocircumflex" horiz-adv-x="800" unicode="Ô"/><glyph d="M190 560 L610 560 L610 700 L190 700 L190 560 Z M50 140 L190 140 L190 560 L50 560 L50 140 Z M610 140 L750 140 L750 560 L610 560 L610 140 Z M190 0 L610 0 L610 140 L190 140 L190 0 Z M330 980 L190 980 L190 840 L330 840 L330 980 Z M190 840 L50 840 L50 700 L190 700 L190 840 Z M610 980 L470 980 L470 840 L610 840 L610 980 Z M470 840 L330 840 L330 700 L470 700 L470 840 Z" glyph-name="Otilde" horiz-adv-x="800" unicode="Õ"/><glyph d="M190 560 L610 560 L610 700 L190 700 L190 560 Z M50 140 L190 140 L190 560 L50 560 L50 140 Z M610 140 L750 140 L750 560 L610 560 L610 140 Z M190 0 L610 0 L610 140 L190 140 L190 0 Z M190 840 L330 840 L330 980 L190 980 L190 840 Z M470 840 L610 840 L610 980 L470 980 L470 840 Z" glyph-name="Odieresis" horiz-adv-x="800" unicode="Ö"/><glyph d="M190 420 L190 280 L330 280 L330 140 L470 140 L470 280 L330 280 L330 420 L190 420 L190 560 L50 560 L50 420 L190 420 Z M50 280 L50 140 L190 140 L190 280 L50 280 Z M330 560 L330 420 L470 420 L470 560 L330 560 Z" glyph-name="multiply" horiz-adv-x="520" unicode="×"/><glyph d="M190 0 L610 0 L610 140 L330 140 L330 280 L190 280 L190 560 L50 560 L50 140 L190 140 L190 0 Z M470 420 L610 420 L610 140 L750 140 L750 560 L610 560 L610 700 L190 700 L190 560 L470 560 L470 420 Z M330 280 L470 280 L470 420 L330 420 L330 280 Z" glyph-name="Oslash" horiz-adv-x="800" unicode="Ø"/><glyph d="M50 140 L190 140 L190 700 L50 700 L50 140 Z M610 140 L750 140 L750 700 L610 700 L610 140 Z M190 0 L610 0 L610 140 L190 140 L190 0 Z M330 700 L470 700 L470 840 L330 840 L330 700 Z M190 840 L330 840 L330 980 L190 980 L190 840 Z" glyph-name="Ugrave" horiz-adv-x="800" unicode="Ù"/><glyph d="M50 140 L190 140 L190 700 L50 700 L50 140 Z M610 140 L750 140 L750 700 L610 700 L610 140 Z M190 0 L610 0 L610 140 L190 140 L190 0 Z M610 980 L470 980 L470 840 L610 840 L610 980 Z M470 840 L330 840 L330 700 L470 700 L470 840 Z" glyph-name="Uacute" horiz-adv-x="800" unicode="Ú"/><glyph d="M50 140 L190 140 L190 700 L50 700 L50 140 Z M610 140 L750 140 L750 700 L610 700 L610 140 Z M190 0 L610 0 L610 140 L190 140 L190 0 Z M190 700 L330 700 L330 840 L470 840 L470 980 L330 980 L330 840 L190 840 L190 700 Z M470 700 L610 700 L610 840 L470 840 L470 700 Z" glyph-name="Ucircumflex" horiz-adv-x="800" unicode="Û"/><glyph d="M50 140 L190 140 L190 700 L50 700 L50 140 Z M610 140 L750 140 L750 700 L610 700 L610 140 Z M190 0 L610 0 L610 140 L190 140 L190 0 Z M190 840 L330 840 L330 980 L190 980 L190 840 Z M470 840 L610 840 L610 980 L470 980 L470 840 Z" glyph-name="Udieresis" horiz-adv-x="800" unicode="Ü"/><glyph d="M50 560 L190 560 L190 700 L50 700 L50 560 Z M610 560 L750 560 L750 700 L610 700 L610 560 Z M190 420 L330 420 L330 560 L190 560 L190 420 Z M470 420 L610 420 L610 560 L470 560 L470 420 Z M330 0 L470 0 L470 420 L330 420 L330 0 Z M610 980 L470 980 L470 840 L610 840 L610 980 Z M470 840 L330 840 L330 700 L470 700 L470 840 Z" glyph-name="Yacute" horiz-adv-x="800" unicode="Ý"/><glyph d="M610 280 L750 280 L750 420 L610 420 L610 560 L190 560 L190 700 L50 700 L50 0 L190 0 L190 140 L610 140 L610 280 L190 280 L190 420 L610 420 L610 280 Z" glyph-name="Thorn" horiz-adv-x="800" unicode="Þ"/><glyph d="M610 420 L750 420 L750 560 L610 560 L610 700 L190 700 L190 560 L610 560 L610 420 Z M610 140 L750 140 L750 280 L610 280 L610 420 L330 420 L330 280 L610 280 L610 140 Z M190 560 L50 560 L50 0 L190 0 L190 560 Z M330 0 L610 0 L610 140 L330 140 L330 0 Z" glyph-name="germandbls" horiz-adv-x="800" unicode="ß"/><glyph d="M190 560 L610 560 L610 700 L190 700 L190 560 Z M50 0 L190 0 L190 140 L610 140 L610 0 L750 0 L750 560 L610 560 L610 280 L190 280 L190 560 L50 560 L50 0 Z M330 700 L470 700 L470 840 L330 840 L330 700 Z M190 840 L330 840 L330 980 L190 980 L190 840 Z" glyph-name="agrave" horiz-adv-x="800" unicode="à"/><glyph d="M190 560 L610 560 L610 700 L190 700 L190 560 Z M50 0 L190 0 L190 140 L610 140 L610 0 L750 0 L750 560 L610 560 L610 280 L190 280 L190 560 L50 560 L50 0 Z M610 980 L470 980 L470 840 L610 840 L610 980 Z M470 840 L330 840 L330 700 L470 700 L470 840 Z" glyph-name="aacute" horiz-adv-x="800" unicode="á"/><glyph d="M190 560 L610 560 L610 700 L190 700 L190 560 Z M50 0 L190 0 L190 140 L610 140 L610 0 L750 0 L750 560 L610 560 L610 280 L190 280 L190 560 L50 560 L50 0 Z M190 700 L330 700 L330 840 L470 840 L470 980 L330 980 L330 840 L190 840 L190 700 Z M470 700 L610 700 L610 840 L470 840 L470 700 Z" glyph-name="acircumflex" horiz-adv-x="800" unicode="â"/><glyph d="M190 560 L610 560 L610 700 L190 700 L190 560 Z M50 0 L190 0 L190 140 L610 140 L610 0 L750 0 L750 560 L610 560 L610 280 L190 280 L190 560 L50 560 L50 0 Z M400 980 L260 980 L260 840 L400 840 L400 980 Z M260 840 L120 840 L120 700 L260 700 L260 840 Z M680 980 L540 980 L540 840 L680 840 L680 980 Z M540 840 L400 840 L400 700 L540 700 L540 840 Z" glyph-name="atilde" horiz-adv-x="800" unicode="ã"/><glyph d="M190 560 L610 560 L610 700 L190 700 L190 560 Z M50 0 L190 0 L190 140 L610 140 L610 0 L750 0 L750 560 L610 560 L610 280 L190 280 L190 560 L50 560 L50 0 Z M190 840 L330 840 L330 980 L190 980 L190 840 Z M470 840 L610 840 L610 980 L470 980 L470 840 Z" glyph-name="adieresis" horiz-adv-x="800" unicode="ä"/><glyph d="M190 560 L610 560 L610 700 L190 700 L190 560 Z M50 0 L190 0 L190 140 L610 140 L610 0 L750 0 L750 560 L610 560 L610 280 L190 280 L190 560 L50 560 L50 0 Z M190 840 L330 840 L330 700 L470 700 L470 840 L330 840 L330 980 L190 980 L190 840 Z M330 980 L470 980 L470 840 L610 840 L610 980 L470 980 L470 1120 L330 1120 L330 980 Z" glyph-name="aring" horiz-adv-x="800" unicode="å"/><glyph d="M190 560 L610 560 L610 280 L190 280 L190 560 L50 560 L50 0 L190 0 L190 140 L610 140 L610 0 L1310 0 L1310 140 L750 140 L750 280 L1030 280 L1030 420 L750 420 L750 560 L1310 560 L1310 700 L190 700 L190 560 Z" glyph-name="ae" horiz-adv-x="1360" unicode="æ"/><glyph d="M190 560 L610 560 L610 700 L190 700 L190 560 Z M50 140 L190 140 L190 560 L50 560 L50 140 Z M610 420 L750 420 L750 560 L610 560 L610 420 Z M610 140 L750 140 L750 280 L610 280 L610 140 Z M190 0 L610 0 L610 140 L190 140 L190 0 Z M470 0 L330 0 L330 -140 L470 -140 L470 0 Z M190 -280 L330 -280 L330 -140 L190 -140 L190 -280 Z" glyph-name="ccedilla" horiz-adv-x="800" unicode="ç"/><glyph d="M50 0 L750 0 L750 140 L190 140 L190 280 L470 280 L470 420 L190 420 L190 560 L750 560 L750 700 L50 700 L50 0 Z M330 700 L470 700 L470 840 L330 840 L330 700 Z M190 840 L330 840 L330 980 L190 980 L190 840 Z" glyph-name="egrave" horiz-adv-x="800" unicode="è"/><glyph d="M50 0 L750 0 L750 140 L190 140 L190 280 L470 280 L470 420 L190 420 L190 560 L750 560 L750 700 L50 700 L50 0 Z M610 980 L470 980 L470 840 L610 840 L610 980 Z M470 840 L330 840 L330 700 L470 700 L470 840 Z" glyph-name="eacute" horiz-adv-x="800" unicode="é"/><glyph d="M50 0 L750 0 L750 140 L190 140 L190 280 L470 280 L470 420 L190 420 L190 560 L750 560 L750 700 L50 700 L50 0 Z M190 700 L330 700 L330 840 L470 840 L470 980 L330 980 L330 840 L190 840 L190 700 Z M470 700 L610 700 L610 840 L470 840 L470 700 Z" glyph-name="ecircumflex" horiz-adv-x="800" unicode="ê"/><glyph d="M50 0 L750 0 L750 140 L190 140 L190 280 L470 280 L470 420 L190 420 L190 560 L750 560 L750 700 L50 700 L50 0 Z M190 840 L330 840 L330 980 L190 980 L190 840 Z M470 840 L610 840 L610 980 L470 980 L470 840 Z" glyph-name="edieresis" horiz-adv-x="800" unicode="ë"/><glyph d="M50 560 L190 560 L190 140 L50 140 L50 0 L470 0 L470 140 L330 140 L330 560 L470 560 L470 700 L50 700 L50 560 Z M190 700 L330 700 L330 840 L190 840 L190 700 Z M50 840 L190 840 L190 980 L50 980 L50 840 Z" glyph-name="igrave" horiz-adv-x="520" unicode="ì"/><glyph d="M50 560 L190 560 L190 140 L50 140 L50 0 L470 0 L470 140 L330 140 L330 560 L470 560 L470 700 L50 700 L50 560 Z M470 980 L330 980 L330 840 L470 840 L470 980 Z M330 840 L190 840 L190 700 L330 700 L330 840 Z" glyph-name="iacute" horiz-adv-x="520" unicode="í"/><glyph d="M50 560 L190 560 L190 140 L50 140 L50 0 L470 0 L470 140 L330 140 L330 560 L470 560 L470 700 L50 700 L50 560 Z M50 700 L190 700 L190 840 L330 840 L330 980 L190 980 L190 840 L50 840 L50 700 Z M330 700 L470 700 L470 840 L330 840 L330 700 Z" glyph-name="icircumflex" horiz-adv-x="520" unicode="î"/><glyph d="M50 560 L190 560 L190 140 L50 140 L50 0 L470 0 L470 140 L330 140 L330 560 L470 560 L470 700 L50 700 L50 560 Z M50 840 L190 840 L190 980 L50 980 L50 840 Z M330 840 L470 840 L470 980 L330 980 L330 840 Z" glyph-name="idieresis" horiz-adv-x="520" unicode="ï"/><glyph d="M610 140 L750 140 L750 560 L610 560 L610 700 L190 700 L190 420 L50 420 L50 280 L190 280 L190 0 L610 0 L610 140 L330 140 L330 280 L470 280 L470 420 L330 420 L330 560 L610 560 L610 140 Z" glyph-name="eth" horiz-adv-x="800" unicode="ð"/><glyph d="M50 0 L190 0 L190 420 L330 420 L330 560 L190 560 L190 700 L50 700 L50 0 Z M610 280 L470 280 L470 140 L610 140 L610 0 L750 0 L750 700 L610 700 L610 280 Z M330 280 L470 280 L470 420 L330 420 L330 280 Z M470 980 L330 980 L330 840 L470 840 L470 980 Z M330 840 L190 840 L190 700 L330 700 L330 840 Z M750 980 L610 980 L610 840 L750 840 L750 980 Z M610 840 L470 840 L470 700 L610 700 L610 840 Z" glyph-name="ntilde" horiz-adv-x="800" unicode="ñ"/><glyph d="M190 560 L610 560 L610 700 L190 700 L190 560 Z M50 140 L190 140 L190 560 L50 560 L50 140 Z M610 140 L750 140 L750 560 L610 560 L610 140 Z M190 0 L610 0 L610 140 L190 140 L190 0 Z M330 700 L470 700 L470 840 L330 840 L330 700 Z M190 840 L330 840 L330 980 L190 980 L190 840 Z" glyph-name="ograve" horiz-adv-x="800" unicode="ò"/><glyph d="M190 560 L610 560 L610 700 L190 700 L190 560 Z M50 140 L190 140 L190 560 L50 560 L50 140 Z M610 140 L750 140 L750 560 L610 560 L610 140 Z M190 0 L610 0 L610 140 L190 140 L190 0 Z M610 980 L470 980 L470 840 L610 840 L610 980 Z M470 840 L330 840 L330 700 L470 700 L470 840 Z" glyph-name="oacute" horiz-adv-x="800" unicode="ó"/><glyph d="M190 560 L610 560 L610 700 L190 700 L190 560 Z M50 140 L190 140 L190 560 L50 560 L50 140 Z M610 140 L750 140 L750 560 L610 560 L610 140 Z M190 0 L610 0 L610 140 L190 140 L190 0 Z M190 700 L330 700 L330 840 L470 840 L470 980 L330 980 L330 840 L190 840 L190 700 Z M470 700 L610 700 L610 840 L470 840 L470 700 Z" glyph-name="ocircumflex" horiz-adv-x="800" unicode="ô"/><glyph d="M190 560 L610 560 L610 700 L190 700 L190 560 Z M50 140 L190 140 L190 560 L50 560 L50 140 Z M610 140 L750 140 L750 560 L610 560 L610 140 Z M190 0 L610 0 L610 140 L190 140 L190 0 Z M330 980 L190 980 L190 840 L330 840 L330 980 Z M190 840 L50 840 L50 700 L190 700 L190 840 Z M610 980 L470 980 L470 840 L610 840 L610 980 Z M470 840 L330 840 L330 700 L470 700 L470 840 Z" glyph-name="otilde" horiz-adv-x="800" unicode="õ"/><glyph d="M190 560 L610 560 L610 700 L190 700 L190 560 Z M50 140 L190 140 L190 560 L50 560 L50 140 Z M610 140 L750 140 L750 560 L610 560 L610 140 Z M190 0 L610 0 L610 140 L190 140 L190 0 Z M190 840 L330 840 L330 980 L190 980 L190 840 Z M470 840 L610 840 L610 980 L470 980 L470 840 Z" glyph-name="odieresis" horiz-adv-x="800" unicode="ö"/><glyph d="M50 420 L50 280 L470 280 L470 420 L50 420 Z M190 700 L190 560 L330 560 L330 700 L190 700 Z M190 140 L190 0 L330 0 L330 140 L190 140 Z" glyph-name="divide" horiz-adv-x="520" unicode="÷"/><glyph d="M190 0 L610 0 L610 140 L330 140 L330 280 L190 280 L190 560 L50 560 L50 140 L190 140 L190 0 Z M470 420 L610 420 L610 140 L750 140 L750 560 L610 560 L610 700 L190 700 L190 560 L470 560 L470 420 Z M330 280 L470 280 L470 420 L330 420 L330 280 Z" glyph-name="oslash" horiz-adv-x="800" unicode="ø"/><glyph d="M50 140 L190 140 L190 700 L50 700 L50 140 Z M610 140 L750 140 L750 700 L610 700 L610 140 Z M190 0 L610 0 L610 140 L190 140 L190 0 Z M330 700 L470 700 L470 840 L330 840 L330 700 Z M190 840 L330 840 L330 980 L190 980 L190 840 Z" glyph-name="ugrave" horiz-adv-x="800" unicode="ù"/><glyph d="M50 140 L190 140 L190 700 L50 700 L50 140 Z M610 140 L750 140 L750 700 L610 700 L610 140 Z M190 0 L610 0 L610 140 L190 140 L190 0 Z M610 980 L470 980 L470 840 L610 840 L610 980 Z M470 840 L330 840 L330 700 L470 700 L470 840 Z" glyph-name="uacute" horiz-adv-x="800" unicode="ú"/><glyph d="M50 140 L190 140 L190 700 L50 700 L50 140 Z M610 140 L750 140 L750 700 L610 700 L610 140 Z M190 0 L610 0 L610 140 L190 140 L190 0 Z M190 700 L330 700 L330 840 L470 840 L470 980 L330 980 L330 840 L190 840 L190 700 Z M470 700 L610 700 L610 840 L470 840 L470 700 Z" glyph-name="ucircumflex" horiz-adv-x="800" unicode="û"/><glyph d="M50 140 L190 140 L190 700 L50 700 L50 140 Z M610 140 L750 140 L750 700 L610 700 L610 140 Z M190 0 L610 0 L610 140 L190 140 L190 0 Z M190 840 L330 840 L330 980 L190 980 L190 840 Z M470 840 L610 840 L610 980 L470 980 L470 840 Z" glyph-name="udieresis" horiz-adv-x="800" unicode="ü"/><glyph d="M50 560 L190 560 L190 700 L50 700 L50 560 Z M610 560 L750 560 L750 700 L610 700 L610 560 Z M190 420 L330 420 L330 560 L190 560 L190 420 Z M470 420 L610 420 L610 560 L470 560 L470 420 Z M330 0 L470 0 L470 420 L330 420 L330 0 Z M610 980 L470 980 L470 840 L610 840 L610 980 Z M470 840 L330 840 L330 700 L470 700 L470 840 Z" glyph-name="yacute" horiz-adv-x="800" unicode="ý"/><glyph d="M610 280 L750 280 L750 420 L610 420 L610 560 L190 560 L190 700 L50 700 L50 0 L190 0 L190 140 L610 140 L610 280 L190 280 L190 420 L610 420 L610 280 Z" glyph-name="thorn" horiz-adv-x="800" unicode="þ"/><glyph d="M50 560 L190 560 L190 700 L50 700 L50 560 Z M610 560 L750 560 L750 700 L610 700 L610 560 Z M190 420 L330 420 L330 560 L190 560 L190 420 Z M470 420 L610 420 L610 560 L470 560 L470 420 Z M330 0 L470 0 L470 420 L330 420 L330 0 Z M190 840 L330 840 L330 980 L190 980 L190 840 Z M470 840 L610 840 L610 980 L470 980 L470 840 Z" glyph-name="ydieresis" horiz-adv-x="800" unicode="ÿ"/><glyph d="M190 560 L610 560 L610 700 L190 700 L190 560 Z M50 0 L190 0 L190 140 L610 140 L610 0 L750 0 L750 560 L610 560 L610 280 L190 280 L190 560 L50 560 L50 0 Z M190 840 L610 840 L610 980 L190 980 L190 840 Z" glyph-name="Amacron" horiz-adv-x="800" unicode="Ā"/><glyph d="M190 560 L610 560 L610 700 L190 700 L190 560 Z M50 0 L190 0 L190 140 L610 140 L610 0 L750 0 L750 560 L610 560 L610 280 L190 280 L190 560 L50 560 L50 0 Z M190 840 L610 840 L610 980 L190 980 L190 840 Z" glyph-name="amacron" horiz-adv-x="800" unicode="ā"/><glyph d="M190 560 L610 560 L610 700 L190 700 L190 560 Z M50 0 L190 0 L190 140 L610 140 L610 0 L750 0 L750 560 L610 560 L610 280 L190 280 L190 560 L50 560 L50 0 Z M190 840 L330 840 L330 700 L470 700 L470 840 L330 840 L330 980 L190 980 L190 840 Z M470 840 L610 840 L610 980 L470 980 L470 840 Z" glyph-name="Abreve" horiz-adv-x="800" unicode="Ă"/><glyph d="M190 560 L610 560 L610 700 L190 700 L190 560 Z M50 0 L190 0 L190 140 L610 140 L610 0 L750 0 L750 560 L610 560 L610 280 L190 280 L190 560 L50 560 L50 0 Z M190 840 L330 840 L330 700 L470 700 L470 840 L330 840 L330 980 L190 980 L190 840 Z M470 840 L610 840 L610 980 L470 980 L470 840 Z" glyph-name="abreve" horiz-adv-x="800" unicode="ă"/><glyph d="M190 560 L610 560 L610 700 L190 700 L190 560 Z M50 0 L190 0 L190 140 L610 140 L610 0 L750 0 L750 560 L610 560 L610 280 L190 280 L190 560 L50 560 L50 0 Z M750 -140 L610 -140 L610 0 L470 0 L470 -140 L610 -140 L610 -280 L750 -280 L750 -140 Z" glyph-name="Aogonek" horiz-adv-x="800" unicode="Ą"/><glyph d="M190 560 L610 560 L610 700 L190 700 L190 560 Z M50 0 L190 0 L190 140 L610 140 L610 0 L750 0 L750 560 L610 560 L610 280 L190 280 L190 560 L50 560 L50 0 Z M750 -140 L610 -140 L610 0 L470 0 L470 -140 L610 -140 L610 -280 L750 -280 L750 -140 Z" glyph-name="aogonek" horiz-adv-x="800" unicode="ą"/><glyph d="M190 0 L610 0 L610 140 L190 140 L190 560 L50 560 L50 140 L190 140 L190 0 Z M470 840 L330 840 L330 700 L190 700 L190 560 L610 560 L610 420 L750 420 L750 560 L610 560 L610 700 L470 700 L470 840 Z M610 140 L750 140 L750 280 L610 280 L610 140 Z M610 980 L470 980 L470 840 L610 840 L610 980 Z" glyph-name="Cacute" horiz-adv-x="800" unicode="Ć"/><glyph d="M190 0 L610 0 L610 140 L190 140 L190 560 L50 560 L50 140 L190 140 L190 0 Z M610 420 L750 420 L750 560 L610 560 L610 700 L470 700 L470 840 L330 840 L330 700 L190 700 L190 560 L610 560 L610 420 Z M610 140 L750 140 L750 280 L610 280 L610 140 Z M610 980 L470 980 L470 840 L610 840 L610 980 Z" glyph-name="cacute" horiz-adv-x="800" unicode="ć"/><glyph d="M190 560 L610 560 L610 700 L190 700 L190 560 Z M50 140 L190 140 L190 560 L50 560 L50 140 Z M610 420 L750 420 L750 560 L610 560 L610 420 Z M610 140 L750 140 L750 280 L610 280 L610 140 Z M190 0 L610 0 L610 140 L190 140 L190 0 Z M190 700 L330 700 L330 840 L470 840 L470 980 L330 980 L330 840 L190 840 L190 700 Z M470 700 L610 700 L610 840 L470 840 L470 700 Z" glyph-name="Ccircumflex" horiz-adv-x="800" unicode="Ĉ"/><glyph d="M190 560 L610 560 L610 700 L190 700 L190 560 Z M50 140 L190 140 L190 560 L50 560 L50 140 Z M610 420 L750 420 L750 560 L610 560 L610 420 Z M610 140 L750 140 L750 280 L610 280 L610 140 Z M190 0 L610 0 L610 140 L190 140 L190 0 Z M190 700 L330 700 L330 840 L470 840 L470 980 L330 980 L330 840 L190 840 L190 700 Z M470 700 L610 700 L610 840 L470 840 L470 700 Z" glyph-name="ccircumflex" horiz-adv-x="800" unicode="ĉ"/><glyph d="M190 560 L610 560 L610 700 L190 700 L190 560 Z M50 140 L190 140 L190 560 L50 560 L50 140 Z M610 420 L750 420 L750 560 L610 560 L610 420 Z M610 140 L750 140 L750 280 L610 280 L610 140 Z M190 0 L610 0 L610 140 L190 140 L190 0 Z M330 840 L470 840 L470 980 L330 980 L330 840 Z" glyph-name="Cdotaccent" horiz-adv-x="800" unicode="Ċ"/><glyph d="M190 560 L610 560 L610 700 L190 700 L190 560 Z M50 140 L190 140 L190 560 L50 560 L50 140 Z M610 420 L750 420 L750 560 L610 560 L610 420 Z M610 140 L750 140 L750 280 L610 280 L610 140 Z M190 0 L610 0 L610 140 L190 140 L190 0 Z M330 840 L470 840 L470 980 L330 980 L330 840 Z" glyph-name="cdotaccent" horiz-adv-x="800" unicode="ċ"/><glyph d="M190 560 L610 560 L610 700 L190 700 L190 560 Z M50 140 L190 140 L190 560 L50 560 L50 140 Z M610 420 L750 420 L750 560 L610 560 L610 420 Z M610 140 L750 140 L750 280 L610 280 L610 140 Z M190 0 L610 0 L610 140 L190 140 L190 0 Z M190 840 L330 840 L330 700 L470 700 L470 840 L330 840 L330 980 L190 980 L190 840 Z M470 840 L610 840 L610 980 L470 980 L470 840 Z" glyph-name="Ccaron" horiz-adv-x="800" unicode="Č"/><glyph d="M190 560 L610 560 L610 700 L190 700 L190 560 Z M50 140 L190 140 L190 560 L50 560 L50 140 Z M610 420 L750 420 L750 560 L610 560 L610 420 Z M610 140 L750 140 L750 280 L610 280 L610 140 Z M190 0 L610 0 L610 140 L190 140 L190 0 Z M190 840 L330 840 L330 700 L470 700 L470 840 L330 840 L330 980 L190 980 L190 840 Z M470 840 L610 840 L610 980 L470 980 L470 840 Z" glyph-name="ccaron" horiz-adv-x="800" unicode="č"/><glyph d="M50 0 L610 0 L610 140 L190 140 L190 560 L610 560 L610 700 L50 700 L50 0 Z M610 140 L750 140 L750 560 L610 560 L610 140 Z M190 840 L330 840 L330 700 L470 700 L470 840 L330 840 L330 980 L190 980 L190 840 Z M470 840 L610 840 L610 980 L470 980 L470 840 Z" glyph-name="Dcaron" horiz-adv-x="800" unicode="Ď"/><glyph d="M50 0 L610 0 L610 140 L190 140 L190 560 L610 560 L610 700 L50 700 L50 0 Z M610 140 L750 140 L750 560 L610 560 L610 140 Z M190 840 L330 840 L330 700 L470 700 L470 840 L330 840 L330 980 L190 980 L190 840 Z M470 840 L610 840 L610 980 L470 980 L470 840 Z" glyph-name="dcaron" horiz-adv-x="800" unicode="ď"/><glyph d="M610 140 L750 140 L750 560 L610 560 L610 700 L190 700 L190 420 L50 420 L50 280 L190 280 L190 0 L610 0 L610 140 L330 140 L330 280 L470 280 L470 420 L330 420 L330 560 L610 560 L610 140 Z" glyph-name="Dcroat" horiz-adv-x="800" unicode="Đ"/><glyph d="M610 140 L750 140 L750 560 L610 560 L610 700 L190 700 L190 420 L50 420 L50 280 L190 280 L190 0 L610 0 L610 140 L330 140 L330 280 L470 280 L470 420 L330 420 L330 560 L610 560 L610 140 Z" glyph-name="dcroat" horiz-adv-x="800" unicode="đ"/><glyph d="M50 0 L750 0 L750 140 L190 140 L190 280 L470 280 L470 420 L190 420 L190 560 L750 560 L750 700 L50 700 L50 0 Z M190 840 L610 840 L610 980 L190 980 L190 840 Z" glyph-name="Emacron" horiz-adv-x="800" unicode="Ē"/><glyph d="M50 0 L750 0 L750 140 L190 140 L190 280 L470 280 L470 420 L190 420 L190 560 L750 560 L750 700 L50 700 L50 0 Z M190 840 L610 840 L610 980 L190 980 L190 840 Z" glyph-name="emacron" horiz-adv-x="800" unicode="ē"/><glyph d="M50 0 L750 0 L750 140 L190 140 L190 280 L470 280 L470 420 L190 420 L190 560 L750 560 L750 700 L50 700 L50 0 Z M190 840 L330 840 L330 700 L470 700 L470 840 L330 840 L330 980 L190 980 L190 840 Z M470 840 L610 840 L610 980 L470 980 L470 840 Z" glyph-name="Ebreve" horiz-adv-x="800" unicode="Ĕ"/><glyph d="M50 0 L750 0 L750 140 L190 140 L190 280 L470 280 L470 420 L190 420 L190 560 L750 560 L750 700 L50 700 L50 0 Z M190 840 L330 840 L330 700 L470 700 L470 840 L330 840 L330 980 L190 980 L190 840 Z M470 840 L610 840 L610 980 L470 980 L470 840 Z" glyph-name="ebreve" horiz-adv-x="800" unicode="ĕ"/><glyph d="M50 0 L750 0 L750 140 L190 140 L190 280 L470 280 L470 420 L190 420 L190 560 L750 560 L750 700 L50 700 L50 0 Z M330 840 L470 840 L470 980 L330 980 L330 840 Z" glyph-name="Edotaccent" horiz-adv-x="800" unicode="Ė"/><glyph d="M50 0 L750 0 L750 140 L190 140 L190 280 L470 280 L470 420 L190 420 L190 560 L750 560 L750 700 L50 700 L50 0 Z M330 840 L470 840 L470 980 L330 980 L330 840 Z" glyph-name="edotaccent" horiz-adv-x="800" unicode="ė"/><glyph d="M50 0 L750 0 L750 140 L190 140 L190 280 L470 280 L470 420 L190 420 L190 560 L750 560 L750 700 L50 700 L50 0 Z M750 -140 L610 -140 L610 0 L470 0 L470 -140 L610 -140 L610 -280 L750 -280 L750 -140 Z" glyph-name="Eogonek" horiz-adv-x="800" unicode="Ę"/><glyph d="M50 0 L750 0 L750 140 L190 140 L190 280 L470 280 L470 420 L190 420 L190 560 L750 560 L750 700 L50 700 L50 0 Z M750 -140 L610 -140 L610 0 L470 0 L470 -140 L610 -140 L610 -280 L750 -280 L750 -140 Z" glyph-name="eogonek" horiz-adv-x="800" unicode="ę"/><glyph d="M50 0 L750 0 L750 140 L190 140 L190 280 L470 280 L470 420 L190 420 L190 560 L750 560 L750 700 L50 700 L50 0 Z M190 840 L330 840 L330 700 L470 700 L470 840 L330 840 L330 980 L190 980 L190 840 Z M470 840 L610 840 L610 980 L470 980 L470 840 Z" glyph-name="Ecaron" horiz-adv-x="800" unicode="Ě"/><glyph d="M50 0 L750 0 L750 140 L190 140 L190 280 L470 280 L470 420 L190 420 L190 560 L750 560 L750 700 L50 700 L50 0 Z M190 840 L330 840 L330 700 L470 700 L470 840 L330 840 L330 980 L190 980 L190 840 Z M470 840 L610 840 L610 980 L470 980 L470 840 Z" glyph-name="ecaron" horiz-adv-x="800" unicode="ě"/><glyph d="M190 0 L750 0 L750 420 L470 420 L470 280 L610 280 L610 140 L190 140 L190 560 L50 560 L50 140 L190 140 L190 0 Z M190 560 L750 560 L750 700 L190 700 L190 560 Z M260 700 L400 700 L400 840 L540 840 L540 980 L400 980 L400 840 L260 840 L260 700 Z M540 700 L680 700 L680 840 L540 840 L540 700 Z" glyph-name="Gcircumflex" horiz-adv-x="800" unicode="Ĝ"/><glyph d="M190 0 L750 0 L750 420 L470 420 L470 280 L610 280 L610 140 L190 140 L190 560 L50 560 L50 140 L190 140 L190 0 Z M190 560 L750 560 L750 700 L190 700 L190 560 Z M260 700 L400 700 L400 840 L540 840 L540 980 L400 980 L400 840 L260 840 L260 700 Z M540 700 L680 700 L680 840 L540 840 L540 700 Z" glyph-name="gcircumflex" horiz-adv-x="800" unicode="ĝ"/><glyph d="M190 0 L750 0 L750 420 L470 420 L470 280 L610 280 L610 140 L190 140 L190 560 L50 560 L50 140 L190 140 L190 0 Z M190 560 L750 560 L750 700 L190 700 L190 560 Z M260 840 L400 840 L400 700 L540 700 L540 840 L400 840 L400 980 L260 980 L260 840 Z M540 840 L680 840 L680 980 L540 980 L540 840 Z" glyph-name="Gbreve" horiz-adv-x="800" unicode="Ğ"/><glyph d="M190 0 L750 0 L750 420 L470 420 L470 280 L610 280 L610 140 L190 140 L190 560 L50 560 L50 140 L190 140 L190 0 Z M190 560 L750 560 L750 700 L190 700 L190 560 Z M260 840 L400 840 L400 700 L540 700 L540 840 L400 840 L400 980 L260 980 L260 840 Z M540 840 L680 840 L680 980 L540 980 L540 840 Z" glyph-name="gbreve" horiz-adv-x="800" unicode="ğ"/><glyph d="M190 0 L750 0 L750 420 L470 420 L470 280 L610 280 L610 140 L190 140 L190 560 L50 560 L50 140 L190 140 L190 0 Z M190 560 L750 560 L750 700 L190 700 L190 560 Z M400 840 L540 840 L540 980 L400 980 L400 840 Z" glyph-name="Gdotaccent" horiz-adv-x="800" unicode="Ġ"/><glyph d="M190 0 L750 0 L750 420 L470 420 L470 280 L610 280 L610 140 L190 140 L190 560 L50 560 L50 140 L190 140 L190 0 Z M190 560 L750 560 L750 700 L190 700 L190 560 Z M400 840 L540 840 L540 980 L400 980 L400 840 Z" glyph-name="gdotaccent" horiz-adv-x="800" unicode="ġ"/><glyph d="M190 0 L400 0 L400 -250 L540 -250 L540 0 L750 0 L750 420 L470 420 L470 280 L610 280 L610 140 L190 140 L190 560 L50 560 L50 140 L190 140 L190 0 Z M190 560 L750 560 L750 700 L190 700 L190 560 Z" glyph-name="Gcommaaccent" horiz-adv-x="800" unicode="Ģ"/><glyph d="M190 0 L400 0 L400 -250 L540 -250 L540 0 L750 0 L750 420 L470 420 L470 280 L610 280 L610 140 L190 140 L190 560 L50 560 L50 140 L190 140 L190 0 Z M190 560 L750 560 L750 700 L190 700 L190 560 Z" glyph-name="gcommaaccent" horiz-adv-x="800" unicode="ģ"/><glyph d="M50 0 L190 0 L190 280 L610 280 L610 0 L750 0 L750 700 L610 700 L610 420 L190 420 L190 700 L50 700 L50 0 Z M190 700 L330 700 L330 840 L470 840 L470 980 L330 980 L330 840 L190 840 L190 700 Z M470 700 L610 700 L610 840 L470 840 L470 700 Z" glyph-name="Hcircumflex" horiz-adv-x="800" unicode="Ĥ"/><glyph d="M50 0 L190 0 L190 280 L610 280 L610 0 L750 0 L750 700 L610 700 L610 420 L190 420 L190 700 L50 700 L50 0 Z M190 700 L330 700 L330 840 L470 840 L470 980 L330 980 L330 840 L190 840 L190 700 Z M470 700 L610 700 L610 840 L470 840 L470 700 Z" glyph-name="hcircumflex" horiz-adv-x="800" unicode="ĥ"/><glyph d="M50 420 L190 420 L190 0 L330 0 L330 140 L610 140 L610 0 L750 0 L750 420 L890 420 L890 560 L750 560 L750 700 L610 700 L610 560 L330 560 L330 700 L190 700 L190 560 L50 560 L50 420 Z M330 280 L330 420 L610 420 L610 280 L330 280 Z" glyph-name="Hbar" horiz-adv-x="940" unicode="Ħ"/><glyph d="M50 420 L190 420 L190 0 L330 0 L330 140 L610 140 L610 0 L750 0 L750 420 L890 420 L890 560 L750 560 L750 700 L610 700 L610 560 L330 560 L330 700 L190 700 L190 560 L50 560 L50 420 Z M330 280 L330 420 L610 420 L610 280 L330 280 Z" glyph-name="hbar" horiz-adv-x="940" unicode="ħ"/><glyph d="M50 560 L190 560 L190 140 L50 140 L50 0 L470 0 L470 140 L330 140 L330 560 L470 560 L470 700 L50 700 L50 560 Z M260 980 L120 980 L120 840 L260 840 L260 980 Z M120 840 L-20 840 L-20 700 L120 700 L120 840 Z M540 980 L400 980 L400 840 L540 840 L540 980 Z M400 840 L260 840 L260 700 L400 700 L400 840 Z" glyph-name="Itilde" horiz-adv-x="520" unicode="Ĩ"/><glyph d="M50 560 L190 560 L190 140 L50 140 L50 0 L470 0 L470 140 L330 140 L330 560 L470 560 L470 700 L50 700 L50 560 Z M260 980 L120 980 L120 840 L260 840 L260 980 Z M120 840 L-20 840 L-20 700 L120 700 L120 840 Z M540 980 L400 980 L400 840 L540 840 L540 980 Z M400 840 L260 840 L260 700 L400 700 L400 840 Z" glyph-name="itilde" horiz-adv-x="520" unicode="ĩ"/><glyph d="M50 560 L190 560 L190 140 L50 140 L50 0 L470 0 L470 140 L330 140 L330 560 L470 560 L470 700 L50 700 L50 560 Z M50 840 L470 840 L470 980 L50 980 L50 840 Z" glyph-name="Imacron" horiz-adv-x="520" unicode="Ī"/><glyph d="M50 560 L190 560 L190 140 L50 140 L50 0 L470 0 L470 140 L330 140 L330 560 L470 560 L470 700 L50 700 L50 560 Z M50 840 L470 840 L470 980 L50 980 L50 840 Z" glyph-name="imacron" horiz-adv-x="520" unicode="ī"/><glyph d="M50 560 L190 560 L190 140 L50 140 L50 0 L470 0 L470 140 L330 140 L330 560 L470 560 L470 700 L50 700 L50 560 Z M50 840 L190 840 L190 700 L330 700 L330 840 L190 840 L190 980 L50 980 L50 840 Z M330 840 L470 840 L470 980 L330 980 L330 840 Z" glyph-name="Ibreve" horiz-adv-x="520" unicode="Ĭ"/><glyph d="M50 560 L190 560 L190 140 L50 140 L50 0 L470 0 L470 140 L330 140 L330 560 L470 560 L470 700 L50 700 L50 560 Z M50 840 L190 840 L190 700 L330 700 L330 840 L190 840 L190 980 L50 980 L50 840 Z M330 840 L470 840 L470 980 L330 980 L330 840 Z" glyph-name="ibreve" horiz-adv-x="520" unicode="ĭ"/><glyph d="M50 560 L190 560 L190 140 L50 140 L50 0 L470 0 L470 140 L330 140 L330 560 L470 560 L470 700 L50 700 L50 560 Z M470 -140 L330 -140 L330 0 L190 0 L190 -140 L330 -140 L330 -280 L470 -280 L470 -140 Z" glyph-name="Iogonek" horiz-adv-x="520" unicode="Į"/><glyph d="M50 560 L190 560 L190 140 L50 140 L50 0 L470 0 L470 140 L330 140 L330 560 L470 560 L470 700 L50 700 L50 560 Z M470 -140 L330 -140 L330 0 L190 0 L190 -140 L330 -140 L330 -280 L470 -280 L470 -140 Z" glyph-name="iogonek" horiz-adv-x="520" unicode="į"/><glyph d="M50 560 L190 560 L190 140 L50 140 L50 0 L470 0 L470 140 L330 140 L330 560 L470 560 L470 700 L50 700 L50 560 Z M190 840 L330 840 L330 980 L190 980 L190 840 Z" glyph-name="Idotaccent" horiz-adv-x="520" unicode="İ"/><glyph d="M50 560 L190 560 L190 140 L50 140 L50 0 L470 0 L470 140 L330 140 L330 560 L470 560 L470 700 L50 700 L50 560 Z" glyph-name="dotlessi" horiz-adv-x="520" unicode="ı"/><glyph d="M50 560 L190 560 L190 140 L50 140 L50 0 L470 0 L470 140 L330 140 L330 560 L470 560 L470 700 L50 700 L50 560 Z M610 560 L1030 560 L1030 140 L1170 140 L1170 700 L610 700 L610 560 Z M610 0 L1030 0 L1030 140 L610 140 L610 280 L470 280 L470 140 L610 140 L610 0 Z" glyph-name="IJ" horiz-adv-x="1220" unicode="Ĳ"/><glyph d="M50 560 L190 560 L190 140 L50 140 L50 0 L470 0 L470 140 L330 140 L330 560 L470 560 L470 700 L50 700 L50 560 Z M610 560 L1030 560 L1030 140 L1170 140 L1170 700 L610 700 L610 560 Z M610 0 L1030 0 L1030 140 L610 140 L610 280 L470 280 L470 140 L610 140 L610 0 Z" glyph-name="ij" horiz-adv-x="1220" unicode="ĳ"/><glyph d="M190 560 L610 560 L610 140 L750 140 L750 700 L190 700 L190 560 Z M190 0 L610 0 L610 140 L190 140 L190 280 L50 280 L50 140 L190 140 L190 0 Z M190 700 L330 700 L330 840 L470 840 L470 980 L330 980 L330 840 L190 840 L190 700 Z M470 700 L610 700 L610 840 L470 840 L470 700 Z" glyph-name="Jcircumflex" horiz-adv-x="800" unicode="Ĵ"/><glyph d="M190 560 L610 560 L610 140 L750 140 L750 700 L190 700 L190 560 Z M190 0 L610 0 L610 140 L190 140 L190 280 L50 280 L50 140 L190 140 L190 0 Z M190 700 L330 700 L330 840 L470 840 L470 980 L330 980 L330 840 L190 840 L190 700 Z M470 700 L610 700 L610 840 L470 840 L470 700 Z" glyph-name="jcircumflex" horiz-adv-x="800" unicode="ĵ"/><glyph d="M610 560 L750 560 L750 700 L610 700 L610 560 Z M470 420 L610 420 L610 560 L470 560 L470 420 Z M470 140 L610 140 L610 280 L470 280 L470 140 Z M610 0 L750 0 L750 140 L610 140 L610 0 Z M190 420 L190 700 L50 700 L50 0 L190 0 L190 280 L470 280 L470 420 L190 420 Z M470 -250 L470 0 L330 0 L330 -250 L470 -250 Z" glyph-name="Kcommaaccent" horiz-adv-x="800" unicode="Ķ"/><glyph d="M610 560 L750 560 L750 700 L610 700 L610 560 Z M470 420 L610 420 L610 560 L470 560 L470 420 Z M470 140 L610 140 L610 280 L470 280 L470 140 Z M610 0 L750 0 L750 140 L610 140 L610 0 Z M190 420 L190 700 L50 700 L50 0 L190 0 L190 280 L470 280 L470 420 L190 420 Z M470 -250 L470 0 L330 0 L330 -250 L470 -250 Z" glyph-name="kcommaaccent" horiz-adv-x="800" unicode="ķ"/><glyph d="M610 560 L750 560 L750 700 L610 700 L610 560 Z M470 420 L610 420 L610 560 L470 560 L470 420 Z M470 140 L610 140 L610 280 L470 280 L470 140 Z M610 0 L750 0 L750 140 L610 140 L610 0 Z M190 420 L190 700 L50 700 L50 0 L190 0 L190 280 L470 280 L470 420 L190 420 Z" glyph-name="kgreenlandic" horiz-adv-x="800" unicode="ĸ"/><glyph d="M50 0 L750 0 L750 140 L190 140 L190 700 L50 700 L50 0 Z M610 980 L470 980 L470 840 L610 840 L610 980 Z M470 840 L330 840 L330 700 L470 700 L470 840 Z" glyph-name="Lacute" horiz-adv-x="800" unicode="Ĺ"/><glyph d="M50 0 L750 0 L750 140 L190 140 L190 700 L50 700 L50 0 Z M610 980 L470 980 L470 840 L610 840 L610 980 Z M470 840 L330 840 L330 700 L470 700 L470 840 Z" glyph-name="lacute" horiz-adv-x="800" unicode="ĺ"/><glyph d="M50 0 L750 0 L750 140 L190 140 L190 700 L50 700 L50 0 Z M470 -250 L470 0 L330 0 L330 -250 L470 -250 Z" glyph-name="Lcommaaccent" horiz-adv-x="800" unicode="Ļ"/><glyph d="M50 0 L750 0 L750 140 L190 140 L190 700 L50 700 L50 0 Z M470 -250 L470 0 L330 0 L330 -250 L470 -250 Z" glyph-name="lcommaaccent" horiz-adv-x="800" unicode="ļ"/><glyph d="M50 0 L750 0 L750 140 L190 140 L190 700 L50 700 L50 0 Z M470 420 L610 420 L610 700 L470 700 L470 420 Z" glyph-name="Lcaron" horiz-adv-x="800" unicode="Ľ"/><glyph d="M50 0 L750 0 L750 140 L190 140 L190 700 L50 700 L50 0 Z M470 420 L610 420 L610 700 L470 700 L470 420 Z" glyph-name="lcaron" horiz-adv-x="800" unicode="ľ"/><glyph d="M50 0 L750 0 L750 140 L190 140 L190 700 L50 700 L50 0 Z M470 420 L610 420 L610 560 L470 560 L470 420 Z" glyph-name="Ldot" horiz-adv-x="800" unicode="Ŀ"/><glyph d="M50 0 L750 0 L750 140 L190 140 L190 700 L50 700 L50 0 Z M470 420 L610 420 L610 560 L470 560 L470 420 Z" glyph-name="ldot" horiz-adv-x="800" unicode="ŀ"/><glyph d="M330 420 L470 420 L470 560 L330 560 L330 700 L190 700 L190 420 L50 420 L50 280 L190 280 L190 0 L750 0 L750 140 L330 140 L330 420 Z" glyph-name="Lslash" horiz-adv-x="800" unicode="Ł"/><glyph d="M330 420 L470 420 L470 560 L330 560 L330 700 L190 700 L190 420 L50 420 L50 280 L190 280 L190 0 L750 0 L750 140 L330 140 L330 420 Z" glyph-name="lslash" horiz-adv-x="800" unicode="ł"/><glyph d="M50 0 L190 0 L190 420 L330 420 L330 560 L190 560 L190 700 L50 700 L50 0 Z M610 280 L470 280 L470 140 L610 140 L610 0 L750 0 L750 700 L610 700 L610 280 Z M330 280 L470 280 L470 420 L330 420 L330 280 Z M610 980 L470 980 L470 840 L610 840 L610 980 Z M470 840 L330 840 L330 700 L470 700 L470 840 Z" glyph-name="Nacute" horiz-adv-x="800" unicode="Ń"/><glyph d="M50 0 L190 0 L190 420 L330 420 L330 560 L190 560 L190 700 L50 700 L50 0 Z M610 280 L470 280 L470 140 L610 140 L610 0 L750 0 L750 700 L610 700 L610 280 Z M330 280 L470 280 L470 420 L330 420 L330 280 Z M610 980 L470 980 L470 840 L610 840 L610 980 Z M470 840 L330 840 L330 700 L470 700 L470 840 Z" glyph-name="nacute" horiz-adv-x="800" unicode="ń"/><glyph d="M50 0 L190 0 L190 420 L330 420 L330 560 L190 560 L190 700 L50 700 L50 0 Z M610 280 L470 280 L470 140 L610 140 L610 0 L750 0 L750 700 L610 700 L610 280 Z M330 280 L470 280 L470 420 L330 420 L330 280 Z M470 -250 L470 0 L330 0 L330 -250 L470 -250 Z" glyph-name="Ncommaaccent" horiz-adv-x="800" unicode="Ņ"/><glyph d="M50 0 L190 0 L190 420 L330 420 L330 560 L190 560 L190 700 L50 700 L50 0 Z M610 280 L470 280 L470 140 L610 140 L610 0 L750 0 L750 700 L610 700 L610 280 Z M330 280 L470 280 L470 420 L330 420 L330 280 Z M470 -250 L470 0 L330 0 L330 -250 L470 -250 Z" glyph-name="ncommaaccent" horiz-adv-x="800" unicode="ņ"/><glyph d="M50 0 L190 0 L190 420 L330 420 L330 560 L190 560 L190 700 L50 700 L50 0 Z M610 280 L470 280 L470 140 L610 140 L610 0 L750 0 L750 700 L610 700 L610 280 Z M330 280 L470 280 L470 420 L330 420 L330 280 Z M190 840 L330 840 L330 700 L470 700 L470 840 L330 840 L330 980 L190 980 L190 840 Z M470 840 L610 840 L610 980 L470 980 L470 840 Z" glyph-name="Ncaron" horiz-adv-x="800" unicode="Ň"/><glyph d="M50 0 L190 0 L190 420 L330 420 L330 560 L190 560 L190 700 L50 700 L50 0 Z M610 280 L470 280 L470 140 L610 140 L610 0 L750 0 L750 700 L610 700 L610 280 Z M330 280 L470 280 L470 420 L330 420 L330 280 Z M190 840 L330 840 L330 700 L470 700 L470 840 L330 840 L330 980 L190 980 L190 840 Z M470 840 L610 840 L610 980 L470 980 L470 840 Z" glyph-name="ncaron" horiz-adv-x="800" unicode="ň"/><glyph d="M330 280 L470 280 L470 140 L610 140 L610 0 L750 0 L750 700 L610 700 L610 280 L470 280 L470 420 L330 420 L330 560 L190 560 L190 700 L50 700 L50 0 L190 0 L190 420 L330 420 L330 280 Z M330 -140 L610 -140 L610 0 L330 0 L330 -140 Z" glyph-name="Eng" horiz-adv-x="800" unicode="Ŋ"/><glyph d="M330 280 L470 280 L470 140 L610 140 L610 0 L750 0 L750 700 L610 700 L610 280 L470 280 L470 420 L330 420 L330 560 L190 560 L190 700 L50 700 L50 0 L190 0 L190 420 L330 420 L330 280 Z M330 -140 L610 -140 L610 0 L330 0 L330 -140 Z" glyph-name="eng" horiz-adv-x="800" unicode="ŋ"/><glyph d="M190 560 L610 560 L610 700 L190 700 L190 560 Z M50 140 L190 140 L190 560 L50 560 L50 140 Z M610 140 L750 140 L750 560 L610 560 L610 140 Z M190 0 L610 0 L610 140 L190 140 L190 0 Z M190 840 L610 840 L610 980 L190 980 L190 840 Z" glyph-name="Omacron" horiz-adv-x="800" unicode="Ō"/><glyph d="M190 560 L610 560 L610 700 L190 700 L190 560 Z M50 140 L190 140 L190 560 L50 560 L50 140 Z M610 140 L750 140 L750 560 L610 560 L610 140 Z M190 0 L610 0 L610 140 L190 140 L190 0 Z M190 840 L610 840 L610 980 L190 980 L190 840 Z" glyph-name="omacron" horiz-adv-x="800" unicode="ō"/><glyph d="M190 560 L610 560 L610 700 L190 700 L190 560 Z M50 140 L190 140 L190 560 L50 560 L50 140 Z M610 140 L750 140 L750 560 L610 560 L610 140 Z M190 0 L610 0 L610 140 L190 140 L190 0 Z M190 840 L330 840 L330 700 L470 700 L470 840 L330 840 L330 980 L190 980 L190 840 Z M470 840 L610 840 L610 980 L470 980 L470 840 Z" glyph-name="Obreve" horiz-adv-x="800" unicode="Ŏ"/><glyph d="M190 560 L610 560 L610 700 L190 700 L190 560 Z M50 140 L190 140 L190 560 L50 560 L50 140 Z M610 140 L750 140 L750 560 L610 560 L610 140 Z M190 0 L610 0 L610 140 L190 140 L190 0 Z M190 840 L330 840 L330 700 L470 700 L470 840 L330 840 L330 980 L190 980 L190 840 Z M470 840 L610 840 L610 980 L470 980 L470 840 Z" glyph-name="obreve" horiz-adv-x="800" unicode="ŏ"/><glyph d="M190 560 L610 560 L610 700 L190 700 L190 560 Z M50 140 L190 140 L190 560 L50 560 L50 140 Z M610 140 L750 140 L750 560 L610 560 L610 140 Z M190 0 L610 0 L610 140 L190 140 L190 0 Z M190 700 L330 700 L330 980 L190 980 L190 700 Z M610 980 L470 980 L470 700 L610 700 L610 980 Z" glyph-name="Ohungarumlaut" horiz-adv-x="800" unicode="Ő"/><glyph d="M190 560 L610 560 L610 700 L190 700 L190 560 Z M50 140 L190 140 L190 560 L50 560 L50 140 Z M610 140 L750 140 L750 560 L610 560 L610 140 Z M190 0 L610 0 L610 140 L190 140 L190 0 Z M190 700 L330 700 L330 980 L190 980 L190 700 Z M610 980 L470 980 L470 700 L610 700 L610 980 Z" glyph-name="ohungarumlaut" horiz-adv-x="800" unicode="ő"/><glyph d="M50 140 L190 140 L190 0 L1310 0 L1310 140 L750 140 L750 280 L1030 280 L1030 420 L750 420 L750 560 L1310 560 L1310 700 L190 700 L190 560 L50 560 L50 140 Z M190 560 L610 560 L610 140 L190 140 L190 560 Z" glyph-name="OE" horiz-adv-x="1360" unicode="Œ"/><glyph d="M50 140 L190 140 L190 0 L1310 0 L1310 140 L750 140 L750 280 L1030 280 L1030 420 L750 420 L750 560 L1310 560 L1310 700 L190 700 L190 560 L50 560 L50 140 Z M190 560 L610 560 L610 140 L190 140 L190 560 Z" glyph-name="oe" horiz-adv-x="1360" unicode="œ"/><glyph d="M50 0 L190 0 L190 280 L610 280 L610 420 L190 420 L190 560 L610 560 L610 700 L50 700 L50 0 Z M610 420 L750 420 L750 560 L610 560 L610 420 Z M610 0 L750 0 L750 280 L610 280 L610 0 Z M610 980 L470 980 L470 840 L610 840 L610 980 Z M470 840 L330 840 L330 700 L470 700 L470 840 Z" glyph-name="Racute" horiz-adv-x="800" unicode="Ŕ"/><glyph d="M50 0 L190 0 L190 280 L610 280 L610 420 L190 420 L190 560 L610 560 L610 700 L50 700 L50 0 Z M610 420 L750 420 L750 560 L610 560 L610 420 Z M610 0 L750 0 L750 280 L610 280 L610 0 Z M610 980 L470 980 L470 840 L610 840 L610 980 Z M470 840 L330 840 L330 700 L470 700 L470 840 Z" glyph-name="racute" horiz-adv-x="800" unicode="ŕ"/><glyph d="M50 0 L190 0 L190 280 L610 280 L610 420 L190 420 L190 560 L610 560 L610 700 L50 700 L50 0 Z M610 420 L750 420 L750 560 L610 560 L610 420 Z M610 0 L750 0 L750 280 L610 280 L610 0 Z M470 -250 L470 0 L330 0 L330 -250 L470 -250 Z" glyph-name="Rcommaaccent" horiz-adv-x="800" unicode="Ŗ"/><glyph d="M50 0 L190 0 L190 280 L610 280 L610 420 L190 420 L190 560 L610 560 L610 700 L50 700 L50 0 Z M610 420 L750 420 L750 560 L610 560 L610 420 Z M610 0 L750 0 L750 280 L610 280 L610 0 Z M470 -250 L470 0 L330 0 L330 -250 L470 -250 Z" glyph-name="rcommaaccent" horiz-adv-x="800" unicode="ŗ"/><glyph d="M50 0 L190 0 L190 280 L610 280 L610 420 L190 420 L190 560 L610 560 L610 700 L50 700 L50 0 Z M610 420 L750 420 L750 560 L610 560 L610 420 Z M610 0 L750 0 L750 280 L610 280 L610 0 Z M190 840 L330 840 L330 700 L470 700 L470 840 L330 840 L330 980 L190 980 L190 840 Z M470 840 L610 840 L610 980 L470 980 L470 840 Z" glyph-name="Rcaron" horiz-adv-x="800" unicode="Ř"/><glyph d="M50 0 L190 0 L190 280 L610 280 L610 420 L190 420 L190 560 L610 560 L610 700 L50 700 L50 0 Z M610 420 L750 420 L750 560 L610 560 L610 420 Z M610 0 L750 0 L750 280 L610 280 L610 0 Z M190 840 L330 840 L330 700 L470 700 L470 840 L330 840 L330 980 L190 980 L190 840 Z M470 840 L610 840 L610 980 L470 980 L470 840 Z" glyph-name="rcaron" horiz-adv-x="800" unicode="ř"/><glyph d="M190 560 L750 560 L750 700 L190 700 L190 560 Z M50 420 L190 420 L190 560 L50 560 L50 420 Z M190 280 L610 280 L610 420 L190 420 L190 280 Z M610 140 L750 140 L750 280 L610 280 L610 140 Z M50 0 L610 0 L610 140 L50 140 L50 0 Z M610 980 L470 980 L470 840 L610 840 L610 980 Z M470 840 L330 840 L330 700 L470 700 L470 840 Z" glyph-name="Sacute" horiz-adv-x="800" unicode="Ś"/><glyph d="M190 560 L750 560 L750 700 L190 700 L190 560 Z M50 420 L190 420 L190 560 L50 560 L50 420 Z M190 280 L610 280 L610 420 L190 420 L190 280 Z M610 140 L750 140 L750 280 L610 280 L610 140 Z M50 0 L610 0 L610 140 L50 140 L50 0 Z M610 980 L470 980 L470 840 L610 840 L610 980 Z M470 840 L330 840 L330 700 L470 700 L470 840 Z" glyph-name="sacute" horiz-adv-x="800" unicode="ś"/><glyph d="M190 560 L750 560 L750 700 L190 700 L190 560 Z M50 420 L190 420 L190 560 L50 560 L50 420 Z M190 280 L610 280 L610 420 L190 420 L190 280 Z M610 140 L750 140 L750 280 L610 280 L610 140 Z M50 0 L610 0 L610 140 L50 140 L50 0 Z M190 700 L330 700 L330 840 L470 840 L470 980 L330 980 L330 840 L190 840 L190 700 Z M470 700 L610 700 L610 840 L470 840 L470 700 Z" glyph-name="Scircumflex" horiz-adv-x="800" unicode="Ŝ"/><glyph d="M190 560 L750 560 L750 700 L190 700 L190 560 Z M50 420 L190 420 L190 560 L50 560 L50 420 Z M190 280 L610 280 L610 420 L190 420 L190 280 Z M610 140 L750 140 L750 280 L610 280 L610 140 Z M50 0 L610 0 L610 140 L50 140 L50 0 Z M190 700 L330 700 L330 840 L470 840 L470 980 L330 980 L330 840 L190 840 L190 700 Z M470 700 L610 700 L610 840 L470 840 L470 700 Z" glyph-name="scircumflex" horiz-adv-x="800" unicode="ŝ"/><glyph d="M190 560 L750 560 L750 700 L190 700 L190 560 Z M50 420 L190 420 L190 560 L50 560 L50 420 Z M190 280 L610 280 L610 420 L190 420 L190 280 Z M610 140 L750 140 L750 280 L610 280 L610 140 Z M50 0 L610 0 L610 140 L50 140 L50 0 Z M470 0 L330 0 L330 -140 L470 -140 L470 0 Z M190 -280 L330 -280 L330 -140 L190 -140 L190 -280 Z" glyph-name="Scedilla" horiz-adv-x="800" unicode="Ş"/><glyph d="M190 560 L750 560 L750 700 L190 700 L190 560 Z M50 420 L190 420 L190 560 L50 560 L50 420 Z M190 280 L610 280 L610 420 L190 420 L190 280 Z M610 140 L750 140 L750 280 L610 280 L610 140 Z M50 0 L610 0 L610 140 L50 140 L50 0 Z M470 0 L330 0 L330 -140 L470 -140 L470 0 Z M190 -280 L330 -280 L330 -140 L190 -140 L190 -280 Z" glyph-name="scedilla" horiz-adv-x="800" unicode="ş"/><glyph d="M190 560 L750 560 L750 700 L190 700 L190 560 Z M50 420 L190 420 L190 560 L50 560 L50 420 Z M190 280 L610 280 L610 420 L190 420 L190 280 Z M610 140 L750 140 L750 280 L610 280 L610 140 Z M50 0 L610 0 L610 140 L50 140 L50 0 Z M260 840 L400 840 L400 700 L540 700 L540 840 L400 840 L400 980 L260 980 L260 840 Z M540 840 L680 840 L680 980 L540 980 L540 840 Z" glyph-name="Scaron" horiz-adv-x="800" unicode="Š"/><glyph d="M190 560 L750 560 L750 700 L190 700 L190 560 Z M50 420 L190 420 L190 560 L50 560 L50 420 Z M190 280 L610 280 L610 420 L190 420 L190 280 Z M610 140 L750 140 L750 280 L610 280 L610 140 Z M50 0 L610 0 L610 140 L50 140 L50 0 Z M260 840 L400 840 L400 700 L540 700 L540 840 L400 840 L400 980 L260 980 L260 840 Z M540 840 L680 840 L680 980 L540 980 L540 840 Z" glyph-name="scaron" horiz-adv-x="800" unicode="š"/><glyph d="M50 560 L330 560 L330 0 L470 0 L470 560 L750 560 L750 700 L50 700 L50 560 Z M470 0 L330 0 L330 -140 L470 -140 L470 0 Z M190 -280 L330 -280 L330 -140 L190 -140 L190 -280 Z" glyph-name="Tcommaaccent" horiz-adv-x="800" unicode="Ţ"/><glyph d="M50 560 L330 560 L330 0 L470 0 L470 560 L750 560 L750 700 L50 700 L50 560 Z M470 0 L330 0 L330 -140 L470 -140 L470 0 Z M190 -280 L330 -280 L330 -140 L190 -140 L190 -280 Z" glyph-name="tcommaaccent" horiz-adv-x="800" unicode="ţ"/><glyph d="M50 560 L330 560 L330 0 L470 0 L470 560 L750 560 L750 700 L50 700 L50 560 Z M190 840 L330 840 L330 700 L470 700 L470 840 L330 840 L330 980 L190 980 L190 840 Z M470 840 L610 840 L610 980 L470 980 L470 840 Z" glyph-name="Tcaron" horiz-adv-x="800" unicode="Ť"/><glyph d="M50 560 L330 560 L330 0 L470 0 L470 560 L750 560 L750 700 L50 700 L50 560 Z M190 840 L330 840 L330 700 L470 700 L470 840 L330 840 L330 980 L190 980 L190 840 Z M470 840 L610 840 L610 980 L470 980 L470 840 Z" glyph-name="tcaron" horiz-adv-x="800" unicode="ť"/><glyph d="M190 280 L330 280 L330 0 L470 0 L470 280 L610 280 L610 420 L470 420 L470 560 L750 560 L750 700 L50 700 L50 560 L330 560 L330 420 L190 420 L190 280 Z" glyph-name="Tbar" horiz-adv-x="800" unicode="Ŧ"/><glyph d="M190 280 L330 280 L330 0 L470 0 L470 280 L610 280 L610 420 L470 420 L470 560 L750 560 L750 700 L50 700 L50 560 L330 560 L330 420 L190 420 L190 280 Z" glyph-name="tbar" horiz-adv-x="800" unicode="ŧ"/><glyph d="M50 140 L190 140 L190 700 L50 700 L50 140 Z M610 140 L750 140 L750 700 L610 700 L610 140 Z M190 0 L610 0 L610 140 L190 140 L190 0 Z M470 980 L330 980 L330 840 L470 840 L470 980 Z M330 840 L190 840 L190 700 L330 700 L330 840 Z M750 980 L610 980 L610 840 L750 840 L750 980 Z M610 840 L470 840 L470 700 L610 700 L610 840 Z" glyph-name="Utilde" horiz-adv-x="800" unicode="Ũ"/><glyph d="M50 140 L190 140 L190 700 L50 700 L50 140 Z M610 140 L750 140 L750 700 L610 700 L610 140 Z M190 0 L610 0 L610 140 L190 140 L190 0 Z M470 980 L330 980 L330 840 L470 840 L470 980 Z M330 840 L190 840 L190 700 L330 700 L330 840 Z M750 980 L610 980 L610 840 L750 840 L750 980 Z M610 840 L470 840 L470 700 L610 700 L610 840 Z" glyph-name="utilde" horiz-adv-x="800" unicode="ũ"/><glyph d="M50 140 L190 140 L190 700 L50 700 L50 140 Z M610 140 L750 140 L750 700 L610 700 L610 140 Z M190 0 L610 0 L610 140 L190 140 L190 0 Z M190 840 L610 840 L610 980 L190 980 L190 840 Z" glyph-name="Umacron" horiz-adv-x="800" unicode="Ū"/><glyph d="M50 140 L190 140 L190 700 L50 700 L50 140 Z M610 140 L750 140 L750 700 L610 700 L610 140 Z M190 0 L610 0 L610 140 L190 140 L190 0 Z M190 840 L610 840 L610 980 L190 980 L190 840 Z" glyph-name="umacron" horiz-adv-x="800" unicode="ū"/><glyph d="M50 140 L190 140 L190 700 L50 700 L50 140 Z M610 140 L750 140 L750 700 L610 700 L610 140 Z M190 0 L610 0 L610 140 L190 140 L190 0 Z M190 840 L330 840 L330 700 L470 700 L470 840 L330 840 L330 980 L190 980 L190 840 Z M470 840 L610 840 L610 980 L470 980 L470 840 Z" glyph-name="Ubreve" horiz-adv-x="800" unicode="Ŭ"/><glyph d="M50 140 L190 140 L190 700 L50 700 L50 140 Z M610 140 L750 140 L750 700 L610 700 L610 140 Z M190 0 L610 0 L610 140 L190 140 L190 0 Z M190 840 L330 840 L330 700 L470 700 L470 840 L330 840 L330 980 L190 980 L190 840 Z M470 840 L610 840 L610 980 L470 980 L470 840 Z" glyph-name="ubreve" horiz-adv-x="800" unicode="ŭ"/><glyph d="M50 140 L190 140 L190 700 L50 700 L50 140 Z M610 140 L750 140 L750 700 L610 700 L610 140 Z M190 0 L610 0 L610 140 L190 140 L190 0 Z M190 840 L330 840 L330 700 L470 700 L470 840 L330 840 L330 980 L190 980 L190 840 Z M330 980 L470 980 L470 840 L610 840 L610 980 L470 980 L470 1120 L330 1120 L330 980 Z" glyph-name="Uring" horiz-adv-x="800" unicode="Ů"/><glyph d="M50 140 L190 140 L190 700 L50 700 L50 140 Z M610 140 L750 140 L750 700 L610 700 L610 140 Z M190 0 L610 0 L610 140 L190 140 L190 0 Z M190 840 L330 840 L330 700 L470 700 L470 840 L330 840 L330 980 L190 980 L190 840 Z M330 980 L470 980 L470 840 L610 840 L610 980 L470 980 L470 1120 L330 1120 L330 980 Z" glyph-name="uring" horiz-adv-x="800" unicode="ů"/><glyph d="M50 140 L190 140 L190 700 L50 700 L50 140 Z M610 140 L750 140 L750 700 L610 700 L610 140 Z M190 0 L610 0 L610 140 L190 140 L190 0 Z M190 700 L330 700 L330 980 L190 980 L190 700 Z M610 980 L470 980 L470 700 L610 700 L610 980 Z" glyph-name="Uhungarumlaut" horiz-adv-x="800" unicode="Ű"/><glyph d="M50 140 L190 140 L190 700 L50 700 L50 140 Z M610 140 L750 140 L750 700 L610 700 L610 140 Z M190 0 L610 0 L610 140 L190 140 L190 0 Z M190 700 L330 700 L330 980 L190 980 L190 700 Z M610 980 L470 980 L470 700 L610 700 L610 980 Z" glyph-name="uhungarumlaut" horiz-adv-x="800" unicode="ű"/><glyph d="M50 140 L190 140 L190 700 L50 700 L50 140 Z M610 140 L750 140 L750 700 L610 700 L610 140 Z M190 0 L610 0 L610 140 L190 140 L190 0 Z M610 -140 L470 -140 L470 0 L330 0 L330 -140 L470 -140 L470 -280 L610 -280 L610 -140 Z" glyph-name="Uogonek" horiz-adv-x="800" unicode="Ų"/><glyph d="M50 140 L190 140 L190 700 L50 700 L50 140 Z M610 140 L750 140 L750 700 L610 700 L610 140 Z M190 0 L610 0 L610 140 L190 140 L190 0 Z M610 -140 L470 -140 L470 0 L330 0 L330 -140 L470 -140 L470 -280 L610 -280 L610 -140 Z" glyph-name="uogonek" horiz-adv-x="800" unicode="ų"/><glyph d="M50 0 L190 0 L190 140 L330 140 L330 280 L190 280 L190 700 L50 700 L50 0 Z M610 280 L470 280 L470 140 L610 140 L610 0 L750 0 L750 700 L610 700 L610 280 Z M330 280 L470 280 L470 420 L330 420 L330 280 Z M190 700 L330 700 L330 840 L470 840 L470 980 L330 980 L330 840 L190 840 L190 700 Z M470 700 L610 700 L610 840 L470 840 L470 700 Z" glyph-name="Wcircumflex" horiz-adv-x="800" unicode="Ŵ"/><glyph d="M50 0 L190 0 L190 140 L330 140 L330 280 L190 280 L190 700 L50 700 L50 0 Z M610 280 L470 280 L470 140 L610 140 L610 0 L750 0 L750 700 L610 700 L610 280 Z M330 280 L470 280 L470 420 L330 420 L330 280 Z M190 700 L330 700 L330 840 L470 840 L470 980 L330 980 L330 840 L190 840 L190 700 Z M470 700 L610 700 L610 840 L470 840 L470 700 Z" glyph-name="wcircumflex" horiz-adv-x="800" unicode="ŵ"/><glyph d="M50 560 L190 560 L190 700 L50 700 L50 560 Z M610 560 L750 560 L750 700 L610 700 L610 560 Z M190 420 L330 420 L330 560 L190 560 L190 420 Z M470 420 L610 420 L610 560 L470 560 L470 420 Z M330 0 L470 0 L470 420 L330 420 L330 0 Z M190 700 L330 700 L330 840 L470 840 L470 980 L330 980 L330 840 L190 840 L190 700 Z M470 700 L610 700 L610 840 L470 840 L470 700 Z" glyph-name="Ycircumflex" horiz-adv-x="800" unicode="Ŷ"/><glyph d="M50 560 L190 560 L190 700 L50 700 L50 560 Z M610 560 L750 560 L750 700 L610 700 L610 560 Z M190 420 L330 420 L330 560 L190 560 L190 420 Z M470 420 L610 420 L610 560 L470 560 L470 420 Z M330 0 L470 0 L470 420 L330 420 L330 0 Z M190 700 L330 700 L330 840 L470 840 L470 980 L330 980 L330 840 L190 840 L190 700 Z M470 700 L610 700 L610 840 L470 840 L470 700 Z" glyph-name="ycircumflex" horiz-adv-x="800" unicode="ŷ"/><glyph d="M50 560 L190 560 L190 700 L50 700 L50 560 Z M610 560 L750 560 L750 700 L610 700 L610 560 Z M190 420 L330 420 L330 560 L190 560 L190 420 Z M470 420 L610 420 L610 560 L470 560 L470 420 Z M330 0 L470 0 L470 420 L330 420 L330 0 Z M190 840 L330 840 L330 980 L190 980 L190 840 Z M470 840 L610 840 L610 980 L470 980 L470 840 Z" glyph-name="Ydieresis" horiz-adv-x="800" unicode="Ÿ"/><glyph d="M50 560 L470 560 L470 420 L610 420 L610 560 L750 560 L750 700 L50 700 L50 560 Z M330 280 L470 280 L470 420 L330 420 L330 280 Z M190 140 L330 140 L330 280 L190 280 L190 140 Z M50 0 L750 0 L750 140 L50 140 L50 0 Z M610 980 L470 980 L470 840 L610 840 L610 980 Z M470 840 L330 840 L330 700 L470 700 L470 840 Z" glyph-name="Zacute" horiz-adv-x="800" unicode="Ź"/><glyph d="M50 560 L470 560 L470 420 L610 420 L610 560 L750 560 L750 700 L50 700 L50 560 Z M330 280 L470 280 L470 420 L330 420 L330 280 Z M190 140 L330 140 L330 280 L190 280 L190 140 Z M50 0 L750 0 L750 140 L50 140 L50 0 Z M610 980 L470 980 L470 840 L610 840 L610 980 Z M470 840 L330 840 L330 700 L470 700 L470 840 Z" glyph-name="zacute" horiz-adv-x="800" unicode="ź"/><glyph d="M50 560 L470 560 L470 420 L610 420 L610 560 L750 560 L750 700 L50 700 L50 560 Z M330 280 L470 280 L470 420 L330 420 L330 280 Z M190 140 L330 140 L330 280 L190 280 L190 140 Z M50 0 L750 0 L750 140 L50 140 L50 0 Z M330 840 L470 840 L470 980 L330 980 L330 840 Z" glyph-name="Zdotaccent" horiz-adv-x="800" unicode="Ż"/><glyph d="M50 560 L470 560 L470 420 L610 420 L610 560 L750 560 L750 700 L50 700 L50 560 Z M330 280 L470 280 L470 420 L330 420 L330 280 Z M190 140 L330 140 L330 280 L190 280 L190 140 Z M50 0 L750 0 L750 140 L50 140 L50 0 Z M330 840 L470 840 L470 980 L330 980 L330 840 Z" glyph-name="zdotaccent" horiz-adv-x="800" unicode="ż"/><glyph d="M50 560 L470 560 L470 420 L610 420 L610 560 L750 560 L750 700 L50 700 L50 560 Z M330 280 L470 280 L470 420 L330 420 L330 280 Z M190 140 L330 140 L330 280 L190 280 L190 140 Z M50 0 L750 0 L750 140 L50 140 L50 0 Z M190 840 L330 840 L330 700 L470 700 L470 840 L330 840 L330 980 L190 980 L190 840 Z M470 840 L610 840 L610 980 L470 980 L470 840 Z" glyph-name="Zcaron" horiz-adv-x="800" unicode="Ž"/><glyph d="M50 560 L470 560 L470 420 L610 420 L610 560 L750 560 L750 700 L50 700 L50 560 Z M330 280 L470 280 L470 420 L330 420 L330 280 Z M190 140 L330 140 L330 280 L190 280 L190 140 Z M50 0 L750 0 L750 140 L50 140 L50 0 Z M190 840 L330 840 L330 700 L470 700 L470 840 L330 840 L330 980 L190 980 L190 840 Z M470 840 L610 840 L610 980 L470 980 L470 840 Z" glyph-name="zcaron" horiz-adv-x="800" unicode="ž"/><glyph d="M190 560 L610 560 L610 280 L190 280 L190 560 L50 560 L50 0 L190 0 L190 140 L610 140 L610 0 L1310 0 L1310 140 L750 140 L750 280 L1030 280 L1030 420 L750 420 L750 560 L1310 560 L1310 700 L190 700 L190 560 Z M890 980 L750 980 L750 840 L890 840 L890 980 Z M750 840 L610 840 L610 700 L750 700 L750 840 Z" glyph-name="AEacute" horiz-adv-x="1360" unicode="Ǽ"/><glyph d="M190 560 L610 560 L610 280 L190 280 L190 560 L50 560 L50 0 L190 0 L190 140 L610 140 L610 0 L1310 0 L1310 140 L750 140 L750 280 L1030 280 L1030 420 L750 420 L750 560 L1310 560 L1310 700 L190 700 L190 560 Z M890 980 L750 980 L750 840 L890 840 L890 980 Z M750 840 L610 840 L610 700 L750 700 L750 840 Z" glyph-name="aeacute" horiz-adv-x="1360" unicode="ǽ"/><glyph d="M190 0 L610 0 L610 140 L330 140 L330 280 L190 280 L190 560 L50 560 L50 140 L190 140 L190 0 Z M470 420 L610 420 L610 140 L750 140 L750 560 L610 560 L610 700 L190 700 L190 560 L470 560 L470 420 Z M330 280 L470 280 L470 420 L330 420 L330 280 Z M610 980 L470 980 L470 840 L610 840 L610 980 Z M470 840 L330 840 L330 700 L470 700 L470 840 Z" glyph-name="Oslashacute" horiz-adv-x="800" unicode="Ǿ"/><glyph d="M190 0 L610 0 L610 140 L330 140 L330 280 L190 280 L190 560 L50 560 L50 140 L190 140 L190 0 Z M470 420 L610 420 L610 140 L750 140 L750 560 L610 560 L610 700 L190 700 L190 560 L470 560 L470 420 Z M330 280 L470 280 L470 420 L330 420 L330 280 Z M610 980 L470 980 L470 840 L610 840 L610 980 Z M470 840 L330 840 L330 700 L470 700 L470 840 Z" glyph-name="oslashacute" horiz-adv-x="800" unicode="ǿ"/><glyph d="M190 560 L750 560 L750 700 L190 700 L190 560 Z M50 420 L190 420 L190 560 L50 560 L50 420 Z M190 280 L610 280 L610 420 L190 420 L190 280 Z M610 140 L750 140 L750 280 L610 280 L610 140 Z M50 0 L610 0 L610 140 L50 140 L50 0 Z M470 -250 L470 0 L330 0 L330 -250 L470 -250 Z" glyph-name="Scommaaccent" horiz-adv-x="800" unicode="Ș"/><glyph d="M190 560 L750 560 L750 700 L190 700 L190 560 Z M50 420 L190 420 L190 560 L50 560 L50 420 Z M190 280 L610 280 L610 420 L190 420 L190 280 Z M610 140 L750 140 L750 280 L610 280 L610 140 Z M50 0 L610 0 L610 140 L50 140 L50 0 Z M470 -250 L470 0 L330 0 L330 -250 L470 -250 Z" glyph-name="scommaaccent" horiz-adv-x="800" unicode="ș"/><glyph d="M50 560 L330 560 L330 0 L470 0 L470 560 L750 560 L750 700 L50 700 L50 560 Z M470 0 L330 0 L330 -140 L470 -140 L470 0 Z M190 -280 L330 -280 L330 -140 L190 -140 L190 -280 Z" glyph-name="uni021A" horiz-adv-x="800" unicode="Ț"/><glyph d="M50 560 L330 560 L330 0 L470 0 L470 560 L750 560 L750 700 L50 700 L50 560 Z M470 0 L330 0 L330 -140 L470 -140 L470 0 Z M190 -280 L330 -280 L330 -140 L190 -140 L190 -280 Z" glyph-name="uni021B" horiz-adv-x="800" unicode="ț"/><glyph d="M190 560 L610 560 L610 140 L750 140 L750 700 L190 700 L190 560 Z M190 0 L610 0 L610 140 L190 140 L190 280 L50 280 L50 140 L190 140 L190 0 Z" glyph-name="dotlessj" horiz-adv-x="800" unicode="ȷ"/><glyph d="M50 700 L190 700 L190 840 L330 840 L330 980 L190 980 L190 840 L50 840 L50 700 Z M330 700 L470 700 L470 840 L330 840 L330 700 Z" glyph-name="circumflex" horiz-adv-x="520" unicode="ˆ"/><glyph d="M50 840 L190 840 L190 700 L330 700 L330 840 L190 840 L190 980 L50 980 L50 840 Z M330 840 L470 840 L470 980 L330 980 L330 840 Z" glyph-name="caron" horiz-adv-x="520" unicode="ˇ"/><glyph d="M50 840 L470 840 L470 980 L50 980 L50 840 Z" glyph-name="uni02C9" horiz-adv-x="520" unicode="ˉ"/><glyph d="M50 840 L190 840 L190 700 L330 700 L330 840 L190 840 L190 980 L50 980 L50 840 Z M330 840 L470 840 L470 980 L330 980 L330 840 Z" glyph-name="breve" horiz-adv-x="520" unicode="˘"/><glyph d="M50 840 L190 840 L190 980 L50 980 L50 840 Z" glyph-name="dotaccent" horiz-adv-x="240" unicode="˙"/><glyph d="M50 840 L190 840 L190 700 L330 700 L330 840 L190 840 L190 980 L50 980 L50 840 Z M190 980 L330 980 L330 840 L470 840 L470 980 L330 980 L330 1120 L190 1120 L190 980 Z" glyph-name="ring" horiz-adv-x="520" unicode="˚"/><glyph d="M330 -140 L190 -140 L190 0 L50 0 L50 -140 L190 -140 L190 -280 L330 -280 L330 -140 Z" glyph-name="ogonek" horiz-adv-x="380" unicode="˛"/><glyph d="M330 980 L190 980 L190 840 L330 840 L330 980 Z M190 840 L50 840 L50 700 L190 700 L190 840 Z M610 980 L470 980 L470 840 L610 840 L610 980 Z M470 840 L330 840 L330 700 L470 700 L470 840 Z" glyph-name="tilde" horiz-adv-x="660" unicode="˜"/><glyph d="M50 700 L190 700 L190 980 L50 980 L50 700 Z M470 980 L330 980 L330 700 L470 700 L470 980 Z" glyph-name="hungarumlaut" horiz-adv-x="520" unicode="˝"/><glyph d="M330 1120 L190 1120 L190 980 L330 980 L330 1120 Z M190 980 L50 980 L50 840 L190 840 L190 980 Z" glyph-name="tonos" horiz-adv-x="380" unicode="΄"/><glyph d="M50 840 L190 840 L190 980 L50 980 L50 840 Z M470 840 L610 840 L610 980 L470 980 L470 840 Z M260 700 L400 700 L400 980 L260 980 L260 700 Z" glyph-name="dieresistonos" horiz-adv-x="660" unicode="΅"/><glyph d="M470 560 L890 560 L890 700 L470 700 L470 560 Z M330 0 L470 0 L470 140 L890 140 L890 0 L1030 0 L1030 560 L890 560 L890 280 L470 280 L470 560 L330 560 L330 0 Z M330 700 L190 700 L190 560 L330 560 L330 700 Z M190 560 L50 560 L50 420 L190 420 L190 560 Z" glyph-name="Alphatonos" horiz-adv-x="1080" unicode="Ά"/><glyph d="M330 0 L1030 0 L1030 140 L470 140 L470 280 L750 280 L750 420 L470 420 L470 560 L1030 560 L1030 700 L330 700 L330 0 Z M330 700 L190 700 L190 560 L330 560 L330 700 Z M190 560 L50 560 L50 420 L190 420 L190 560 Z" glyph-name="Epsilontonos" horiz-adv-x="1080" unicode="Έ"/><glyph d="M330 0 L470 0 L470 280 L890 280 L890 0 L1030 0 L1030 700 L890 700 L890 420 L470 420 L470 700 L330 700 L330 0 Z M330 700 L190 700 L190 560 L330 560 L330 700 Z M190 560 L50 560 L50 420 L190 420 L190 560 Z" glyph-name="Etatonos" horiz-adv-x="1080" unicode="Ή"/><glyph d="M330 560 L470 560 L470 140 L330 140 L330 0 L750 0 L750 140 L610 140 L610 560 L750 560 L750 700 L330 700 L330 560 Z M330 700 L190 700 L190 560 L330 560 L330 700 Z M190 560 L50 560 L50 420 L190 420 L190 560 Z" glyph-name="Iotatonos" horiz-adv-x="1080" unicode="Ί"/><glyph d="M470 560 L890 560 L890 700 L470 700 L470 560 Z M330 140 L470 140 L470 560 L330 560 L330 140 Z M890 140 L1030 140 L1030 560 L890 560 L890 140 Z M470 0 L890 0 L890 140 L470 140 L470 0 Z M330 700 L190 700 L190 560 L330 560 L330 700 Z M190 560 L50 560 L50 420 L190 420 L190 560 Z" glyph-name="Omicrontonos" horiz-adv-x="1080" unicode="Ό"/><glyph d="M330 560 L470 560 L470 700 L330 700 L330 560 Z M890 560 L1030 560 L1030 700 L890 700 L890 560 Z M470 420 L610 420 L610 560 L470 560 L470 420 Z M750 420 L890 420 L890 560 L750 560 L750 420 Z M610 0 L750 0 L750 420 L610 420 L610 0 Z M330 700 L190 700 L190 560 L330 560 L330 700 Z M190 560 L50 560 L50 420 L190 420 L190 560 Z" glyph-name="Upsilontonos" horiz-adv-x="1080" unicode="Ύ"/><glyph d="M890 280 L1030 280 L1030 560 L890 560 L890 700 L470 700 L470 560 L890 560 L890 280 Z M330 0 L610 0 L610 280 L470 280 L470 560 L330 560 L330 280 L470 280 L470 140 L330 140 L330 0 Z M1030 0 L1030 140 L890 140 L890 280 L750 280 L750 0 L1030 0 Z M330 700 L190 700 L190 560 L330 560 L330 700 Z M190 560 L50 560 L50 420 L190 420 L190 560 Z" glyph-name="Omegatonos" horiz-adv-x="1080" unicode="Ώ"/><glyph d="M50 560 L190 560 L190 140 L50 140 L50 0 L470 0 L470 140 L330 140 L330 560 L470 560 L470 700 L50 700 L50 560 Z M-20 840 L120 840 L120 980 L-20 980 L-20 840 Z M400 840 L540 840 L540 980 L400 980 L400 840 Z M190 700 L330 700 L330 980 L190 980 L190 700 Z" glyph-name="iotadieresistonos" horiz-adv-x="520" unicode="ΐ"/><glyph d="M190 560 L610 560 L610 700 L190 700 L190 560 Z M50 0 L190 0 L190 140 L610 140 L610 0 L750 0 L750 560 L610 560 L610 280 L190 280 L190 560 L50 560 L50 0 Z" glyph-name="Alpha" horiz-adv-x="800" unicode="Α"/><glyph d="M50 0 L610 0 L610 140 L190 140 L190 280 L610 280 L610 420 L190 420 L190 560 L610 560 L610 700 L50 700 L50 0 Z M610 420 L750 420 L750 560 L610 560 L610 420 Z M610 140 L750 140 L750 280 L610 280 L610 140 Z" glyph-name="Beta" horiz-adv-x="800" unicode="Β"/><glyph d="M190 560 L750 560 L750 700 L50 700 L50 0 L190 0 L190 560 Z" glyph-name="Gamma" horiz-adv-x="800" unicode="Γ"/><glyph d="M470 420 L610 420 L610 140 L190 140 L190 420 L50 420 L50 0 L750 0 L750 420 L610 420 L610 560 L470 560 L470 700 L330 700 L330 560 L470 560 L470 420 Z M190 420 L330 420 L330 560 L190 560 L190 420 Z" glyph-name="uni0394" horiz-adv-x="800" unicode="Δ"/><glyph d="M50 0 L750 0 L750 140 L190 140 L190 280 L470 280 L470 420 L190 420 L190 560 L750 560 L750 700 L50 700 L50 0 Z" glyph-name="Epsilon" horiz-adv-x="800" unicode="Ε"/><glyph d="M50 560 L470 560 L470 420 L610 420 L610 560 L750 560 L750 700 L50 700 L50 560 Z M330 280 L470 280 L470 420 L330 420 L330 280 Z M190 140 L330 140 L330 280 L190 280 L190 140 Z M50 0 L750 0 L750 140 L50 140 L50 0 Z" glyph-name="Zeta" horiz-adv-x="800" unicode="Ζ"/><glyph d="M50 0 L190 0 L190 280 L610 280 L610 0 L750 0 L750 700 L610 700 L610 420 L190 420 L190 700 L50 700 L50 0 Z" glyph-name="Eta" horiz-adv-x="800" unicode="Η"/><glyph d="M190 560 L610 560 L610 700 L190 700 L190 560 Z M50 140 L190 140 L190 560 L50 560 L50 140 Z M610 140 L750 140 L750 560 L610 560 L610 140 Z M190 0 L610 0 L610 140 L190 140 L190 0 Z M330 280 L470 280 L470 420 L330 420 L330 280 Z" glyph-name="Theta" horiz-adv-x="800" unicode="Θ"/><glyph d="M50 560 L190 560 L190 140 L50 140 L50 0 L470 0 L470 140 L330 140 L330 560 L470 560 L470 700 L50 700 L50 560 Z" glyph-name="Iota" horiz-adv-x="520" unicode="Ι"/><glyph d="M610 560 L750 560 L750 700 L610 700 L610 560 Z M470 420 L610 420 L610 560 L470 560 L470 420 Z M470 140 L610 140 L610 280 L470 280 L470 140 Z M610 0 L750 0 L750 140 L610 140 L610 0 Z M190 420 L190 700 L50 700 L50 0 L190 0 L190 280 L470 280 L470 420 L190 420 Z" glyph-name="Kappa" horiz-adv-x="800" unicode="Κ"/><glyph d="M330 560 L470 560 L470 700 L330 700 L330 560 Z M470 420 L610 420 L610 560 L470 560 L470 420 Z M190 420 L330 420 L330 560 L190 560 L190 420 Z M610 0 L750 0 L750 420 L610 420 L610 0 Z M50 0 L190 0 L190 420 L50 420 L50 0 Z" glyph-name="Lambda" horiz-adv-x="800" unicode="Λ"/><glyph d="M50 0 L190 0 L190 420 L330 420 L330 560 L190 560 L190 700 L50 700 L50 0 Z M610 560 L470 560 L470 420 L610 420 L610 0 L750 0 L750 700 L610 700 L610 560 Z M330 280 L470 280 L470 420 L330 420 L330 280 Z" glyph-name="Mu" horiz-adv-x="800" unicode="Μ"/><glyph d="M50 0 L190 0 L190 420 L330 420 L330 560 L190 560 L190 700 L50 700 L50 0 Z M610 280 L470 280 L470 140 L610 140 L610 0 L750 0 L750 700 L610 700 L610 280 Z M330 280 L470 280 L470 420 L330 420 L330 280 Z" glyph-name="Nu" horiz-adv-x="800" unicode="Ν"/><glyph d="M50 0 L750 0 L750 140 L50 140 L50 0 Z M50 560 L750 560 L750 700 L50 700 L50 560 Z M190 280 L610 280 L610 420 L190 420 L190 280 Z" glyph-name="Xi" horiz-adv-x="800" unicode="Ξ"/><glyph d="M190 560 L610 560 L610 700 L190 700 L190 560 Z M50 140 L190 140 L190 560 L50 560 L50 140 Z M610 140 L750 140 L750 560 L610 560 L610 140 Z M190 0 L610 0 L610 140 L190 140 L190 0 Z" glyph-name="Omicron" horiz-adv-x="800" unicode="Ο"/><glyph d="M50 0 L190 0 L190 560 L610 560 L610 0 L750 0 L750 700 L50 700 L50 0 Z" glyph-name="Pi" horiz-adv-x="800" unicode="Π"/><glyph d="M50 0 L190 0 L190 280 L610 280 L610 420 L190 420 L190 560 L610 560 L610 700 L50 700 L50 0 Z M610 420 L750 420 L750 560 L610 560 L610 420 Z" glyph-name="Rho" horiz-adv-x="800" unicode="Ρ"/><glyph d="M330 280 L470 280 L470 420 L330 420 L330 560 L750 560 L750 700 L50 700 L50 560 L190 560 L190 420 L330 420 L330 280 Z M50 0 L750 0 L750 140 L330 140 L330 280 L190 280 L190 140 L50 140 L50 0 Z" glyph-name="Sigma" horiz-adv-x="800" unicode="Σ"/><glyph d="M50 560 L330 560 L330 0 L470 0 L470 560 L750 560 L750 700 L50 700 L50 560 Z" glyph-name="Tau" horiz-adv-x="800" unicode="Τ"/><glyph d="M50 560 L190 560 L190 700 L50 700 L50 560 Z M610 560 L750 560 L750 700 L610 700 L610 560 Z M190 420 L330 420 L330 560 L190 560 L190 420 Z M470 420 L610 420 L610 560 L470 560 L470 420 Z M330 0 L470 0 L470 420 L330 420 L330 0 Z" glyph-name="Upsilon" horiz-adv-x="800" unicode="Υ"/><glyph d="M610 280 L750 280 L750 420 L610 420 L610 560 L470 560 L470 700 L330 700 L330 560 L190 560 L190 420 L330 420 L330 280 L190 280 L190 420 L50 420 L50 280 L190 280 L190 140 L330 140 L330 0 L470 0 L470 140 L610 140 L610 280 Z M610 280 L470 280 L470 420 L610 420 L610 280 Z" glyph-name="Phi" horiz-adv-x="800" unicode="Φ"/><glyph d="M50 560 L190 560 L190 700 L50 700 L50 560 Z M610 560 L750 560 L750 700 L610 700 L610 560 Z M190 420 L330 420 L330 560 L190 560 L190 420 Z M470 420 L610 420 L610 560 L470 560 L470 420 Z M330 280 L470 280 L470 420 L330 420 L330 280 Z M190 140 L330 140 L330 280 L190 280 L190 140 Z M470 140 L610 140 L610 280 L470 280 L470 140 Z M50 0 L190 0 L190 140 L50 140 L50 0 Z M610 0 L750 0 L750 140 L610 140 L610 0 Z" glyph-name="Chi" horiz-adv-x="800" unicode="Χ"/><glyph d="M610 420 L470 420 L470 700 L330 700 L330 420 L190 420 L190 700 L50 700 L50 420 L190 420 L190 280 L330 280 L330 0 L470 0 L470 280 L610 280 L610 420 Z M610 420 L750 420 L750 700 L610 700 L610 420 Z" glyph-name="Psi" horiz-adv-x="800" unicode="Ψ"/><glyph d="M610 280 L750 280 L750 560 L610 560 L610 700 L190 700 L190 560 L610 560 L610 280 Z M50 0 L330 0 L330 280 L190 280 L190 560 L50 560 L50 280 L190 280 L190 140 L50 140 L50 0 Z M750 0 L750 140 L610 140 L610 280 L470 280 L470 0 L750 0 Z" glyph-name="uni03A9" horiz-adv-x="800" unicode="Ω"/><glyph d="M50 560 L190 560 L190 140 L50 140 L50 0 L470 0 L470 140 L330 140 L330 560 L470 560 L470 700 L50 700 L50 560 Z M50 840 L190 840 L190 980 L50 980 L50 840 Z M330 840 L470 840 L470 980 L330 980 L330 840 Z" glyph-name="Iotadieresis" horiz-adv-x="520" unicode="Ϊ"/><glyph d="M50 560 L190 560 L190 700 L50 700 L50 560 Z M610 560 L750 560 L750 700 L610 700 L610 560 Z M190 420 L330 420 L330 560 L190 560 L190 420 Z M470 420 L610 420 L610 560 L470 560 L470 420 Z M330 0 L470 0 L470 420 L330 420 L330 0 Z M190 840 L330 840 L330 980 L190 980 L190 840 Z M470 840 L610 840 L610 980 L470 980 L470 840 Z" glyph-name="Upsilondieresis" horiz-adv-x="800" unicode="Ϋ"/><glyph d="M190 560 L610 560 L610 700 L190 700 L190 560 Z M50 0 L190 0 L190 140 L610 140 L610 0 L750 0 L750 560 L610 560 L610 280 L190 280 L190 560 L50 560 L50 0 Z M610 980 L470 980 L470 840 L610 840 L610 980 Z M470 840 L330 840 L330 700 L470 700 L470 840 Z" glyph-name="alphatonos" horiz-adv-x="800" unicode="ά"/><glyph d="M50 0 L750 0 L750 140 L190 140 L190 280 L470 280 L470 420 L190 420 L190 560 L750 560 L750 700 L50 700 L50 0 Z M610 980 L470 980 L470 840 L610 840 L610 980 Z M470 840 L330 840 L330 700 L470 700 L470 840 Z" glyph-name="epsilontonos" horiz-adv-x="800" unicode="έ"/><glyph d="M50 0 L190 0 L190 280 L610 280 L610 0 L750 0 L750 700 L610 700 L610 420 L190 420 L190 700 L50 700 L50 0 Z M610 980 L470 980 L470 840 L610 840 L610 980 Z M470 840 L330 840 L330 700 L470 700 L470 840 Z" glyph-name="etatonos" horiz-adv-x="800" unicode="ή"/><glyph d="M50 560 L190 560 L190 140 L50 140 L50 0 L470 0 L470 140 L330 140 L330 560 L470 560 L470 700 L50 700 L50 560 Z M470 980 L330 980 L330 840 L470 840 L470 980 Z M330 840 L190 840 L190 700 L330 700 L330 840 Z" glyph-name="iotatonos" horiz-adv-x="520" unicode="ί"/><glyph d="M50 560 L190 560 L190 700 L50 700 L50 560 Z M610 560 L750 560 L750 700 L610 700 L610 560 Z M190 420 L330 420 L330 560 L190 560 L190 420 Z M470 420 L610 420 L610 560 L470 560 L470 420 Z M330 0 L470 0 L470 420 L330 420 L330 0 Z M120 840 L260 840 L260 980 L120 980 L120 840 Z M540 840 L680 840 L680 980 L540 980 L540 840 Z M330 700 L470 700 L470 980 L330 980 L330 700 Z" glyph-name="upsilondieresistonos" horiz-adv-x="800" unicode="ΰ"/><glyph d="M190 560 L610 560 L610 700 L190 700 L190 560 Z M50 0 L190 0 L190 140 L610 140 L610 0 L750 0 L750 560 L610 560 L610 280 L190 280 L190 560 L50 560 L50 0 Z" glyph-name="alpha" horiz-adv-x="800" unicode="α"/><glyph d="M50 0 L610 0 L610 140 L190 140 L190 280 L610 280 L610 420 L190 420 L190 560 L610 560 L610 700 L50 700 L50 0 Z M610 420 L750 420 L750 560 L610 560 L610 420 Z M610 140 L750 140 L750 280 L610 280 L610 140 Z" glyph-name="beta" horiz-adv-x="800" unicode="β"/><glyph d="M190 560 L750 560 L750 700 L50 700 L50 0 L190 0 L190 560 Z" glyph-name="gamma" horiz-adv-x="800" unicode="γ"/><glyph d="M470 420 L610 420 L610 140 L190 140 L190 420 L50 420 L50 0 L750 0 L750 420 L610 420 L610 560 L470 560 L470 700 L330 700 L330 560 L470 560 L470 420 Z M190 420 L330 420 L330 560 L190 560 L190 420 Z" glyph-name="delta" horiz-adv-x="800" unicode="δ"/><glyph d="M50 0 L750 0 L750 140 L190 140 L190 280 L470 280 L470 420 L190 420 L190 560 L750 560 L750 700 L50 700 L50 0 Z" glyph-name="epsilon" horiz-adv-x="800" unicode="ε"/><glyph d="M50 560 L470 560 L470 420 L610 420 L610 560 L750 560 L750 700 L50 700 L50 560 Z M330 280 L470 280 L470 420 L330 420 L330 280 Z M190 140 L330 140 L330 280 L190 280 L190 140 Z M50 0 L750 0 L750 140 L50 140 L50 0 Z" glyph-name="zeta" horiz-adv-x="800" unicode="ζ"/><glyph d="M50 0 L190 0 L190 280 L610 280 L610 0 L750 0 L750 700 L610 700 L610 420 L190 420 L190 700 L50 700 L50 0 Z" glyph-name="eta" horiz-adv-x="800" unicode="η"/><glyph d="M190 560 L610 560 L610 700 L190 700 L190 560 Z M50 140 L190 140 L190 560 L50 560 L50 140 Z M610 140 L750 140 L750 560 L610 560 L610 140 Z M190 0 L610 0 L610 140 L190 140 L190 0 Z M330 280 L470 280 L470 420 L330 420 L330 280 Z" glyph-name="theta" horiz-adv-x="800" unicode="θ"/><glyph d="M50 560 L190 560 L190 140 L50 140 L50 0 L470 0 L470 140 L330 140 L330 560 L470 560 L470 700 L50 700 L50 560 Z" glyph-name="iota" horiz-adv-x="520" unicode="ι"/><glyph d="M610 560 L750 560 L750 700 L610 700 L610 560 Z M470 420 L610 420 L610 560 L470 560 L470 420 Z M470 140 L610 140 L610 280 L470 280 L470 140 Z M610 0 L750 0 L750 140 L610 140 L610 0 Z M190 420 L190 700 L50 700 L50 0 L190 0 L190 280 L470 280 L470 420 L190 420 Z" glyph-name="kappa" horiz-adv-x="800" unicode="κ"/><glyph d="M330 560 L470 560 L470 700 L330 700 L330 560 Z M470 420 L610 420 L610 560 L470 560 L470 420 Z M190 420 L330 420 L330 560 L190 560 L190 420 Z M610 0 L750 0 L750 420 L610 420 L610 0 Z M50 0 L190 0 L190 420 L50 420 L50 0 Z" glyph-name="lambda" horiz-adv-x="800" unicode="λ"/><glyph d="M50 0 L190 0 L190 420 L330 420 L330 560 L190 560 L190 700 L50 700 L50 0 Z M610 560 L470 560 L470 420 L610 420 L610 0 L750 0 L750 700 L610 700 L610 560 Z M330 280 L470 280 L470 420 L330 420 L330 280 Z" glyph-name="uni03BC" horiz-adv-x="800" unicode="μ"/><glyph d="M50 0 L190 0 L190 420 L330 420 L330 560 L190 560 L190 700 L50 700 L50 0 Z M610 280 L470 280 L470 140 L610 140 L610 0 L750 0 L750 700 L610 700 L610 280 Z M330 280 L470 280 L470 420 L330 420 L330 280 Z" glyph-name="nu" horiz-adv-x="800" unicode="ν"/><glyph d="M50 0 L750 0 L750 140 L50 140 L50 0 Z M50 560 L750 560 L750 700 L50 700 L50 560 Z M190 280 L610 280 L610 420 L190 420 L190 280 Z" glyph-name="xi" horiz-adv-x="800" unicode="ξ"/><glyph d="M190 560 L610 560 L610 700 L190 700 L190 560 Z M50 140 L190 140 L190 560 L50 560 L50 140 Z M610 140 L750 140 L750 560 L610 560 L610 140 Z M190 0 L610 0 L610 140 L190 140 L190 0 Z" glyph-name="omicron" horiz-adv-x="800" unicode="ο"/><glyph d="M50 0 L190 0 L190 560 L610 560 L610 0 L750 0 L750 700 L50 700 L50 0 Z" glyph-name="pi" horiz-adv-x="800" unicode="π"/><glyph d="M50 0 L190 0 L190 280 L610 280 L610 420 L190 420 L190 560 L610 560 L610 700 L50 700 L50 0 Z M610 420 L750 420 L750 560 L610 560 L610 420 Z" glyph-name="rho" horiz-adv-x="800" unicode="ρ"/><glyph d="M330 280 L470 280 L470 420 L330 420 L330 560 L750 560 L750 700 L50 700 L50 560 L190 560 L190 420 L330 420 L330 280 Z M50 0 L750 0 L750 140 L330 140 L330 280 L190 280 L190 140 L50 140 L50 0 Z" glyph-name="sigma1" horiz-adv-x="800" unicode="ς"/><glyph d="M330 280 L470 280 L470 420 L330 420 L330 560 L750 560 L750 700 L50 700 L50 560 L190 560 L190 420 L330 420 L330 280 Z M50 0 L750 0 L750 140 L330 140 L330 280 L190 280 L190 140 L50 140 L50 0 Z" glyph-name="sigma" horiz-adv-x="800" unicode="σ"/><glyph d="M50 560 L330 560 L330 0 L470 0 L470 560 L750 560 L750 700 L50 700 L50 560 Z" glyph-name="tau" horiz-adv-x="800" unicode="τ"/><glyph d="M50 560 L190 560 L190 700 L50 700 L50 560 Z M610 560 L750 560 L750 700 L610 700 L610 560 Z M190 420 L330 420 L330 560 L190 560 L190 420 Z M470 420 L610 420 L610 560 L470 560 L470 420 Z M330 0 L470 0 L470 420 L330 420 L330 0 Z" glyph-name="upsilon" horiz-adv-x="800" unicode="υ"/><glyph d="M610 280 L750 280 L750 420 L610 420 L610 560 L470 560 L470 700 L330 700 L330 560 L190 560 L190 420 L330 420 L330 280 L190 280 L190 420 L50 420 L50 280 L190 280 L190 140 L330 140 L330 0 L470 0 L470 140 L610 140 L610 280 Z M610 280 L470 280 L470 420 L610 420 L610 280 Z" glyph-name="phi" horiz-adv-x="800" unicode="φ"/><glyph d="M50 560 L190 560 L190 700 L50 700 L50 560 Z M610 560 L750 560 L750 700 L610 700 L610 560 Z M190 420 L330 420 L330 560 L190 560 L190 420 Z M470 420 L610 420 L610 560 L470 560 L470 420 Z M330 280 L470 280 L470 420 L330 420 L330 280 Z M190 140 L330 140 L330 280 L190 280 L190 140 Z M470 140 L610 140 L610 280 L470 280 L470 140 Z M50 0 L190 0 L190 140 L50 140 L50 0 Z M610 0 L750 0 L750 140 L610 140 L610 0 Z" glyph-name="chi" horiz-adv-x="800" unicode="χ"/><glyph d="M610 420 L470 420 L470 700 L330 700 L330 420 L190 420 L190 700 L50 700 L50 420 L190 420 L190 280 L330 280 L330 0 L470 0 L470 280 L610 280 L610 420 Z M610 420 L750 420 L750 700 L610 700 L610 420 Z" glyph-name="psi" horiz-adv-x="800" unicode="ψ"/><glyph d="M610 280 L750 280 L750 560 L610 560 L610 700 L190 700 L190 560 L610 560 L610 280 Z M50 0 L330 0 L330 280 L190 280 L190 560 L50 560 L50 280 L190 280 L190 140 L50 140 L50 0 Z M750 0 L750 140 L610 140 L610 280 L470 280 L470 0 L750 0 Z" glyph-name="omega" horiz-adv-x="800" unicode="ω"/><glyph d="M50 560 L190 560 L190 140 L50 140 L50 0 L470 0 L470 140 L330 140 L330 560 L470 560 L470 700 L50 700 L50 560 Z M50 840 L190 840 L190 980 L50 980 L50 840 Z M330 840 L470 840 L470 980 L330 980 L330 840 Z" glyph-name="iotadieresis" horiz-adv-x="520" unicode="ϊ"/><glyph d="M50 560 L190 560 L190 700 L50 700 L50 560 Z M610 560 L750 560 L750 700 L610 700 L610 560 Z M190 420 L330 420 L330 560 L190 560 L190 420 Z M470 420 L610 420 L610 560 L470 560 L470 420 Z M330 0 L470 0 L470 420 L330 420 L330 0 Z M190 840 L330 840 L330 980 L190 980 L190 840 Z M470 840 L610 840 L610 980 L470 980 L470 840 Z" glyph-name="upsilondieresis" horiz-adv-x="800" unicode="ϋ"/><glyph d="M190 560 L610 560 L610 700 L190 700 L190 560 Z M50 140 L190 140 L190 560 L50 560 L50 140 Z M610 140 L750 140 L750 560 L610 560 L610 140 Z M190 0 L610 0 L610 140 L190 140 L190 0 Z M610 980 L470 980 L470 840 L610 840 L610 980 Z M470 840 L330 840 L330 700 L470 700 L470 840 Z" glyph-name="omicrontonos" horiz-adv-x="800" unicode="ό"/><glyph d="M50 560 L190 560 L190 700 L50 700 L50 560 Z M610 560 L750 560 L750 700 L610 700 L610 560 Z M190 420 L330 420 L330 560 L190 560 L190 420 Z M470 420 L610 420 L610 560 L470 560 L470 420 Z M330 0 L470 0 L470 420 L330 420 L330 0 Z M610 980 L470 980 L470 840 L610 840 L610 980 Z M470 840 L330 840 L330 700 L470 700 L470 840 Z" glyph-name="upsilontonos" horiz-adv-x="800" unicode="ύ"/><glyph d="M610 280 L750 280 L750 560 L610 560 L610 700 L190 700 L190 560 L610 560 L610 280 Z M50 0 L330 0 L330 280 L190 280 L190 560 L50 560 L50 280 L190 280 L190 140 L50 140 L50 0 Z M750 0 L750 140 L610 140 L610 280 L470 280 L470 0 L750 0 Z M610 980 L470 980 L470 840 L610 840 L610 980 Z M470 840 L330 840 L330 700 L470 700 L470 840 Z" glyph-name="omegatonos" horiz-adv-x="800" unicode="ώ"/><glyph d="M50 0 L750 0 L750 140 L190 140 L190 280 L470 280 L470 420 L190 420 L190 560 L750 560 L750 700 L50 700 L50 0 Z M330 700 L470 700 L470 840 L330 840 L330 700 Z M190 840 L330 840 L330 980 L190 980 L190 840 Z" glyph-name="uni0400" horiz-adv-x="800" unicode="Ѐ"/><glyph d="M50 0 L750 0 L750 140 L190 140 L190 280 L470 280 L470 420 L190 420 L190 560 L750 560 L750 700 L50 700 L50 0 Z M190 840 L330 840 L330 980 L190 980 L190 840 Z M470 840 L610 840 L610 980 L470 980 L470 840 Z" glyph-name="uni0401" horiz-adv-x="800" unicode="Ё"/><glyph d="M190 0 L330 0 L330 280 L610 280 L610 140 L750 140 L750 280 L610 280 L610 420 L330 420 L330 560 L470 560 L470 700 L50 700 L50 560 L190 560 L190 0 Z M470 140 L470 0 L610 0 L610 140 L470 140 Z" glyph-name="uni0402" horiz-adv-x="800" unicode="Ђ"/><glyph d="M190 560 L750 560 L750 700 L50 700 L50 0 L190 0 L190 560 Z M610 980 L470 980 L470 840 L610 840 L610 980 Z M470 840 L330 840 L330 700 L470 700 L470 840 Z" glyph-name="uni0403" horiz-adv-x="800" unicode="Ѓ"/><glyph d="M750 0 L750 140 L190 140 L190 280 L470 280 L470 420 L190 420 L190 560 L50 560 L50 140 L190 140 L190 0 L750 0 Z M750 560 L750 700 L190 700 L190 560 L750 560 Z" glyph-name="uni0404" horiz-adv-x="800" unicode="Є"/><glyph d="M190 560 L750 560 L750 700 L190 700 L190 560 Z M50 420 L190 420 L190 560 L50 560 L50 420 Z M190 280 L610 280 L610 420 L190 420 L190 280 Z M610 140 L750 140 L750 280 L610 280 L610 140 Z M50 0 L610 0 L610 140 L50 140 L50 0 Z" glyph-name="uni0405" horiz-adv-x="800" unicode="Ѕ"/><glyph d="M50 560 L190 560 L190 140 L50 140 L50 0 L470 0 L470 140 L330 140 L330 560 L470 560 L470 700 L50 700 L50 560 Z" glyph-name="uni0406" horiz-adv-x="520" unicode="І"/><glyph d="M50 560 L190 560 L190 140 L50 140 L50 0 L470 0 L470 140 L330 140 L330 560 L470 560 L470 700 L50 700 L50 560 Z M50 840 L190 840 L190 980 L50 980 L50 840 Z M330 840 L470 840 L470 980 L330 980 L330 840 Z" glyph-name="uni0407" horiz-adv-x="520" unicode="Ї"/><glyph d="M190 560 L610 560 L610 140 L750 140 L750 700 L190 700 L190 560 Z M190 0 L610 0 L610 140 L190 140 L190 280 L50 280 L50 140 L190 140 L190 0 Z" glyph-name="uni0408" horiz-adv-x="800" unicode="Ј"/><glyph d="M330 140 L330 560 L470 560 L470 0 L890 0 L890 140 L610 140 L610 280 L890 280 L890 140 L1030 140 L1030 280 L890 280 L890 420 L610 420 L610 700 L190 700 L190 140 L330 140 Z M50 140 L50 0 L190 0 L190 140 L50 140 Z" glyph-name="uni0409" horiz-adv-x="1080" unicode="Љ"/><glyph d="M890 140 L1030 140 L1030 280 L890 280 L890 420 L610 420 L610 700 L470 700 L470 420 L190 420 L190 700 L50 700 L50 0 L190 0 L190 280 L470 280 L470 0 L890 0 L890 140 L610 140 L610 280 L890 280 L890 140 Z" glyph-name="uni040A" horiz-adv-x="1080" unicode="Њ"/><glyph d="M190 0 L330 0 L330 280 L610 280 L610 0 L750 0 L750 280 L610 280 L610 420 L330 420 L330 560 L470 560 L470 700 L50 700 L50 560 L190 560 L190 0 Z" glyph-name="uni040B" horiz-adv-x="800" unicode="Ћ"/><glyph d="M610 560 L750 560 L750 700 L610 700 L610 560 Z M470 420 L610 420 L610 560 L470 560 L470 420 Z M470 140 L610 140 L610 280 L470 280 L470 140 Z M610 0 L750 0 L750 140 L610 140 L610 0 Z M190 420 L190 700 L50 700 L50 0 L190 0 L190 280 L470 280 L470 420 L190 420 Z M610 980 L470 980 L470 840 L610 840 L610 980 Z M470 840 L330 840 L330 700 L470 700 L470 840 Z" glyph-name="uni040C" horiz-adv-x="800" unicode="Ќ"/><glyph d="M330 700 L470 700 L470 840 L330 840 L330 700 Z M190 840 L330 840 L330 980 L190 980 L190 840 Z M470 420 L330 420 L330 280 L470 280 L470 420 Z M190 700 L50 700 L50 0 L190 0 L190 140 L330 140 L330 280 L190 280 L190 700 Z M750 700 L610 700 L610 560 L470 560 L470 420 L610 420 L610 0 L750 0 L750 700 Z" glyph-name="uni040D" horiz-adv-x="800" unicode="Ѝ"/><glyph d="M50 560 L190 560 L190 700 L50 700 L50 560 Z M610 560 L750 560 L750 700 L610 700 L610 560 Z M190 420 L330 420 L330 560 L190 560 L190 420 Z M470 420 L610 420 L610 560 L470 560 L470 420 Z M330 280 L470 280 L470 420 L330 420 L330 280 Z M190 140 L330 140 L330 280 L190 280 L190 140 Z M50 0 L190 0 L190 140 L50 140 L50 0 Z M190 840 L330 840 L330 700 L470 700 L470 840 L330 840 L330 980 L190 980 L190 840 Z M470 840 L610 840 L610 980 L470 980 L470 840 Z" glyph-name="uni040E" horiz-adv-x="800" unicode="Ў"/><glyph d="M50 0 L330 0 L330 -140 L470 -140 L470 0 L750 0 L750 700 L610 700 L610 140 L190 140 L190 700 L50 700 L50 0 Z" glyph-name="uni040F" horiz-adv-x="800" unicode="Џ"/><glyph d="M190 560 L610 560 L610 700 L190 700 L190 560 Z M50 0 L190 0 L190 140 L610 140 L610 0 L750 0 L750 560 L610 560 L610 280 L190 280 L190 560 L50 560 L50 0 Z" glyph-name="uni0410" horiz-adv-x="800" unicode="А"/><glyph d="M610 140 L750 140 L750 280 L610 280 L610 420 L190 420 L190 560 L610 560 L610 700 L50 700 L50 0 L610 0 L610 140 L190 140 L190 280 L610 280 L610 140 Z" glyph-name="uni0411" horiz-adv-x="800" unicode="Б"/><glyph d="M610 140 L750 140 L750 280 L610 280 L610 420 L190 420 L190 560 L610 560 L610 420 L750 420 L750 560 L610 560 L610 700 L50 700 L50 0 L610 0 L610 140 L190 140 L190 280 L610 280 L610 140 Z" glyph-name="uni0412" horiz-adv-x="800" unicode="В"/><glyph d="M190 560 L750 560 L750 700 L50 700 L50 0 L190 0 L190 560 Z" glyph-name="uni0413" horiz-adv-x="800" unicode="Г"/><glyph d="M470 280 L470 560 L610 560 L610 140 L330 140 L330 280 L190 280 L190 140 L50 140 L50 -140 L190 -140 L190 0 L750 0 L750 -140 L890 -140 L890 140 L750 140 L750 700 L330 700 L330 280 L470 280 Z" glyph-name="uni0414" horiz-adv-x="940" unicode="Д"/><glyph d="M50 0 L750 0 L750 140 L190 140 L190 280 L470 280 L470 420 L190 420 L190 560 L750 560 L750 700 L50 700 L50 0 Z" glyph-name="uni0415" horiz-adv-x="800" unicode="Е"/><glyph d="M890 0 L1030 0 L1030 140 L890 140 L890 280 L750 280 L750 420 L610 420 L610 700 L470 700 L470 420 L330 420 L330 560 L190 560 L190 700 L50 700 L50 560 L190 560 L190 420 L330 420 L330 280 L470 280 L470 0 L610 0 L610 280 L750 280 L750 140 L890 140 L890 0 Z M330 280 L190 280 L190 140 L330 140 L330 280 Z M750 420 L890 420 L890 560 L750 560 L750 420 Z M890 560 L1030 560 L1030 700 L890 700 L890 560 Z M190 140 L50 140 L50 0 L190 0 L190 140 Z" glyph-name="uni0416" horiz-adv-x="1080" unicode="Ж"/><glyph d="M610 420 L750 420 L750 560 L610 560 L610 700 L190 700 L190 560 L610 560 L610 420 Z M190 280 L50 280 L50 140 L190 140 L190 0 L610 0 L610 140 L190 140 L190 280 Z M610 140 L750 140 L750 280 L610 280 L610 420 L330 420 L330 280 L610 280 L610 140 Z M190 560 L50 560 L50 420 L190 420 L190 560 Z" glyph-name="uni0417" horiz-adv-x="800" unicode="З"/><glyph d="M470 420 L330 420 L330 280 L470 280 L470 420 Z M190 700 L50 700 L50 0 L190 0 L190 140 L330 140 L330 280 L190 280 L190 700 Z M750 700 L610 700 L610 560 L470 560 L470 420 L610 420 L610 0 L750 0 L750 700 Z" glyph-name="uni0418" horiz-adv-x="800" unicode="И"/><glyph d="M470 420 L330 420 L330 280 L470 280 L470 420 Z M190 700 L50 700 L50 0 L190 0 L190 140 L330 140 L330 280 L190 280 L190 700 Z M750 700 L610 700 L610 560 L470 560 L470 420 L610 420 L610 0 L750 0 L750 700 Z M190 840 L330 840 L330 700 L470 700 L470 840 L330 840 L330 980 L190 980 L190 840 Z M470 840 L610 840 L610 980 L470 980 L470 840 Z" glyph-name="uni0419" horiz-adv-x="800" unicode="Й"/><glyph d="M610 560 L750 560 L750 700 L610 700 L610 560 Z M470 420 L610 420 L610 560 L470 560 L470 420 Z M470 140 L610 140 L610 280 L470 280 L470 140 Z M610 0 L750 0 L750 140 L610 140 L610 0 Z M190 420 L190 700 L50 700 L50 0 L190 0 L190 280 L470 280 L470 420 L190 420 Z" glyph-name="uni041A" horiz-adv-x="800" unicode="К"/><glyph d="M330 140 L330 560 L610 560 L610 0 L750 0 L750 700 L190 700 L190 140 L330 140 Z M50 140 L50 0 L190 0 L190 140 L50 140 Z" glyph-name="uni041B" horiz-adv-x="800" unicode="Л"/><glyph d="M50 0 L190 0 L190 420 L330 420 L330 560 L190 560 L190 700 L50 700 L50 0 Z M610 560 L470 560 L470 420 L610 420 L610 0 L750 0 L750 700 L610 700 L610 560 Z M330 280 L470 280 L470 420 L330 420 L330 280 Z" glyph-name="uni041C" horiz-adv-x="800" unicode="М"/><glyph d="M50 0 L190 0 L190 280 L610 280 L610 0 L750 0 L750 700 L610 700 L610 420 L190 420 L190 700 L50 700 L50 0 Z" glyph-name="uni041D" horiz-adv-x="800" unicode="Н"/><glyph d="M190 560 L610 560 L610 700 L190 700 L190 560 Z M50 140 L190 140 L190 560 L50 560 L50 140 Z M610 140 L750 140 L750 560 L610 560 L610 140 Z M190 0 L610 0 L610 140 L190 140 L190 0 Z" glyph-name="uni041E" horiz-adv-x="800" unicode="О"/><glyph d="M50 0 L190 0 L190 560 L610 560 L610 0 L750 0 L750 700 L50 700 L50 0 Z" glyph-name="uni041F" horiz-adv-x="800" unicode="П"/><glyph d="M50 0 L190 0 L190 280 L610 280 L610 420 L190 420 L190 560 L610 560 L610 700 L50 700 L50 0 Z M610 420 L750 420 L750 560 L610 560 L610 420 Z" glyph-name="uni0420" horiz-adv-x="800" unicode="Р"/><glyph d="M190 560 L610 560 L610 700 L190 700 L190 560 Z M50 140 L190 140 L190 560 L50 560 L50 140 Z M610 420 L750 420 L750 560 L610 560 L610 420 Z M610 140 L750 140 L750 280 L610 280 L610 140 Z M190 0 L610 0 L610 140 L190 140 L190 0 Z" glyph-name="uni0421" horiz-adv-x="800" unicode="С"/><glyph d="M50 560 L330 560 L330 0 L470 0 L470 560 L750 560 L750 700 L50 700 L50 560 Z" glyph-name="uni0422" horiz-adv-x="800" unicode="Т"/><glyph d="M50 560 L190 560 L190 700 L50 700 L50 560 Z M610 560 L750 560 L750 700 L610 700 L610 560 Z M190 420 L330 420 L330 560 L190 560 L190 420 Z M470 420 L610 420 L610 560 L470 560 L470 420 Z M330 280 L470 280 L470 420 L330 420 L330 280 Z M190 140 L330 140 L330 280 L190 280 L190 140 Z M50 0 L190 0 L190 140 L50 140 L50 0 Z" glyph-name="uni0423" horiz-adv-x="800" unicode="У"/><glyph d="M610 280 L750 280 L750 420 L610 420 L610 560 L470 560 L470 700 L330 700 L330 560 L190 560 L190 420 L330 420 L330 280 L190 280 L190 420 L50 420 L50 280 L190 280 L190 140 L330 140 L330 0 L470 0 L470 140 L610 140 L610 280 L470 280 L470 420 L610 420 L610 280 Z" glyph-name="uni0424" horiz-adv-x="800" unicode="Ф"/><glyph d="M50 560 L190 560 L190 700 L50 700 L50 560 Z M610 560 L750 560 L750 700 L610 700 L610 560 Z M190 420 L330 420 L330 560 L190 560 L190 420 Z M470 420 L610 420 L610 560 L470 560 L470 420 Z M330 280 L470 280 L470 420 L330 420 L330 280 Z M190 140 L330 140 L330 280 L190 280 L190 140 Z M470 140 L610 140 L610 280 L470 280 L470 140 Z M50 0 L190 0 L190 140 L50 140 L50 0 Z M610 0 L750 0 L750 140 L610 140 L610 0 Z" glyph-name="uni0425" horiz-adv-x="800" unicode="Х"/><glyph d="M50 0 L610 0 L610 -140 L750 -140 L750 140 L610 140 L610 700 L470 700 L470 140 L190 140 L190 700 L50 700 L50 0 Z" glyph-name="uni0426" horiz-adv-x="800" unicode="Ц"/><glyph d="M750 700 L610 700 L610 420 L190 420 L190 700 L50 700 L50 420 L190 420 L190 280 L610 280 L610 0 L750 0 L750 700 Z" glyph-name="uni0427" horiz-adv-x="800" unicode="Ч"/><glyph d="M50 0 L750 0 L750 700 L610 700 L610 140 L470 140 L470 700 L330 700 L330 140 L190 140 L190 700 L50 700 L50 0 Z" glyph-name="uni0428" horiz-adv-x="800" unicode="Ш"/><glyph d="M50 0 L750 0 L750 -140 L890 -140 L890 140 L750 140 L750 700 L610 700 L610 140 L470 140 L470 700 L330 700 L330 140 L190 140 L190 700 L50 700 L50 0 Z" glyph-name="uni0429" horiz-adv-x="940" unicode="Щ"/><glyph d="M50 560 L190 560 L190 0 L610 0 L610 140 L750 140 L750 280 L610 280 L610 420 L330 420 L330 700 L50 700 L50 560 Z M610 140 L330 140 L330 280 L610 280 L610 140 Z" glyph-name="uni042A" horiz-adv-x="800" unicode="Ъ"/><glyph d="M470 140 L610 140 L610 280 L470 280 L470 420 L190 420 L190 700 L50 700 L50 0 L470 0 L470 140 Z M470 140 L190 140 L190 280 L470 280 L470 140 Z M890 700 L750 700 L750 0 L890 0 L890 700 Z" glyph-name="uni042B" horiz-adv-x="940" unicode="Ы"/><glyph d="M610 140 L750 140 L750 280 L610 280 L610 420 L190 420 L190 700 L50 700 L50 0 L610 0 L610 140 Z M610 140 L190 140 L190 280 L610 280 L610 140 Z" glyph-name="uni042C" horiz-adv-x="800" unicode="Ь"/><glyph d="M50 700 L50 560 L610 560 L610 420 L330 420 L330 280 L610 280 L610 140 L750 140 L750 560 L610 560 L610 700 L50 700 Z M50 140 L50 0 L610 0 L610 140 L50 140 Z" glyph-name="uni042D" horiz-adv-x="800" unicode="Э"/><glyph d="M50 700 L50 0 L190 0 L190 280 L330 280 L330 140 L470 140 L470 0 L750 0 L750 140 L470 140 L470 560 L330 560 L330 420 L190 420 L190 700 L50 700 Z M750 140 L890 140 L890 560 L750 560 L750 700 L470 700 L470 560 L750 560 L750 140 Z" glyph-name="uni042E" horiz-adv-x="940" unicode="Ю"/><glyph d="M190 280 L50 280 L50 0 L190 0 L190 280 Z M190 560 L50 560 L50 420 L190 420 L190 560 Z M750 700 L190 700 L190 560 L610 560 L610 420 L190 420 L190 280 L610 280 L610 0 L750 0 L750 700 Z" glyph-name="uni042F" horiz-adv-x="800" unicode="Я"/><glyph d="M190 560 L610 560 L610 700 L190 700 L190 560 Z M50 0 L190 0 L190 140 L610 140 L610 0 L750 0 L750 560 L610 560 L610 280 L190 280 L190 560 L50 560 L50 0 Z" glyph-name="uni0430" horiz-adv-x="800" unicode="а"/><glyph d="M610 140 L750 140 L750 280 L610 280 L610 420 L190 420 L190 560 L610 560 L610 700 L50 700 L50 0 L610 0 L610 140 L190 140 L190 280 L610 280 L610 140 Z" glyph-name="uni0431" horiz-adv-x="800" unicode="б"/><glyph d="M610 140 L750 140 L750 280 L610 280 L610 420 L190 420 L190 560 L610 560 L610 420 L750 420 L750 560 L610 560 L610 700 L50 700 L50 0 L610 0 L610 140 L190 140 L190 280 L610 280 L610 140 Z" glyph-name="uni0432" horiz-adv-x="800" unicode="в"/><glyph d="M190 560 L750 560 L750 700 L50 700 L50 0 L190 0 L190 560 Z" glyph-name="uni0433" horiz-adv-x="800" unicode="г"/><glyph d="M470 280 L470 560 L610 560 L610 140 L330 140 L330 280 L190 280 L190 140 L50 140 L50 -140 L190 -140 L190 0 L750 0 L750 -140 L890 -140 L890 140 L750 140 L750 700 L330 700 L330 280 L470 280 Z" glyph-name="uni0434" horiz-adv-x="940" unicode="д"/><glyph d="M50 0 L750 0 L750 140 L190 140 L190 280 L470 280 L470 420 L190 420 L190 560 L750 560 L750 700 L50 700 L50 0 Z" glyph-name="uni0435" horiz-adv-x="800" unicode="е"/><glyph d="M890 0 L1030 0 L1030 140 L890 140 L890 280 L750 280 L750 420 L610 420 L610 700 L470 700 L470 420 L330 420 L330 560 L190 560 L190 700 L50 700 L50 560 L190 560 L190 420 L330 420 L330 280 L470 280 L470 0 L610 0 L610 280 L750 280 L750 140 L890 140 L890 0 Z M330 280 L190 280 L190 140 L330 140 L330 280 Z M750 420 L890 420 L890 560 L750 560 L750 420 Z M890 560 L1030 560 L1030 700 L890 700 L890 560 Z M190 140 L50 140 L50 0 L190 0 L190 140 Z" glyph-name="uni0436" horiz-adv-x="1080" unicode="ж"/><glyph d="M610 420 L750 420 L750 560 L610 560 L610 700 L190 700 L190 560 L610 560 L610 420 Z M190 280 L50 280 L50 140 L190 140 L190 0 L610 0 L610 140 L190 140 L190 280 Z M610 140 L750 140 L750 280 L610 280 L610 420 L330 420 L330 280 L610 280 L610 140 Z M190 560 L50 560 L50 420 L190 420 L190 560 Z" glyph-name="uni0437" horiz-adv-x="800" unicode="з"/><glyph d="M470 420 L330 420 L330 280 L470 280 L470 420 Z M190 700 L50 700 L50 0 L190 0 L190 140 L330 140 L330 280 L190 280 L190 700 Z M750 700 L610 700 L610 560 L470 560 L470 420 L610 420 L610 0 L750 0 L750 700 Z" glyph-name="uni0438" horiz-adv-x="800" unicode="и"/><glyph d="M470 420 L330 420 L330 280 L470 280 L470 420 Z M190 700 L50 700 L50 0 L190 0 L190 140 L330 140 L330 280 L190 280 L190 700 Z M750 700 L610 700 L610 560 L470 560 L470 420 L610 420 L610 0 L750 0 L750 700 Z M190 840 L330 840 L330 700 L470 700 L470 840 L330 840 L330 980 L190 980 L190 840 Z M470 840 L610 840 L610 980 L470 980 L470 840 Z" glyph-name="uni0439" horiz-adv-x="800" unicode="й"/><glyph d="M610 560 L750 560 L750 700 L610 700 L610 560 Z M470 420 L610 420 L610 560 L470 560 L470 420 Z M470 140 L610 140 L610 280 L470 280 L470 140 Z M610 0 L750 0 L750 140 L610 140 L610 0 Z M190 420 L190 700 L50 700 L50 0 L190 0 L190 280 L470 280 L470 420 L190 420 Z" glyph-name="uni043A" horiz-adv-x="800" unicode="к"/><glyph d="M330 140 L330 560 L610 560 L610 0 L750 0 L750 700 L190 700 L190 140 L330 140 Z M50 140 L50 0 L190 0 L190 140 L50 140 Z" glyph-name="uni043B" horiz-adv-x="800" unicode="л"/><glyph d="M50 0 L190 0 L190 420 L330 420 L330 560 L190 560 L190 700 L50 700 L50 0 Z M610 560 L470 560 L470 420 L610 420 L610 0 L750 0 L750 700 L610 700 L610 560 Z M330 280 L470 280 L470 420 L330 420 L330 280 Z" glyph-name="uni043C" horiz-adv-x="800" unicode="м"/><glyph d="M50 0 L190 0 L190 280 L610 280 L610 0 L750 0 L750 700 L610 700 L610 420 L190 420 L190 700 L50 700 L50 0 Z" glyph-name="uni043D" horiz-adv-x="800" unicode="н"/><glyph d="M190 560 L610 560 L610 700 L190 700 L190 560 Z M50 140 L190 140 L190 560 L50 560 L50 140 Z M610 140 L750 140 L750 560 L610 560 L610 140 Z M190 0 L610 0 L610 140 L190 140 L190 0 Z" glyph-name="uni043E" horiz-adv-x="800" unicode="о"/><glyph d="M50 0 L190 0 L190 560 L610 560 L610 0 L750 0 L750 700 L50 700 L50 0 Z" glyph-name="uni043F" horiz-adv-x="800" unicode="п"/><glyph d="M50 0 L190 0 L190 280 L610 280 L610 420 L190 420 L190 560 L610 560 L610 700 L50 700 L50 0 Z M610 420 L750 420 L750 560 L610 560 L610 420 Z" glyph-name="uni0440" horiz-adv-x="800" unicode="р"/><glyph d="M190 560 L610 560 L610 700 L190 700 L190 560 Z M50 140 L190 140 L190 560 L50 560 L50 140 Z M610 420 L750 420 L750 560 L610 560 L610 420 Z M610 140 L750 140 L750 280 L610 280 L610 140 Z M190 0 L610 0 L610 140 L190 140 L190 0 Z" glyph-name="uni0441" horiz-adv-x="800" unicode="с"/><glyph d="M50 560 L330 560 L330 0 L470 0 L470 560 L750 560 L750 700 L50 700 L50 560 Z" glyph-name="uni0442" horiz-adv-x="800" unicode="т"/><glyph d="M50 560 L190 560 L190 700 L50 700 L50 560 Z M610 560 L750 560 L750 700 L610 700 L610 560 Z M190 420 L330 420 L330 560 L190 560 L190 420 Z M470 420 L610 420 L610 560 L470 560 L470 420 Z M330 280 L470 280 L470 420 L330 420 L330 280 Z M190 140 L330 140 L330 280 L190 280 L190 140 Z M50 0 L190 0 L190 140 L50 140 L50 0 Z" glyph-name="uni0443" horiz-adv-x="800" unicode="у"/><glyph d="M610 280 L750 280 L750 420 L610 420 L610 560 L470 560 L470 700 L330 700 L330 560 L190 560 L190 420 L330 420 L330 280 L190 280 L190 420 L50 420 L50 280 L190 280 L190 140 L330 140 L330 0 L470 0 L470 140 L610 140 L610 280 L470 280 L470 420 L610 420 L610 280 Z" glyph-name="uni0444" horiz-adv-x="800" unicode="ф"/><glyph d="M50 560 L190 560 L190 700 L50 700 L50 560 Z M610 560 L750 560 L750 700 L610 700 L610 560 Z M190 420 L330 420 L330 560 L190 560 L190 420 Z M470 420 L610 420 L610 560 L470 560 L470 420 Z M330 280 L470 280 L470 420 L330 420 L330 280 Z M190 140 L330 140 L330 280 L190 280 L190 140 Z M470 140 L610 140 L610 280 L470 280 L470 140 Z M50 0 L190 0 L190 140 L50 140 L50 0 Z M610 0 L750 0 L750 140 L610 140 L610 0 Z" glyph-name="uni0445" horiz-adv-x="800" unicode="х"/><glyph d="M50 0 L610 0 L610 -140 L750 -140 L750 140 L610 140 L610 700 L470 700 L470 140 L190 140 L190 700 L50 700 L50 0 Z" glyph-name="uni0446" horiz-adv-x="800" unicode="ц"/><glyph d="M750 700 L610 700 L610 420 L190 420 L190 700 L50 700 L50 420 L190 420 L190 280 L610 280 L610 0 L750 0 L750 700 Z" glyph-name="uni0447" horiz-adv-x="800" unicode="ч"/><glyph d="M50 0 L750 0 L750 700 L610 700 L610 140 L470 140 L470 700 L330 700 L330 140 L190 140 L190 700 L50 700 L50 0 Z" glyph-name="uni0448" horiz-adv-x="800" unicode="ш"/><glyph d="M50 0 L750 0 L750 -140 L890 -140 L890 140 L750 140 L750 700 L610 700 L610 140 L470 140 L470 700 L330 700 L330 140 L190 140 L190 700 L50 700 L50 0 Z" glyph-name="uni0449" horiz-adv-x="940" unicode="щ"/><glyph d="M50 560 L190 560 L190 0 L610 0 L610 140 L750 140 L750 280 L610 280 L610 420 L330 420 L330 700 L50 700 L50 560 Z M610 140 L330 140 L330 280 L610 280 L610 140 Z" glyph-name="uni044A" horiz-adv-x="800" unicode="ъ"/><glyph d="M470 140 L610 140 L610 280 L470 280 L470 420 L190 420 L190 700 L50 700 L50 0 L470 0 L470 140 Z M470 140 L190 140 L190 280 L470 280 L470 140 Z M890 700 L750 700 L750 0 L890 0 L890 700 Z" glyph-name="uni044B" horiz-adv-x="940" unicode="ы"/><glyph d="M610 140 L750 140 L750 280 L610 280 L610 420 L190 420 L190 700 L50 700 L50 0 L610 0 L610 140 Z M610 140 L190 140 L190 280 L610 280 L610 140 Z" glyph-name="uni044C" horiz-adv-x="800" unicode="ь"/><glyph d="M50 700 L50 560 L610 560 L610 420 L330 420 L330 280 L610 280 L610 140 L750 140 L750 560 L610 560 L610 700 L50 700 Z M50 140 L50 0 L610 0 L610 140 L50 140 Z" glyph-name="uni044D" horiz-adv-x="800" unicode="э"/><glyph d="M50 700 L50 0 L190 0 L190 280 L330 280 L330 140 L470 140 L470 0 L750 0 L750 140 L470 140 L470 560 L330 560 L330 420 L190 420 L190 700 L50 700 Z M750 140 L890 140 L890 560 L750 560 L750 700 L470 700 L470 560 L750 560 L750 140 Z" glyph-name="uni044E" horiz-adv-x="940" unicode="ю"/><glyph d="M190 280 L50 280 L50 0 L190 0 L190 280 Z M190 560 L50 560 L50 420 L190 420 L190 560 Z M750 700 L190 700 L190 560 L610 560 L610 420 L190 420 L190 280 L610 280 L610 0 L750 0 L750 700 Z" glyph-name="uni044F" horiz-adv-x="800" unicode="я"/><glyph d="M50 0 L750 0 L750 140 L190 140 L190 280 L470 280 L470 420 L190 420 L190 560 L750 560 L750 700 L50 700 L50 0 Z M330 700 L470 700 L470 840 L330 840 L330 700 Z M190 840 L330 840 L330 980 L190 980 L190 840 Z" glyph-name="uni0450" horiz-adv-x="800" unicode="ѐ"/><glyph d="M50 0 L750 0 L750 140 L190 140 L190 280 L470 280 L470 420 L190 420 L190 560 L750 560 L750 700 L50 700 L50 0 Z M190 840 L330 840 L330 980 L190 980 L190 840 Z M470 840 L610 840 L610 980 L470 980 L470 840 Z" glyph-name="uni0451" horiz-adv-x="800" unicode="ё"/><glyph d="M190 0 L330 0 L330 280 L610 280 L610 140 L750 140 L750 280 L610 280 L610 420 L330 420 L330 560 L470 560 L470 700 L50 700 L50 560 L190 560 L190 0 Z M470 140 L470 0 L610 0 L610 140 L470 140 Z" glyph-name="uni0452" horiz-adv-x="800" unicode="ђ"/><glyph d="M190 560 L750 560 L750 700 L50 700 L50 0 L190 0 L190 560 Z M610 980 L470 980 L470 840 L610 840 L610 980 Z M470 840 L330 840 L330 700 L470 700 L470 840 Z" glyph-name="uni0453" horiz-adv-x="800" unicode="ѓ"/><glyph d="M750 0 L750 140 L190 140 L190 280 L470 280 L470 420 L190 420 L190 560 L50 560 L50 140 L190 140 L190 0 L750 0 Z M750 560 L750 700 L190 700 L190 560 L750 560 Z" glyph-name="uni0454" horiz-adv-x="800" unicode="є"/><glyph d="M190 560 L750 560 L750 700 L190 700 L190 560 Z M50 420 L190 420 L190 560 L50 560 L50 420 Z M190 280 L610 280 L610 420 L190 420 L190 280 Z M610 140 L750 140 L750 280 L610 280 L610 140 Z M50 0 L610 0 L610 140 L50 140 L50 0 Z" glyph-name="uni0455" horiz-adv-x="800" unicode="ѕ"/><glyph d="M50 560 L190 560 L190 140 L50 140 L50 0 L470 0 L470 140 L330 140 L330 560 L470 560 L470 700 L50 700 L50 560 Z" glyph-name="uni0456" horiz-adv-x="520" unicode="і"/><glyph d="M50 560 L190 560 L190 140 L50 140 L50 0 L470 0 L470 140 L330 140 L330 560 L470 560 L470 700 L50 700 L50 560 Z M50 840 L190 840 L190 980 L50 980 L50 840 Z M330 840 L470 840 L470 980 L330 980 L330 840 Z" glyph-name="uni0457" horiz-adv-x="520" unicode="ї"/><glyph d="M190 560 L610 560 L610 140 L750 140 L750 700 L190 700 L190 560 Z M190 0 L610 0 L610 140 L190 140 L190 280 L50 280 L50 140 L190 140 L190 0 Z" glyph-name="uni0458" horiz-adv-x="800" unicode="ј"/><glyph d="M330 140 L330 560 L470 560 L470 0 L890 0 L890 140 L610 140 L610 280 L890 280 L890 140 L1030 140 L1030 280 L890 280 L890 420 L610 420 L610 700 L190 700 L190 140 L330 140 Z M50 140 L50 0 L190 0 L190 140 L50 140 Z" glyph-name="uni0459" horiz-adv-x="1080" unicode="љ"/><glyph d="M890 140 L1030 140 L1030 280 L890 280 L890 420 L610 420 L610 700 L470 700 L470 420 L190 420 L190 700 L50 700 L50 0 L190 0 L190 280 L470 280 L470 0 L890 0 L890 140 L610 140 L610 280 L890 280 L890 140 Z" glyph-name="uni045A" horiz-adv-x="1080" unicode="њ"/><glyph d="M190 0 L330 0 L330 280 L610 280 L610 0 L750 0 L750 280 L610 280 L610 420 L330 420 L330 560 L470 560 L470 700 L50 700 L50 560 L190 560 L190 0 Z" glyph-name="uni045B" horiz-adv-x="800" unicode="ћ"/><glyph d="M610 560 L750 560 L750 700 L610 700 L610 560 Z M470 420 L610 420 L610 560 L470 560 L470 420 Z M470 140 L610 140 L610 280 L470 280 L470 140 Z M610 0 L750 0 L750 140 L610 140 L610 0 Z M190 420 L190 700 L50 700 L50 0 L190 0 L190 280 L470 280 L470 420 L190 420 Z M610 980 L470 980 L470 840 L610 840 L610 980 Z M470 840 L330 840 L330 700 L470 700 L470 840 Z" glyph-name="uni045C" horiz-adv-x="800" unicode="ќ"/><glyph d="M330 700 L470 700 L470 840 L330 840 L330 700 Z M190 840 L330 840 L330 980 L190 980 L190 840 Z M470 420 L330 420 L330 280 L470 280 L470 420 Z M190 700 L50 700 L50 0 L190 0 L190 140 L330 140 L330 280 L190 280 L190 700 Z M750 700 L610 700 L610 560 L470 560 L470 420 L610 420 L610 0 L750 0 L750 700 Z" glyph-name="uni045D" horiz-adv-x="800" unicode="ѝ"/><glyph d="M50 560 L190 560 L190 700 L50 700 L50 560 Z M610 560 L750 560 L750 700 L610 700 L610 560 Z M190 420 L330 420 L330 560 L190 560 L190 420 Z M470 420 L610 420 L610 560 L470 560 L470 420 Z M330 280 L470 280 L470 420 L330 420 L330 280 Z M190 140 L330 140 L330 280 L190 280 L190 140 Z M50 0 L190 0 L190 140 L50 140 L50 0 Z M190 840 L330 840 L330 700 L470 700 L470 840 L330 840 L330 980 L190 980 L190 840 Z M470 840 L610 840 L610 980 L470 980 L470 840 Z" glyph-name="uni045E" horiz-adv-x="800" unicode="ў"/><glyph d="M50 0 L330 0 L330 -140 L470 -140 L470 0 L750 0 L750 700 L610 700 L610 140 L190 140 L190 700 L50 700 L50 0 Z" glyph-name="uni045F" horiz-adv-x="800" unicode="џ"/><glyph d="M190 560 L750 560 L750 980 L610 980 L610 700 L50 700 L50 0 L190 0 L190 560 Z" glyph-name="uni0490" horiz-adv-x="800" unicode="Ґ"/><glyph d="M190 560 L750 560 L750 980 L610 980 L610 700 L50 700 L50 0 L190 0 L190 560 Z" glyph-name="uni0491" horiz-adv-x="800" unicode="ґ"/><glyph d="M50 0 L610 0 L610 140 L190 140 L190 280 L610 280 L610 420 L190 420 L190 560 L610 560 L610 700 L50 700 L50 0 Z M610 420 L750 420 L750 560 L610 560 L610 420 Z M610 140 L750 140 L750 280 L610 280 L610 140 Z M330 840 L470 840 L470 980 L330 980 L330 840 Z" glyph-name="uni1E02" horiz-adv-x="800" unicode="Ḃ"/><glyph d="M50 0 L610 0 L610 140 L190 140 L190 280 L610 280 L610 420 L190 420 L190 560 L610 560 L610 700 L50 700 L50 0 Z M610 420 L750 420 L750 560 L610 560 L610 420 Z M610 140 L750 140 L750 280 L610 280 L610 140 Z M330 840 L470 840 L470 980 L330 980 L330 840 Z" glyph-name="uni1E03" horiz-adv-x="800" unicode="ḃ"/><glyph d="M50 0 L610 0 L610 140 L190 140 L190 560 L610 560 L610 700 L50 700 L50 0 Z M610 140 L750 140 L750 560 L610 560 L610 140 Z M330 840 L470 840 L470 980 L330 980 L330 840 Z" glyph-name="uni1E0A" horiz-adv-x="800" unicode="Ḋ"/><glyph d="M50 0 L610 0 L610 140 L190 140 L190 560 L610 560 L610 700 L50 700 L50 0 Z M610 140 L750 140 L750 560 L610 560 L610 140 Z M330 840 L470 840 L470 980 L330 980 L330 840 Z" glyph-name="uni1E0B" horiz-adv-x="800" unicode="ḋ"/><glyph d="M50 0 L190 0 L190 280 L470 280 L470 420 L190 420 L190 560 L750 560 L750 700 L50 700 L50 0 Z M330 840 L470 840 L470 980 L330 980 L330 840 Z" glyph-name="uni1E1E" horiz-adv-x="800" unicode="Ḟ"/><glyph d="M50 0 L190 0 L190 280 L470 280 L470 420 L190 420 L190 560 L750 560 L750 700 L50 700 L50 0 Z M330 840 L470 840 L470 980 L330 980 L330 840 Z" glyph-name="uni1E1F" horiz-adv-x="800" unicode="ḟ"/><glyph d="M50 0 L190 0 L190 280 L610 280 L610 0 L750 0 L750 700 L610 700 L610 420 L190 420 L190 700 L50 700 L50 0 Z M330 700 L470 700 L470 840 L330 840 L330 700 Z" glyph-name="uni1E22" horiz-adv-x="800" unicode="Ḣ"/><glyph d="M50 0 L190 0 L190 280 L610 280 L610 0 L750 0 L750 700 L610 700 L610 420 L190 420 L190 700 L50 700 L50 0 Z M330 700 L470 700 L470 840 L330 840 L330 700 Z" glyph-name="uni1E23" horiz-adv-x="800" unicode="ḣ"/><glyph d="M610 560 L750 560 L750 700 L610 700 L610 560 Z M470 420 L610 420 L610 560 L470 560 L470 420 Z M470 140 L610 140 L610 280 L470 280 L470 140 Z M610 0 L750 0 L750 140 L610 140 L610 0 Z M190 420 L190 700 L50 700 L50 0 L190 0 L190 280 L470 280 L470 420 L190 420 Z M610 980 L470 980 L470 840 L610 840 L610 980 Z M470 840 L330 840 L330 700 L470 700 L470 840 Z" glyph-name="Kacute" horiz-adv-x="800" unicode="Ḱ"/><glyph d="M610 560 L750 560 L750 700 L610 700 L610 560 Z M470 420 L610 420 L610 560 L470 560 L470 420 Z M470 140 L610 140 L610 280 L470 280 L470 140 Z M610 0 L750 0 L750 140 L610 140 L610 0 Z M190 420 L190 700 L50 700 L50 0 L190 0 L190 280 L470 280 L470 420 L190 420 Z M610 980 L470 980 L470 840 L610 840 L610 980 Z M470 840 L330 840 L330 700 L470 700 L470 840 Z" glyph-name="kacute" horiz-adv-x="800" unicode="ḱ"/><glyph d="M50 0 L190 0 L190 420 L330 420 L330 560 L190 560 L190 700 L50 700 L50 0 Z M610 560 L470 560 L470 420 L610 420 L610 0 L750 0 L750 700 L610 700 L610 560 Z M330 280 L470 280 L470 420 L330 420 L330 280 Z M330 700 L470 700 L470 840 L330 840 L330 700 Z" glyph-name="uni1E40" horiz-adv-x="800" unicode="Ṁ"/><glyph d="M50 0 L190 0 L190 420 L330 420 L330 560 L190 560 L190 700 L50 700 L50 0 Z M610 560 L470 560 L470 420 L610 420 L610 0 L750 0 L750 700 L610 700 L610 560 Z M330 280 L470 280 L470 420 L330 420 L330 280 Z M330 700 L470 700 L470 840 L330 840 L330 700 Z" glyph-name="uni1E41" horiz-adv-x="800" unicode="ṁ"/><glyph d="M50 0 L190 0 L190 280 L610 280 L610 420 L190 420 L190 560 L610 560 L610 700 L50 700 L50 0 Z M610 420 L750 420 L750 560 L610 560 L610 420 Z M330 840 L470 840 L470 980 L330 980 L330 840 Z" glyph-name="uni1E56" horiz-adv-x="800" unicode="Ṗ"/><glyph d="M50 0 L190 0 L190 280 L610 280 L610 420 L190 420 L190 560 L610 560 L610 700 L50 700 L50 0 Z M610 420 L750 420 L750 560 L610 560 L610 420 Z M330 840 L470 840 L470 980 L330 980 L330 840 Z" glyph-name="uni1E57" horiz-adv-x="800" unicode="ṗ"/><glyph d="M190 560 L750 560 L750 700 L190 700 L190 560 Z M50 420 L190 420 L190 560 L50 560 L50 420 Z M190 280 L610 280 L610 420 L190 420 L190 280 Z M610 140 L750 140 L750 280 L610 280 L610 140 Z M50 0 L610 0 L610 140 L50 140 L50 0 Z M330 840 L470 840 L470 980 L330 980 L330 840 Z" glyph-name="uni1E60" horiz-adv-x="800" unicode="Ṡ"/><glyph d="M190 560 L750 560 L750 700 L190 700 L190 560 Z M50 420 L190 420 L190 560 L50 560 L50 420 Z M190 280 L610 280 L610 420 L190 420 L190 280 Z M610 140 L750 140 L750 280 L610 280 L610 140 Z M50 0 L610 0 L610 140 L50 140 L50 0 Z M330 840 L470 840 L470 980 L330 980 L330 840 Z" glyph-name="uni1E61" horiz-adv-x="800" unicode="ṡ"/><glyph d="M50 560 L330 560 L330 0 L470 0 L470 560 L750 560 L750 700 L50 700 L50 560 Z M330 840 L470 840 L470 980 L330 980 L330 840 Z" glyph-name="uni1E6A" horiz-adv-x="800" unicode="Ṫ"/><glyph d="M50 560 L330 560 L330 0 L470 0 L470 560 L750 560 L750 700 L50 700 L50 560 Z M330 840 L470 840 L470 980 L330 980 L330 840 Z" glyph-name="uni1E6B" horiz-adv-x="800" unicode="ṫ"/><glyph d="M50 0 L190 0 L190 140 L330 140 L330 280 L190 280 L190 700 L50 700 L50 0 Z M610 280 L470 280 L470 140 L610 140 L610 0 L750 0 L750 700 L610 700 L610 280 Z M330 280 L470 280 L470 420 L330 420 L330 280 Z M330 700 L470 700 L470 840 L330 840 L330 700 Z M190 840 L330 840 L330 980 L190 980 L190 840 Z" glyph-name="Wgrave" horiz-adv-x="800" unicode="Ẁ"/><glyph d="M50 0 L190 0 L190 140 L330 140 L330 280 L190 280 L190 700 L50 700 L50 0 Z M610 280 L470 280 L470 140 L610 140 L610 0 L750 0 L750 700 L610 700 L610 280 Z M330 280 L470 280 L470 420 L330 420 L330 280 Z M330 700 L470 700 L470 840 L330 840 L330 700 Z M190 840 L330 840 L330 980 L190 980 L190 840 Z" glyph-name="wgrave" horiz-adv-x="800" unicode="ẁ"/><glyph d="M50 0 L190 0 L190 140 L330 140 L330 280 L190 280 L190 700 L50 700 L50 0 Z M610 280 L470 280 L470 140 L610 140 L610 0 L750 0 L750 700 L610 700 L610 280 Z M330 280 L470 280 L470 420 L330 420 L330 280 Z M610 980 L470 980 L470 840 L610 840 L610 980 Z M470 840 L330 840 L330 700 L470 700 L470 840 Z" glyph-name="Wacute" horiz-adv-x="800" unicode="Ẃ"/><glyph d="M50 0 L190 0 L190 140 L330 140 L330 280 L190 280 L190 700 L50 700 L50 0 Z M610 280 L470 280 L470 140 L610 140 L610 0 L750 0 L750 700 L610 700 L610 280 Z M330 280 L470 280 L470 420 L330 420 L330 280 Z M610 980 L470 980 L470 840 L610 840 L610 980 Z M470 840 L330 840 L330 700 L470 700 L470 840 Z" glyph-name="wacute" horiz-adv-x="800" unicode="ẃ"/><glyph d="M50 0 L190 0 L190 140 L330 140 L330 280 L190 280 L190 700 L50 700 L50 0 Z M610 280 L470 280 L470 140 L610 140 L610 0 L750 0 L750 700 L610 700 L610 280 Z M330 280 L470 280 L470 420 L330 420 L330 280 Z M190 840 L330 840 L330 980 L190 980 L190 840 Z M470 840 L610 840 L610 980 L470 980 L470 840 Z" glyph-name="Wdieresis" horiz-adv-x="800" unicode="Ẅ"/><glyph d="M50 0 L190 0 L190 140 L330 140 L330 280 L190 280 L190 700 L50 700 L50 0 Z M610 280 L470 280 L470 140 L610 140 L610 0 L750 0 L750 700 L610 700 L610 280 Z M330 280 L470 280 L470 420 L330 420 L330 280 Z M190 840 L330 840 L330 980 L190 980 L190 840 Z M470 840 L610 840 L610 980 L470 980 L470 840 Z" glyph-name="wdieresis" horiz-adv-x="800" unicode="ẅ"/><glyph d="M610 420 L750 420 L750 560 L610 560 L610 700 L190 700 L190 560 L610 560 L610 420 Z M610 140 L750 140 L750 280 L610 280 L610 420 L330 420 L330 280 L610 280 L610 140 Z M190 560 L50 560 L50 0 L190 0 L190 560 Z M330 0 L610 0 L610 140 L330 140 L330 0 Z" glyph-name="uni1E9E" horiz-adv-x="800" unicode="ẞ"/><glyph d="M50 560 L190 560 L190 700 L50 700 L50 560 Z M610 560 L750 560 L750 700 L610 700 L610 560 Z M190 420 L330 420 L330 560 L190 560 L190 420 Z M470 420 L610 420 L610 560 L470 560 L470 420 Z M330 0 L470 0 L470 420 L330 420 L330 0 Z M330 700 L470 700 L470 840 L330 840 L330 700 Z M190 840 L330 840 L330 980 L190 980 L190 840 Z" glyph-name="Ygrave" horiz-adv-x="800" unicode="Ỳ"/><glyph d="M50 560 L190 560 L190 700 L50 700 L50 560 Z M610 560 L750 560 L750 700 L610 700 L610 560 Z M190 420 L330 420 L330 560 L190 560 L190 420 Z M470 420 L610 420 L610 560 L470 560 L470 420 Z M330 0 L470 0 L470 420 L330 420 L330 0 Z M330 700 L470 700 L470 840 L330 840 L330 700 Z M190 840 L330 840 L330 980 L190 980 L190 840 Z" glyph-name="ygrave" horiz-adv-x="800" unicode="ỳ"/><glyph d="M50 280 L470 280 L470 420 L50 420 L50 280 Z" glyph-name="endash" horiz-adv-x="520" unicode="–"/><glyph d="M50 280 L750 280 L750 420 L50 420 L50 280 Z" glyph-name="emdash" horiz-adv-x="800" unicode="—"/><glyph d="M50 280 L890 280 L890 420 L50 420 L50 280 Z" glyph-name="uni2015" horiz-adv-x="940" unicode="―"/><glyph d="M330 420 L190 420 L190 560 L50 560 L50 280 L330 280 L330 420 Z M330 700 L190 700 L190 560 L330 560 L330 700 Z" glyph-name="quoteleft" horiz-adv-x="380" unicode="‘"/><glyph d="M50 560 L190 560 L190 420 L330 420 L330 700 L50 700 L50 560 Z M50 280 L190 280 L190 420 L50 420 L50 280 Z" glyph-name="quoteright" horiz-adv-x="380" unicode="’"/><glyph d="M50 140 L190 140 L190 0 L330 0 L330 280 L50 280 L50 140 Z M50 -140 L190 -140 L190 0 L50 0 L50 -140 Z" glyph-name="quotesinglbase" horiz-adv-x="380" unicode="‚"/><glyph d="M710 420 L570 420 L570 560 L430 560 L430 280 L710 280 L710 420 Z M710 700 L570 700 L570 560 L710 560 L710 700 Z M330 420 L190 420 L190 560 L50 560 L50 280 L330 280 L330 420 Z M330 700 L190 700 L190 560 L330 560 L330 700 Z" glyph-name="quotedblleft" horiz-adv-x="760" unicode="“"/><glyph d="M50 560 L190 560 L190 420 L330 420 L330 700 L50 700 L50 560 Z M50 280 L190 280 L190 420 L50 420 L50 280 Z M430 560 L570 560 L570 420 L710 420 L710 700 L430 700 L430 560 Z M430 280 L570 280 L570 420 L430 420 L430 280 Z" glyph-name="quotedblright" horiz-adv-x="760" unicode="”"/><glyph d="M50 140 L190 140 L190 0 L330 0 L330 280 L50 280 L50 140 Z M50 -140 L190 -140 L190 0 L50 0 L50 -140 Z M430 140 L570 140 L570 0 L710 0 L710 280 L430 280 L430 140 Z M430 -140 L570 -140 L570 0 L430 0 L430 -140 Z" glyph-name="quotedblbase" horiz-adv-x="760" unicode="„"/><glyph d="M50 420 L190 420 L190 0 L330 0 L330 420 L470 420 L470 560 L330 560 L330 700 L190 700 L190 560 L50 560 L50 420 Z" glyph-name="dagger" horiz-adv-x="520" unicode="†"/><glyph d="M50 420 L190 420 L190 280 L50 280 L50 140 L190 140 L190 0 L330 0 L330 140 L470 140 L470 280 L330 280 L330 420 L470 420 L470 560 L330 560 L330 700 L190 700 L190 560 L50 560 L50 420 Z" glyph-name="daggerdbl" horiz-adv-x="520" unicode="‡"/><glyph d="M50 210 L330 210 L330 490 L50 490 L50 210 Z" glyph-name="bullet" horiz-adv-x="380" unicode="•"/><glyph d="M50 0 L190 0 L190 140 L50 140 L50 0 Z M330 0 L470 0 L470 140 L330 140 L330 0 Z M610 0 L750 0 L750 140 L610 140 L610 0 Z" glyph-name="ellipsis" horiz-adv-x="800" unicode="…"/><glyph d="M610 560 L750 560 L750 700 L610 700 L610 560 Z M470 420 L610 420 L610 560 L470 560 L470 420 Z M330 280 L470 280 L470 420 L330 420 L330 280 Z M190 140 L330 140 L330 280 L190 280 L190 140 Z M50 0 L190 0 L190 140 L50 140 L50 0 Z M50 560 L190 560 L190 700 L50 700 L50 560 Z M470 0 L750 0 L750 140 L470 140 L470 0 Z" glyph-name="perthousand" horiz-adv-x="800" unicode="‰"/><glyph d="M190 280 L190 420 L50 420 L50 280 L190 280 Z M330 560 L190 560 L190 420 L330 420 L330 560 Z M190 280 L190 140 L330 140 L330 280 L190 280 Z" glyph-name="guilsinglleft" horiz-adv-x="380" unicode="‹"/><glyph d="M50 280 L50 140 L190 140 L190 280 L50 280 Z M50 420 L190 420 L190 560 L50 560 L50 420 Z M330 280 L330 420 L190 420 L190 280 L330 280 Z" glyph-name="guilsinglright" horiz-adv-x="380" unicode="›"/><glyph d="M610 560 L750 560 L750 700 L610 700 L610 560 Z M470 420 L610 420 L610 560 L470 560 L470 420 Z M330 280 L470 280 L470 420 L330 420 L330 280 Z M190 140 L330 140 L330 280 L190 280 L190 140 Z M50 0 L190 0 L190 140 L50 140 L50 0 Z" glyph-name="fraction" horiz-adv-x="800" unicode="⁄"/><glyph d="M330 0 L750 0 L750 140 L330 140 L330 280 L610 280 L610 420 L330 420 L330 560 L190 560 L190 420 L50 420 L50 280 L190 280 L190 140 L330 140 L330 0 Z M750 420 L890 420 L890 560 L750 560 L750 700 L330 700 L330 560 L750 560 L750 420 Z M750 140 L890 140 L890 280 L750 280 L750 140 Z" glyph-name="Euro" horiz-adv-x="940" unicode="€"/><glyph d="M190 350 L260 350 L260 630 L400 630 L400 700 L50 700 L50 630 L190 630 L190 350 Z M470 350 L540 350 L540 700 L470 700 L470 350 Z M540 560 L610 560 L610 630 L540 630 L540 560 Z M610 490 L680 490 L680 560 L610 560 L610 490 Z M680 560 L750 560 L750 630 L680 630 L680 560 Z M750 350 L820 350 L820 700 L750 700 L750 350 Z" glyph-name="trademark" horiz-adv-x="870" unicode="™"/><glyph d="M610 280 L750 280 L750 560 L610 560 L610 700 L190 700 L190 560 L610 560 L610 280 Z M50 0 L330 0 L330 280 L190 280 L190 560 L50 560 L50 280 L190 280 L190 140 L50 140 L50 0 Z M750 0 L750 140 L610 140 L610 280 L470 280 L470 0 L750 0 Z" glyph-name="Omega" horiz-adv-x="800" unicode="Ω"/><glyph d="M470 420 L610 420 L610 140 L190 140 L190 420 L50 420 L50 0 L750 0 L750 420 L610 420 L610 560 L470 560 L470 700 L330 700 L330 560 L470 560 L470 420 Z M190 420 L330 420 L330 560 L190 560 L190 420 Z" glyph-name="increment" horiz-adv-x="800" unicode="∆"/><glyph d="M50 0 L190 0 L190 560 L610 560 L610 0 L750 0 L750 700 L50 700 L50 0 Z" glyph-name="product" horiz-adv-x="800" unicode="∏"/><glyph d="M330 280 L470 280 L470 420 L330 420 L330 560 L750 560 L750 700 L50 700 L50 560 L190 560 L190 420 L330 420 L330 280 Z M50 0 L750 0 L750 140 L330 140 L330 280 L190 280 L190 140 L50 140 L50 0 Z" glyph-name="summation" horiz-adv-x="800" unicode="∑"/><glyph d="M50 420 L50 280 L470 280 L470 420 L50 420 Z" glyph-name="minus" horiz-adv-x="520" unicode="−"/><glyph d="M610 490 L610 210 L750 210 L750 490 L610 490 Z M470 630 L470 490 L610 490 L610 630 L470 630 Z M470 210 L470 70 L610 70 L610 210 L470 210 Z M330 490 L330 210 L470 210 L470 490 L330 490 Z M190 630 L190 490 L330 490 L330 630 L190 630 Z M190 210 L190 70 L330 70 L330 210 L190 210 Z M50 490 L50 210 L190 210 L190 490 L50 490 Z" glyph-name="infinity" horiz-adv-x="800" unicode="∞"/><glyph d="M50 280 L190 280 L190 140 L330 140 L330 0 L470 0 L470 140 L330 140 L330 280 L190 280 L190 420 L50 420 L50 280 Z M470 420 L610 420 L610 280 L750 280 L750 420 L610 420 L610 560 L470 560 L470 700 L330 700 L330 560 L470 560 L470 420 Z M190 420 L330 420 L330 560 L190 560 L190 420 Z M470 140 L610 140 L610 280 L470 280 L470 140 Z" glyph-name="lozenge" horiz-adv-x="800" unicode="◊"/><glyph d="M330 -250 L330 0 L190 0 L190 -250 L330 -250 Z" glyph-name="commaaccent" horiz-adv-x="380" unicode=""/><glyph d="M50 0 L190 0 L190 280 L470 280 L470 420 L190 420 L190 560 L750 560 L750 700 L50 700 L50 0 Z M750 560 L890 560 L890 140 L750 140 L750 0 L1170 0 L1170 140 L1030 140 L1030 560 L1170 560 L1170 700 L750 700 L750 560 Z" glyph-name="fi" horiz-adv-x="1220" unicode="ﬁ"/><glyph d="M50 0 L190 0 L190 280 L470 280 L470 420 L190 420 L190 560 L750 560 L750 700 L50 700 L50 0 Z M890 0 L1590 0 L1590 140 L1030 140 L1030 700 L890 700 L890 0 Z" glyph-name="fl" horiz-adv-x="1640" unicode="ﬂ"/></font>
</svg>
