<svg xmlns="http://www.w3.org/2000/svg" width="256" height="256" fill="none" viewBox="0 0 256 256"><path fill="#a5a5a5" d="m32 223.9h32v32h-32z"/><path fill="#be4500" d="m32 32h32v32h-32z"/><path fill="#c76700" d="m64 32h32v32h-32z"/><path fill="#c55d00" d="m96 32h32v32h-32z"/><path fill="#d19014" d="m128 32h32v32h-32z"/><path fill="#bc4000" d="m160 32h32v32h-32z"/><path fill="#c86a00" d="m192 32h32v32h-32z"/><path fill="#bd4300" d="m224 32h32v32h-32z"/><path fill="#c35500" d="m32 64h32v32h-32z"/><path fill="#686868" d="m64 64h32v32h-32z"/><path fill="#c04c00" d="m96 64h32v32h-32z"/><path fill="#c96e00" d="m128 64h32v32h-32z"/><path fill="#c45b00" d="m160 64h32v32h-32z"/><path fill="#797979" d="m192 64h32v32h-32z"/><path fill="#bc4000" d="m224 64h32v32h-32z"/><path fill="#c04c00" d="m256 0h-32v32h32z"/><path fill="#c96e00" d="m224 0h-32v32h32z"/><path fill="#c45b00" d="m192 0h-32v32h32z"/><path fill="#bc4000" d="m128 0h-32v32h32z"/><path fill="#bc4300" d="m96 0h-32v32h32z"/><path fill="#c76700" d="m32 32h32v-32h-32"/><path fill="#c96e00" d="m32 96h32v32h-32z"/><path fill="#5c5c5c" d="m64 96h32v32h-32z"/><path fill="#626262" d="m96 96h32v32h-32z"/><path fill="#ba3e00" d="m128 96h32v32h-32z"/><path fill="#515151" d="m160 96h32v32h-32z"/><path fill="#656565" d="m192 96h32v32h-32z"/><path fill="#5c5c5c" d="m224 96h32v32h-32z"/><path fill="#6f6f6f" d="m32 128h32v32h-32z"/><path fill="#888" d="m64 128h32v32h-32z"/><path fill="#666" d="m96 128h32v32h32v32h-64z"/><path fill="#585858" d="m128 128h32v32h-32z"/><path fill="#6f6f6f" d="m160 128h32v32h-32z"/><path fill="#545454" d="m192 128h32v32h-32z"/><path fill="#767676" d="m224 128h32v32h-32z"/><path fill="#7b7b7b" d="m32 160h32v32h-32z"/><path fill="#545454" d="m64 160h32v32h-32z"/><path fill="#9c9c9c" d="m160 160h32v32h-32z"/><path fill="#7e7e7e" d="m192 160h32v32h-32z"/><path fill="#545454" d="m224 160h32v32h-32z"/><path fill="#5f5f5f" d="m32 192h32v32h-32z"/><path fill="#a5a5a5" d="m64 192h32v32h-32z"/><path fill="#7b7b7b" d="m96 192h32v32h-32z"/><path fill="#888" d="m128 192h32v32h-32z"/><path fill="#545454" d="m160 192h32v32h-32z"/><path fill="#888" d="m192 192h32v32h-32z"/><path fill="#a5a5a5" d="m224 192h32v32h-32z"/><path fill="#6e6e6e" d="m64 224h32v32h-32z"/><path fill="#545454" d="m96 224h32v32h-32z"/><path fill="#707070" d="m128 224h32v32h-32z"/><path fill="#606060" d="m160 224h32v32h-32z"/><path fill="#9c9c9c" d="m192 224h32v32h-32z"/><path fill="#757575" d="m224 224h32v32h-32z"/><path fill="#9c132e" d="m192 96h-32v3.1h32z" opacity=".3"/><path fill="#9c132e" d="m224 64h-32v3.1h32z" opacity=".3"/><path fill="#9c132e" d="m160 128h-32v3.1h32z" opacity=".3"/><path fill="#9c132e" d="m128 96h-32v3.1h32z" opacity=".3"/><path fill="#9c132e" d="m64 127.97h-32v3.1h32z" opacity=".3"/><path fill="#3f3f3f" d="m64 224h-32v3.1h32z" opacity=".3"/><path fill="#9c132e" d="m96 64h-32v3.1h32z" opacity=".3"/><path fill="#9c132e" d="m255.89 96h-31.88v3.1h31.88z" opacity=".3"/><g fill="#dcebc5"><path d="m64 126.61h-32v1.39h32z" opacity=".5"/><path d="m96 62.6099h-32v1.39h32z" opacity=".5"/><path d="m128 94.6099h-32v1.39h32z" opacity=".5"/><path d="m160 126.61h-32v1.39h32z" opacity=".5"/><path d="m192 94.6099h-32v1.39h32z" opacity=".5"/><path d="m224 62.6099h-32v1.39h32z" opacity=".5"/><path d="m255.89 94.6099h-31.89v1.39h31.89z" opacity=".5"/></g><path fill="#b32900" d="m128 0h32v32h-32z"/><path fill="#595959" d="m0 96h32v32h-32z"/><path fill="#666" d="m0 128h32v32h-32z"/><path fill="#888" d="m0 192h32v32h-32z"/><path fill="#9c9c9c" d="m0 224h32v32h-32z"/><path fill="#b32900" d="m0 32h32v32h-32z"/><path fill="#bc4300" d="m0 64h32v32h-32z"/><path fill="#b73400" d="m32 32h-32v-32h32"/><path fill="#5f5f5f" d="m0 160h32v32h-32z"/><path fill="#3f3f3f" d="m32 191.99h-32v3.1h32z" opacity=".3"/><path fill="#9c132e" d="m32 96h-32v3.1h32z" opacity=".3"/><path fill="#dcebc5" d="m32 94.6099h-32v1.39h32z" opacity=".5"/><path fill="#3f3f3f" d="m192 192h-32v3.1h32z" opacity=".3"/><path fill="#3f3f3f" d="m128 224h-32v3.1h32z" opacity=".3"/><path fill="#3f3f3f" d="m256 160h-32v3.1h32z" opacity=".3"/><path fill="#3f3f3f" d="m96 160h-32v3.1h32z" opacity=".3"/><path fill="#3f3f3f" d="m224 128h-32v3.1h32z" opacity=".3"/></svg>