<svg xmlns="http://www.w3.org/2000/svg" width="16" height="16" viewBox="0 0 16 16"><title>what-computer</title><rect width="16" height="16" fill="none"/><g><path fill="#dae7e1" d="M1.24,2H14.76v.18H1.24Zm-.17.18h.17v.18H1.07Z"/><path fill="#9f9fa8" d="M1.24,2.14H14.76v.18h.17v11H1.07v-11h.17Z"/><path fill="#dae7e1" d="M14.76,2.14h.17v.18h-.17Z"/><path fill="#3f3f49" d="M7.82,2.32H8v.17H7.82Z"/><path fill="#1e7495" d="M1.6,2.85H14.4v.36H1.6Z"/><path fill="#2181a5" d="M1.6,3.21H2v9.06H1.6Z"/><path fill="#2ba6d5" d="M2,3.21H14v9.06H2Z"/><path fill="#2181a5" d="M14,3.21h.36v9.06H14Z"/><path fill="#348c68" d="M4.09,4.27H5.87V5.69H5.69v.72H5.51V5.69H5.33V5H5.16v.71H4.8V5H4.62V6.41H4.44V5.69H4.09Z"/><path fill="#81c351" d="M5.87,4.27h.71V5H5.87Z"/><path fill="#6caf3c" d="M6.58,4.27h.71V5H6.58Z"/><path fill="#79ba48" d="M7.29,4.27H8V5H7.29Z"/><path fill="#81c351" d="M8,4.27h.71V5H8Z"/><path fill="#79ba48" d="M8.71,4.27h.71V5H8.71Z"/><path fill="#6fb03d" d="M9.42,4.27h.71V5H9.42Z"/><path fill="#69ab37" d="M10.13,4.27h.71V5h-.71Z"/><path fill="#77b946" d="M10.84,4.27h.72V5h-.72Z"/><path fill="#5ca028" d="M4.62,5H4.8v.71H4.62Z"/><path fill="#391621" d="M5.16,5h.17v.71H5.16Z"/><path fill="#6aae3a" d="M5.87,5h.71v.71H5.87Z"/><path fill="#79ba48" d="M6.58,5h.71v.71H6.58Z"/><path fill="#6aae3a" d="M7.29,5H8v.71H7.29Z"/><path fill="#5a381e" d="M8,5h.71v.71H8Z"/><path fill="#8bcd5d" d="M8.71,5h.71v.71H8.71Z"/><path fill="#a6d674" d="M9.42,5h.71v.71H9.42Z"/><path fill="#5ca028" d="M10.13,5h.71v.71h-.71Z"/><path fill="#81c351" d="M10.84,5h.72v.71h-.72Z"/><path fill="#391621" d="M4.09,5.69h.35v.72H4.09Z"/><path fill="#4f5f76" d="M4.62,5.69H4.8v.72H4.62Z"/><path fill="#391621" d="M4.8,5.69h.36v.72H4.8Z"/><path fill="#4e3936" d="M5.16,5.69h.17v.72H5.16Z"/><path fill="#4f5f76" d="M5.33,5.69h.18v.72H5.33Z"/><path fill="#4e3936" d="M5.69,5.69h.18V10H5.69v.71H5.51v.71H4.62v-.71H4.44V10h.18V9.25H4.44V8.54H4.09V6.41h.53v.71H4.8V6.41h.36V7.83h.17V7.12h.18V6.41h.18Z"/><path fill="#805838" d="M5.87,5.69h.71v.72H5.87Z"/><path fill="#81c351" d="M6.58,5.69h.71v.72H6.58Z"/><path fill="#4f5f76" d="M7.29,5.69H8v.72H7.29Z"/><path fill="#805838" d="M8,5.69h.71v.72H8Z"/><path fill="#5a381e" d="M8.71,5.69h.71v.72H8.71Z"/><path fill="#757575" d="M9.42,5.69h.71v.72H9.42Z"/><path fill="#6fb03d" d="M10.13,5.69h.71v.72h-.71Z"/><path fill="#5a381e" d="M10.84,5.69h.72v.72h-.72Z"/><path fill="#6a4840" d="M4.62,6.41H4.8v.71H4.62Zm.54,0h.17v.71H5.16Z"/><path fill="#391621" d="M5.33,6.41h.18v.71H5.33Z"/><path fill="#a2754e" d="M5.87,6.41h.71v.71H5.87Z"/><path fill="#805838" d="M6.58,6.41h.71v.71H6.58Z"/><path fill="#5a381e" d="M7.29,6.41H8v.71H7.29Z"/><path fill="#c69065" d="M8,6.41h.71v.71H8Z"/><path fill="#805838" d="M8.71,6.41h.71v.71H8.71Z"/><path fill="#c69065" d="M9.42,6.41h.71v.71H9.42Z"/><path fill="#a2754e" d="M10.13,6.41h.71v.71h-.71Z"/><path fill="#805838" d="M10.84,6.41h.72v.71h-.72Z"/><path fill="#391621" d="M5.16,7.12h.17v.71H5.16Z"/><path fill="#805838" d="M5.87,7.12h.71v.71H5.87Z"/><path fill="#a2754e" d="M6.58,7.12H8v.71H6.58Z"/><path fill="#5a381e" d="M8,7.12h.71v.71H8Z"/><path fill="#a2754e" d="M8.71,7.12h.71v.71H8.71Z"/><path fill="#805838" d="M9.42,7.12h1.42v.71H9.42Z"/><path fill="#a2754e" d="M10.84,7.12h.72v.71h-.72Z"/><path fill="#6a4840" d="M4.8,7.83h.36v.71H4.8Zm.71,0h.18v.71H5.51Z"/><path fill="#a2754e" d="M5.87,7.83h.71v.71H5.87Z"/><path fill="#c69065" d="M6.58,7.83h.71v.71H6.58Z"/><path fill="#805838" d="M7.29,7.83H8v.71H7.29Z"/><path fill="#a2754e" d="M8,7.83h.71v.71H8Z"/><path fill="#c69065" d="M8.71,7.83h.71v.71H8.71Z"/><path fill="#a2754e" d="M9.42,7.83h1.42V9.25h-.71V8.54H9.42Z"/><path fill="#805838" d="M10.84,7.83h.72v.71h-.72Z"/><path fill="#6a4840" d="M4.09,8.54h.35v.71H4.09Z"/><path fill="#4f5f76" d="M5.16,8.54h.17v.71H5.16Z"/><path fill="#391621" d="M5.51,8.54h.18v.71H5.51Z"/><path fill="#805838" d="M5.87,8.54h.71V10H5.87Z"/><path fill="#5a381e" d="M6.58,8.54h.71v.71H6.58Z"/><path fill="#a2754e" d="M7.29,8.54H8v.71H7.29Z"/><path fill="#757575" d="M8,8.54h.71v.71H8Z"/><path fill="#a2754e" d="M8.71,8.54h.71v.71h.71V10H8.71Z"/><path fill="#805838" d="M9.42,8.54h.71v.71H9.42Z"/><path fill="#c69065" d="M10.84,8.54h.72v.71h-.72Z"/><path fill="#4e3936" d="M4.09,9.25h.35V10H4.09Z"/><path fill="#391621" d="M4.44,9.25h.18V10H4.44Zm.72,0h.17V10H5.16Z"/><path fill="#a2754e" d="M6.58,9.25h.71V10H6.58Z"/><path fill="#805838" d="M7.29,9.25H8V10H7.29Z"/><path fill="#5a381e" d="M8,9.25h.71V10H8Zm2.13,0h.71V10h-.71Z"/><path fill="#a2754e" d="M10.84,9.25h.72V10h-.72Z"/><path fill="#6a4840" d="M4.09,10h.35v.71H4.09Zm.71,0h.36v.71H4.8Zm.89,0h.18v.71H5.69Z"/><path fill="#c69065" d="M5.87,10h.71v.71H5.87Z"/><path fill="#805838" d="M6.58,10h.71v.71H6.58Z"/><path fill="#a2754e" d="M7.29,10H8.71v.71h1.42v.71H8v-.71H7.29Z"/><path fill="#c69065" d="M8.71,10h.71v.71H8.71Z"/><path fill="#805838" d="M9.42,10h1.42v.71H9.42Z"/><path fill="#c69065" d="M10.84,10h.72v.71h-.72Z"/><path fill="#4e3936" d="M4.09,10.67h.35v.71H4.09Z"/><path fill="#4f5f76" d="M4.44,10.67h.18v.71H4.44Z"/><path fill="#6a4840" d="M5.51,10.67h.18v.71H5.51Z"/><path fill="#391621" d="M5.69,10.67h.18v.71H5.69Z"/><path fill="#a2754e" d="M5.87,10.67h.71v.71H5.87Z"/><path fill="#c69065" d="M6.58,10.67h.71v.71H6.58Z"/><path fill="#805838" d="M7.29,10.67H8v.71H7.29Z"/><path fill="#757575" d="M10.13,10.67h.71v.71h-.71Z"/><path fill="#a2754e" d="M10.84,10.67h.72v.71h-.72Z"/><path fill="#2ba6d5" d="M1.6,12.27H2v.36H1.6Z"/><path fill="#7ec9e4" d="M2,12.27H14v.36H2Z"/><path fill="#2ba6d5" d="M14,12.27h.36v.36H14Z"/><path fill="#b3b3b9" d="M1.6,12.63H2v.18H1.6Z"/><path fill="#dae7e1" d="M2,12.63H14v.18H2Z"/><path fill="#b3b3b9" d="M14,12.63h.36v.18H14Z"/><path fill="#dae7e1" d="M.89,13.34H15.11v.18h.18v.17h.18v.18h.17v.18H.36v-.18H.53v-.18H.71v-.17H.89Z"/><path fill="#9f9fa8" d="M.36,14.05H.71v.36H.89v.17H15.11v-.17h.18v-.36h.35v.53h-.17v.18H.53v-.18H.36Z"/><path fill="#3f3f49" d="M.71,14.05h.71v.53H.89v-.17H.71Z"/><path fill="#000" d="M1.42,14.05H14.58v.53H1.42Z"/><path fill="#3f3f49" d="M14.58,14.05h.71v.36h-.18v.17h-.53Z"/></g></svg>